<svg xmlns="http://www.w3.org/2000/svg" width="405.025" height="282.444" viewBox="0 0 405.025 282.444"><defs><style>.a{fill:#a5c1c2;fill-rule:evenodd}</style></defs><path class="a" d="M56.266 182.631c-13.456-2.312-27.159-3.173-39.505-9.512-4.713-2.423-9.968 8.82-5.161 11.28 12.958 6.648 27.468 7.55 41.583 9.972 4.883.839 8.958-10.737 3.079-11.741m40.142-11.304c-14.094-1.4-28.295-1.445-42.193-4.448-4.8-1.041-8.933 10.479-3.085 11.74 13.9 3.009 28.1 3.06 42.2 4.448 5 .492 8.952-11.16 3.079-11.74M45.817 141.6c-13.2-1.5-25.929-4.738-38.609-8.656-5.211-1.609-10.094 9.76-5.161 11.28 13.343 4.126 26.8 7.533 40.7 9.116 4.978.561 8.952-11.078 3.072-11.74m65 4.004c-10.573.972-21.172 1.262-31.455-1.773-5.236-1.546-10.094 9.816-5.167 11.28 11.04 3.262 22.163 3.287 33.54 2.229 5.047-.467 8.63-12.258 3.079-11.74m-31.151-23.083c-11.274-.8-21.873-4.085-32.462-7.889-5.1-1.842-10.084 9.507-5.151 11.273 11.217 4.044 22.573 7.514 34.534 8.359 5.034.36 8.927-11.33 3.079-11.74m83.22 38.743c-10.643.107-21.14-1.363-31.644-2.9-4.927-.719-8.958 10.889-3.072 11.74 10.5 1.546 21 3.016 31.638 2.9 5.072-.05 8.813-11.8 3.079-11.74m23.287-20.63c-14.453.99-28.988-.032-42.912-4.183-5.23-1.558-10.088 9.81-5.161 11.28a126.458 126.458 0 0 0 44.994 4.643c5.066-.341 8.693-12.132 3.079-11.74m-53.064-21.779l-26.307.5c-5.079.1-8.794 11.854-3.079 11.74l26.307-.511c5.072-.088 8.8-11.854 3.079-11.734m51.271-13.118a115.1 115.1 0 0 1-33.039 3.116c-5.047-.252-8.9 11.457-3.079 11.734a122.96 122.96 0 0 0 35.264-3.463c4.757-1.154 7.293-12.952.852-11.387m-67.595-14.638a162.321 162.321 0 0 1-38.578-6.9c-5.217-1.59-10.094 9.785-5.167 11.28a171.773 171.773 0 0 0 40.667 7.361c5.047.278 8.908-11.425 3.079-11.74"/><path class="a" d="M160.211 80.755c-11.488 3.344-23.077 2.807-34.83 1.4-4.978-.606-8.952 11.034-3.079 11.74 12.529 1.5 24.831 1.811 37.051-1.748 4.7-1.375 7.173-13.229.858-11.394m-9.986 106.197c-12.321-1.464-24.749-2.113-36.937-4.549-4.832-.965-8.939 10.573-3.079 11.747 12.188 2.429 24.617 3.085 36.937 4.542 4.971.593 8.952-11.047 3.079-11.74m-26.006 16.296c-13.216 1.089-26.54 1.289-39.364-2.499-5.244-1.539-10.1 9.829-5.169 11.288 13.589 4 27.443 4.113 41.454 2.952 5.053-.41 8.656-12.2 3.079-11.74m-49.668 17.632a96.3 96.3 0 0 1-21.973-2.208c-4.788-1.06-8.927 10.454-3.085 11.747a96.069 96.069 0 0 0 21.98 2.2c5.072-.057 8.813-11.816 3.079-11.74m90.348-.875l-26.307.511c-5.079.1-8.8 11.854-3.079 11.74l26.307-.511c5.072-.088 8.794-11.854 3.079-11.74m31.198-19.908c-11.1.984-22.213.473-33.323.65-5.079.069-8.813 11.835-3.085 11.74 11.116-.17 22.238.347 33.329-.65 5.054-.44 8.637-12.23 3.079-11.74m9.117-27.37c-7.9.94-15.8.3-23.7-.416-5.009-.467-8.939 11.2-3.079 11.74 7.9.719 15.791 1.363 23.7.416 2.971-.347 4.94-3.028 5.659-5.8.461-1.754.41-6.3-2.587-5.943m56.984 9.582a67.889 67.889 0 0 1-31.285 3.079c-4.952-.656-8.958 10.964-3.079 11.744a73.357 73.357 0 0 0 33.505-3.438c4.624-1.571 7.028-13.488.858-11.387M235.17 145.98c-10.1 1.88-20.15 3.533-30.427 2.189-4.959-.65-8.958 10.977-3.085 11.74 11.009 1.445 21.853-.53 32.654-2.542 4.814-.9 7.419-12.611.858-11.387m38.857 13.283a80.633 80.633 0 0 1-32.181 2.232c-4.952-.662-8.958 10.965-3.079 11.741a86.462 86.462 0 0 0 34.408-2.574c4.713-1.325 7.2-13.166.852-11.394m-47.057-41.362a82.685 82.685 0 0 1-27.954-1.836c-5.312-1.287-10.056 10.094-5.161 11.28a88.374 88.374 0 0 0 30.036 2.3c5.047-.511 8.6-12.3 3.079-11.747m58.658 6.046c-11.179 4.309-22.926 4.668-34.761 4.9-5.072.1-8.8 11.854-3.079 11.747 12.542-.246 25.14-.7 36.982-5.261 4.53-1.748 6.87-13.7.858-11.387m-22.419-25.006a51.559 51.559 0 0 1-25.159 2.082c-4.908-.808-8.958 10.782-3.085 11.74a56.648 56.648 0 0 0 27.386-2.435c4.624-1.571 7.028-13.488.858-11.387m-42.116-12.497c-8.473.814-16.693-.114-24.478-3.659-4.864-2.236-10.032 9.044-5.161 11.271a51.554 51.554 0 0 0 26.56 4.126c5.047-.486 8.618-12.277 3.079-11.74M203.941 61.33a246.388 246.388 0 0 0-25.449-.391c-5.078.1-8.807 11.854-3.079 11.753a242.9 242.9 0 0 1 25.449.379c5.015.429 8.933-11.248 3.079-11.74m68.472 2.18c-11.122.17-22.232-.341-33.323.65-5.06.448-8.643 12.233-3.085 11.74 11.091-.984 22.207-.467 33.329-.65 5.072-.069 8.807-11.835 3.079-11.74m-28.784 144.442c-10.195 1.066-20.44 1.268-30.679 1.47-5.078.095-8.8 11.854-3.085 11.747 10.239-.2 20.491-.4 30.686-1.476 5.041-.53 8.592-12.327 3.079-11.74m-16.309 18.74c-8.491.12-16.964-.5-25.449-.391-5.078.069-8.813 11.823-3.079 11.747 8.485-.12 16.964.5 25.449.385 5.072-.069 8.807-11.829 3.079-11.74m82.013-11.085c-8.984 1.918-18.119 2.99-27.1 4.908-4.795 1.022-7.362 12.781-.858 11.387 8.99-1.918 18.119-3 27.1-4.908 4.8-1.022 7.362-12.781.858-11.387m-21.199-19.924a224.01 224.01 0 0 1-22.768 2.2c-5.079.132-8.788 11.892-3.085 11.74a218.841 218.841 0 0 0 22.774-2.2c2.971-.385 4.933-3.009 5.665-5.8.448-1.735.4-6.334-2.587-5.943m44.297-22.792l-42.092.82c-5.078.095-8.794 11.854-3.079 11.734l42.1-.814c5.066-.095 8.794-11.854 3.072-11.74m-23.307-25.869a158.165 158.165 0 0 1-21.084-1.344c-4.971-.606-8.958 11.034-3.079 11.741a156.077 156.077 0 0 0 21.084 1.344c5.072-.057 8.807-11.816 3.079-11.74m65.404-8.128c-11.431 4.523-23.3 7.078-35.619 5.8-5-.524-8.952 11.135-3.085 11.74 12.964 1.35 25.815-1.388 37.846-6.151 4.511-1.785 6.832-13.753.858-11.387m-39.504-13.432c-9.564 1.009-19.387 1.293-28.812-.94-5.325-1.274-10.056 10.113-5.161 11.28 10.22 2.423 20.478 2.5 30.894 1.4 5.047-.53 8.592-12.321 3.079-11.74m-6.881-26.03a90.839 90.839 0 0 1-20.762 2.877c-5.078.139-8.788 11.9-3.079 11.747a101.365 101.365 0 0 0 22.983-3.236c4.738-1.243 7.249-13.065.858-11.387m-42.03 4.324l-13.104 2.88c-4.788 1.054-7.35 12.819-.858 11.394l13.1-2.889c4.788-1.054 7.35-12.819.858-11.387m34.825-26.274c-10.996-1.438-21.852.532-32.652 2.542-4.807.9-7.413 12.611-.852 11.394 10.094-1.886 20.156-3.533 30.427-2.2 4.959.65 8.958-10.971 3.079-11.74m2.999-26.371c-9.326 1.028-18.649 2.063-28.026 2.297-5.079.126-8.788 11.886-3.085 11.747 9.387-.24 18.712-1.274 28.036-2.3 5.041-.555 8.58-12.352 3.079-11.74m-35.429-16.866c-10.523-.656-21.052.366-31.569.612-5.079.114-8.788 11.873-3.079 11.74 10.523-.24 21.052-1.255 31.575-.612 5.041.315 8.921-11.381 3.072-11.74m82.396 41.395a117.447 117.447 0 0 0-24.553.473c-2.978.372-4.94 3.028-5.665 5.8-.461 1.748-.4 6.321 2.587 5.949a117.879 117.879 0 0 1 24.555-.481c5.022.429 8.939-11.248 3.079-11.74m6.934 41.097c-7.312.183-14.592 1.11-21.91 1.3-5.072.132-8.782 11.892-3.079 11.74 7.318-.183 14.6-1.1 21.916-1.3 5.066-.126 8.782-11.886 3.072-11.74m24.256-16.265c-9.406-.725-18.73-2.232-28.136-2.964-5.022-.385-8.933 11.3-3.079 11.747 9.406.726 18.731 2.24 28.131 2.965 5.028.391 8.933-11.3 3.085-11.747m-38.783-54.517q-11.4.218-22.8.442c-5.078.095-8.807 11.854-3.085 11.747q11.4-.227 22.806-.448c5.072-.095 8.794-11.854 3.079-11.74m2.963-28.131a195.115 195.115 0 0 0-30.748-2.038c-5.083.07-8.807 11.829-3.083 11.741a196.635 196.635 0 0 1 30.753 2.037c4.94.713 8.958-10.9 3.079-11.74m25.262 139.161c-11.627 4.485-24.143 5.854-35.77 10.346-4.53 1.741-6.87 13.709-.858 11.381 11.633-4.485 24.143-5.848 35.77-10.34 4.536-1.748 6.87-13.709.858-11.387m-30.955 32.184c-8.309 1.823-16.6 3.577-25.128 3.836-5.078.158-8.782 11.917-3.085 11.747 9.267-.278 18.333-2.214 27.355-4.2 4.788-1.054 7.35-12.819.858-11.387m-40.914 4.15q-7.022.133-14.037.271c-2.94.057-5 3.262-5.665 5.8-.524 1.987-.391 6 2.587 5.943q7.022-.133 14.037-.271c2.946-.05 5-3.262 5.665-5.8.517-1.987.391-6.006-2.587-5.943m-40.387 43.767c-7.268 1.173-14.573 2.1-21.872 3.053-2.978.391-4.933 3.016-5.665 5.8-.454 1.741-.41 6.34 2.587 5.949 7.3-.953 14.6-1.886 21.872-3.06 2.984-.473 4.921-2.934 5.665-5.8.435-1.659.41-6.422-2.587-5.943m44.246-207.028c-5.268-.656-10.5-1.5-15.822-1.445-5.078.05-8.813 11.81-3.079 11.74 5.318-.057 10.561.795 15.822 1.451 4.965.618 8.952-11.009 3.079-11.747M305.626 3.462c-13.299-3.433-26.364-4.733-39.915-1.956-4.8.99-7.381 12.725-.858 11.387 11.93-2.441 23.91-1.167 35.613 1.848 5.292 1.37 10.068-10.012 5.16-11.279M203.207 249.969c-8.51-.726-17.046-.707-25.487-2.139-4.889-.833-8.952 10.744-3.079 11.74 8.441 1.438 16.977 1.413 25.487 2.139 5.015.429 8.939-11.242 3.079-11.74m1.018 19.438a26.168 26.168 0 0 1-15.387.391c-2.814-.814-5.078 1.659-6.151 4.012-.795 1.729-1.785 6.46.984 7.274a33.033 33.033 0 0 0 19.7-.29c2.826-.953 4.605-4.321 4.814-7.129.17-2.341-1.154-5.2-3.956-4.258m21.323-232.813c-10.914-4.391-22.458-3.255-33.764-1.192-4.807.871-7.419 12.58-.852 11.387 9.778-1.779 20.03-2.706 29.455 1.085 5.009 2.019 10.069-9.305 5.16-11.28m16.92-24.267c-8.157-1.438-16.333-2.262-24.591-1.274-2.978.353-4.946 3.028-5.672 5.8-.454 1.754-.4 6.3 2.587 5.943 8.264-.984 16.447-.151 24.6 1.274 4.877.864 8.952-10.706 3.079-11.74m137.192 210.686c-10.4 3.539-21.229 4.681-32.111 5.728-5.053.486-8.613 12.283-3.079 11.743 11.6-1.117 23.241-2.322 34.332-6.082 4.624-1.571 7.028-13.488.858-11.394"/></svg>