<svg xmlns="http://www.w3.org/2000/svg" width="402.344" height="308.985" viewBox="0 0 402.344 308.985"><path d="M378.856 77.828a574.879 574.879 0 0 0-51.969 28.4q26.27-19.65 51.944-40.128c10.561-8.457 4.148-14.771-4.768-16.244 8.964-10.01-7.568-19.04-21.11-12.066-83.371 42.917-160.117 98.841-243.077 142.524 22.718-15.212 44.751-31.609 67.013-47.463 58.421-41.616 124.953-70.546 186.7-106.777 16.419-9.638 4.491-24.77-11.224-18.4C255.73 46.878 169.994 106.59 86.912 169.126c-12.139 8-24.552 15.522-37.362 22.3 26.823-35.083 65.5-62.329 101.247-86.224 46.1-30.822 94.933-57.174 142.137-86.2 19.485-11.982.222-24.395-15.347-16.546-51.429 25.933-100.183 56.369-148.685 87.231 13.335-11.374-4.294-23.217-18.526-14.217-39.768 25.135-76.648 54.386-105.071 92.214-10.86 14.465 12.8 16.532 21.5 11.468.1-.062.2-.124.306-.182a217.365 217.365 0 0 0-25.935 38.746c-3.886 7.5 2.574 10.608 9.35 11.253-4.178 8.443 9.591 14.443 19.219 10.914 17.563-6.427 34.7-13.648 51.535-21.45q-17.121 11.128-34.489 21.894c-16.029 9.883-4.615 25.037 11.221 18.4 14.108-5.92 27.927-12.347 41.517-19.16Q76 256.256 52.744 273.309c-14.119 10.389 3.022 20.961 14.6 16.062-1.855 1.808-3.722 3.609-5.512 5.494-11.075 11.694 9.42 16.094 17.378 13.317 87.624-30.585 167.294-79.488 246.7-126.674 19.331-11.483.036-25.682-15.347-16.543-49.621 29.48-99.311 59.832-151.116 85.619.4-.255.8-.5 1.192-.747 22.415-14.155 43.923-29.641 65.285-45.327 56.923-35.364 112.234-73.571 168.282-110.138 19.27-12.569.3-24-15.347-16.543" fill="#e0cc2a" fill-rule="evenodd"/></svg>