<svg xmlns="http://www.w3.org/2000/svg" width="315" height="253" viewBox="0 0 315 253"><path fill="#ddd5cd" d="M33.365 165.1c-7.825-1.346-15.793-1.845-22.972-5.531-2.74-1.409-5.796 5.128-3 6.559 7.534 3.866 15.972 4.39 24.182 5.8 2.839.487 5.209-6.244 1.79-6.827m23.339-9.721c-8.195-.814-16.453-.84-24.534-2.586-2.792-.605-5.194 6.093-1.794 6.827 8.082 1.75 16.34 1.78 24.538 2.586 2.909.286 5.205-6.49 1.79-6.827m-29.415-27.807c-7.678-.873-15.077-2.755-22.45-5.033-3.03-.936-5.87 5.675-3.002 6.559 7.76 2.399 15.584 4.38 23.665 5.3 2.895.327 5.206-6.441 1.787-6.826m53.276 4.856c-6.148.565-12.31.733-18.29-1.031-3.045-.899-5.87 5.708-3.005 6.559 6.42 1.896 12.887 1.911 19.505 1.298 2.935-.271 5.019-7.127 1.79-6.826M46.97 110.204c-6.555-.47-12.718-2.377-18.873-4.59-2.968-1.07-5.866 5.529-2.997 6.556 6.522 2.351 13.125 4.369 20.08 4.86 2.928.21 5.191-6.588 1.79-6.826m75.191 36.213c-6.188.063-12.292-.792-18.4-1.687-2.865-.418-5.21 6.332-1.787 6.827 6.104.899 12.212 1.753 18.397 1.687 2.95-.03 5.125-6.863 1.79-6.827m16.882-18.942c-8.404.576-16.856-.019-24.952-2.432-3.042-.907-5.866 5.704-3.001 6.559 8.503 2.535 17.326 3.309 26.163 2.7 2.946-.198 5.055-7.055 1.79-6.827m-39.731-19.039l-15.297.293c-2.953.059-5.114 6.893-1.79 6.827l15.297-.297c2.95-.051 5.117-6.893 1.79-6.823m39.853-11.577a66.931 66.931 0 0 1-19.211 1.812c-2.935-.147-5.177 6.662-1.79 6.823 6.925.345 13.767-.378 20.506-2.014 2.766-.671 4.24-7.531.495-6.621M84.095 81.64c-7.652-.422-15.103-1.78-22.432-4.013-3.034-.925-5.87 5.69-3.005 6.559 7.718 2.348 15.587 3.837 23.647 4.28 2.934.162 5.18-6.643 1.79-6.826m35.546-7.613c-6.68 1.944-13.419 1.633-20.253.814-2.894-.352-5.205 6.416-1.79 6.827 7.285.873 14.439 1.053 21.544-1.016 2.733-.8 4.171-7.692.5-6.625m-8.339 95.593c-7.164-.85-14.39-1.228-21.478-2.644-2.81-.562-5.198 6.148-1.79 6.83 7.087 1.413 14.314 1.794 21.478 2.641 2.89.345 5.206-6.423 1.79-6.826m-21.397 15.177c-7.686.631-15.433.749-22.891-1.452-3.049-.895-5.87 5.715-3.005 6.562 7.902 2.326 15.958 2.392 24.105 1.717 2.939-.238 5.033-7.094 1.79-6.827m-45.908 15.906c-4.3.051-8.58-.356-12.777-1.284-2.784-.616-5.19 6.078-1.794 6.83 4.204.929 8.482 1.336 12.781 1.28 2.95-.032 5.125-6.87 1.79-6.826m80.503-.523l-15.297.297c-2.953.059-5.117 6.893-1.79 6.827l15.297-.297c2.95-.051 5.114-6.893 1.79-6.827m23.873-18.023c-6.453.573-12.917.275-19.377.378-2.953.04-5.125 6.882-1.794 6.827 6.464-.099 12.931.202 19.38-.378 2.939-.257 5.023-7.113 1.79-6.827m8.351-24.918c-4.596.547-9.185.177-13.778-.242-2.913-.271-5.198 6.515-1.79 6.827 4.593.418 9.182.793 13.782.242 1.728-.201 2.872-1.76 3.29-3.37.268-1.02.239-3.666-1.504-3.457m44.57 9.433c-5.913 2.018-11.999 2.62-18.191 1.79-2.88-.381-5.21 6.376-1.79 6.83 6.58.881 13.206.144 19.482-1.999 2.69-.913 4.087-7.843.5-6.621m-21.394-33.26c-5.872 1.093-11.716 2.054-17.692 1.273-2.883-.378-5.209 6.383-1.794 6.827 6.402.84 12.708-.309 18.988-1.479 2.799-.52 4.314-7.333.499-6.621m30.757 12.12c-6.056 1.695-12.472 2.12-18.712 1.295-2.88-.385-5.21 6.375-1.79 6.827 6.654.884 13.547.308 20.007-1.497 2.74-.77 4.19-7.656.495-6.625m-37.278-38.328c-5.455.554-10.924.228-16.254-1.067-3.09-.748-5.848 5.87-3.001 6.559 5.767 1.401 11.548 1.937 17.465 1.339 2.935-.297 5-7.153 1.79-6.83m46.312 6.467c-6.5 2.506-13.331 2.715-20.213 2.85-2.95.06-5.118 6.893-1.79 6.83 7.292-.142 14.618-.406 21.504-3.059 2.634-1.016 3.995-7.967.499-6.62m-17.1-23.075a29.98 29.98 0 0 1-14.63 1.21c-2.853-.47-5.208 6.27-1.793 6.827 5.334.88 10.822.32 15.925-1.416 2.689-.913 4.086-7.843.498-6.621m-33.507-12.473c-4.926.473-9.706-.066-14.233-2.128-2.828-1.298-5.833 5.261-3 6.556 4.852 2.22 10.153 2.909 15.443 2.399 2.935-.282 5.011-7.139 1.79-6.827M155.536 56.09c-4.927-.418-9.864-.319-14.798-.227-2.953.059-5.121 6.893-1.79 6.834 4.93-.099 9.875-.198 14.798.22 2.916.25 5.194-6.54 1.79-6.826m53.63 2.159c-6.468.1-12.928-.197-19.377.378-2.942.26-5.025 7.113-1.794 6.827 6.45-.572 12.913-.271 19.38-.377 2.95-.04 5.122-6.882 1.79-6.827M186.47 189.492c-5.928.62-11.886.738-17.84.855-2.953.055-5.117 6.893-1.793 6.83 5.954-.117 11.915-.234 17.843-.858 2.93-.308 4.996-7.168 1.79-6.827m-12.425 30.918c-4.937.07-9.864-.293-14.798-.227-2.953.04-5.125 6.875-1.79 6.83 4.934-.069 9.864.294 14.798.224 2.95-.04 5.121-6.878 1.79-6.826m65.082-23.124c-5.224 1.115-10.536 1.738-15.76 2.854-2.788.594-4.28 7.432-.499 6.621 5.228-1.115 10.536-1.742 15.76-2.854 2.791-.594 4.28-7.432.499-6.621m-16.766-18.764c-4.398.572-8.8 1.155-13.239 1.276-2.953.078-5.11 6.915-1.794 6.827 4.439-.113 8.845-.7 13.243-1.276 1.728-.224 2.869-1.75 3.294-3.371.26-1.01.235-3.684-1.504-3.456m34.229-21.011l-24.476.477c-2.953.055-5.114 6.893-1.79 6.823l24.479-.473c2.945-.055 5.113-6.893 1.786-6.827m-17.54-23.819c-4.101.055-8.192-.29-12.26-.781-2.89-.352-5.209 6.416-1.79 6.827 4.068.495 8.158.84 12.26.781 2.95-.033 5.12-6.87 1.79-6.827m57.374-6.165c-6.647 2.63-13.548 4.116-20.712 3.372-2.905-.305-5.205 6.474-1.794 6.827 7.539.785 15.011-.808 22.007-3.577 2.623-1.038 3.973-7.997.499-6.622m-37.285-13.252c-5.562.587-11.273.752-16.754-.546-3.096-.741-5.847 5.88-3 6.559 5.942 1.409 11.907 1.453 17.963.814 2.935-.308 4.997-7.164 1.79-6.827m-4.9-23.2c-3.958 1.039-7.986 1.567-12.072 1.673-2.953.081-5.11 6.919-1.79 6.83a58.942 58.942 0 0 0 13.363-1.881c2.755-.723 4.215-7.597.5-6.622m-32.632 3.916l-7.619 1.676c-2.784.613-4.274 7.454-.499 6.625l7.62-1.68c2.784-.612 4.273-7.454.498-6.621M247.9 70.965c-6.394-.837-12.707.311-18.988 1.478-2.795.525-4.31 7.333-.495 6.625 5.87-1.097 11.72-2.054 17.693-1.277 2.883.378 5.209-6.379 1.79-6.826m2.518-23.87c-5.425.598-10.843 1.2-16.298 1.336-2.953.073-5.11 6.911-1.794 6.83 5.458-.14 10.88-.74 16.302-1.339 2.931-.323 4.99-7.182 1.79-6.827m-28.312-26.548c-6.12-.381-12.242.213-18.357.356-2.953.066-5.11 6.904-1.79 6.827 6.119-.14 12.241-.73 18.36-.356 2.931.183 5.187-6.618 1.787-6.827m72.21 48.593a68.294 68.294 0 0 0-14.277.276c-1.731.216-2.872 1.76-3.294 3.37-.268 1.017-.235 3.677 1.504 3.46a68.62 68.62 0 0 1 14.277-.279c2.92.25 5.198-6.54 1.79-6.826m4.034 37.489c-4.252.107-8.485.646-12.74.757-2.95.077-5.107 6.914-1.79 6.826 4.255-.106 8.488-.642 12.744-.755 2.945-.074 5.106-6.912 1.786-6.827m14.104-15.538c-5.47-.422-10.891-1.299-16.361-1.724-2.92-.224-5.194 6.57-1.79 6.83 5.47.422 10.891 1.303 16.357 1.725 2.924.227 5.195-6.57 1.794-6.831m-22.551-48.778c-4.42.085-8.84.173-13.258.257-2.953.055-5.12 6.893-1.793 6.83 4.42-.088 8.84-.172 13.26-.26 2.95-.055 5.115-6.893 1.791-6.827M291.626 11c-5.935-.851-11.882-1.277-17.88-1.185-2.953.04-5.12 6.878-1.79 6.827 5.998-.088 11.944.337 17.88 1.185 2.872.414 5.209-6.34 1.79-6.827m14.692 133.905c-6.761 2.608-14.04 3.404-20.8 6.016-2.634 1.012-3.995 7.971-.5 6.618 6.765-2.609 14.04-3.4 20.8-6.013 2.638-1.016 3.996-7.971.5-6.621m-18.002 28.071c-4.832 1.06-9.652 2.08-14.612 2.23-2.953.092-5.106 6.93-1.793 6.831 5.388-.161 10.66-1.288 15.906-2.44 2.784-.612 4.273-7.454.499-6.62m-40.63 2.946c-2.722.052-5.44.103-8.162.158-1.71.033-2.91 1.897-3.294 3.371-.305 1.156-.228 3.49 1.504 3.456 2.722-.051 5.444-.103 8.162-.158 1.713-.029 2.909-1.896 3.294-3.37.3-1.156.227-3.493-1.504-3.456m-32.256 50.53c-4.225.682-8.473 1.222-12.717 1.775-1.732.228-2.87 1.754-3.295 3.372-.264 1.012-.238 3.686 1.504 3.459 4.245-.554 8.493-1.097 12.719-1.78 1.735-.274 2.861-1.705 3.294-3.37.253-.965.238-3.735-1.504-3.456M250.654 18.11c-3.063-.38-6.108-.872-9.2-.84-2.953.03-5.125 6.868-1.79 6.828 3.092-.033 6.14.462 9.2.843 2.887.36 5.205-6.4 1.79-6.83M235.166 2.646c-7.733-1.996-15.33-2.752-23.21-1.137-2.792.575-4.292 7.399-.5 6.621 6.938-1.42 13.904-.679 20.709 1.075 3.078.796 5.855-5.822 3-6.56m-80.216 231.3c-4.949-.422-9.912-.411-14.82-1.244-2.843-.484-5.206 6.247-1.79 6.827 4.908.837 9.871.822 14.82 1.244 2.916.25 5.198-6.537 1.79-6.827m1.904 11.303c-2.832.95-6.067 1.07-8.947.227-1.636-.473-2.953.965-3.576 2.333-.463 1.005-1.039 3.756.572 4.23 3.738 1.09 7.751 1.07 11.453-.17 1.643-.553 2.678-2.512 2.799-4.144.099-1.361-.672-3.023-2.3-2.477m14.965-223.335c-6.347-2.553-13.06-1.893-19.634-.694-2.795.507-4.314 7.315-.495 6.622 5.686-1.035 11.647-1.574 17.128.63 2.913 1.175 5.855-5.41 3-6.558M186.13 7.8c-4.744-.835-9.498-1.316-14.3-.74-1.731.205-2.876 1.76-3.298 3.371-.264 1.02-.23 3.665 1.504 3.456 4.806-.572 9.564-.088 14.303.74 2.836.503 5.206-6.224 1.79-6.826M299.41 218.272c-6.049 2.058-12.344 2.722-18.672 3.33-2.938.283-5.01 7.143-1.79 6.831 6.746-.649 13.514-1.35 19.963-3.536 2.69-.913 4.087-7.843.5-6.625"/></svg>