<svg xmlns="http://www.w3.org/2000/svg" width="45.202" height="45.185" viewBox="0 0 45.202 45.185"><path d="M44.289 4.636a1.857 1.857 0 0 0-.576-.572A26.5 26.5 0 0 0 32.124.002a1.874 1.874 0 0 0-1.817 1.16l-.026-.013c-1.152 2.734-4.165 4.5-7.678 4.5a8.937 8.937 0 0 1-7.727-4.6l-.024.013A1.9 1.9 0 0 0 13.08.002 26.517 26.517 0 0 0 1.489 4.063a1.877 1.877 0 0 0-.576.572c-1.179 1.839-2.067 6.343 3 10.227a1.9 1.9 0 0 0 .653.324l4.859 1.316v19.269a1.882 1.882 0 0 0 1.883 1.883 5.655 5.655 0 0 1 5.648 5.648 1.882 1.882 0 0 0 1.883 1.883h7.531a1.883 1.883 0 0 0 1.883-1.883 5.654 5.654 0 0 1 5.647-5.648 1.883 1.883 0 0 0 1.883-1.883V16.503l4.858-1.316a1.872 1.872 0 0 0 .651-.324c5.064-3.884 4.175-8.388 2.997-10.227zM10.51 12.895l-4.589-1.242C3.355 9.546 3.649 7.725 3.939 6.974a24.07 24.07 0 0 1 7.766-2.982 13.469 13.469 0 0 1-1.195 8.903zm12.093.282a3.766 3.766 0 1 1-3.766 3.766 3.766 3.766 0 0 1 3.763-3.765zm5.648 18.828h-3.766V28.24a1.883 1.883 0 0 0-3.766 0v3.766h-3.765V28.24a5.65 5.65 0 1 1 11.3 0v3.766zM39.28 11.653l-4.58 1.242a13.462 13.462 0 0 1-1.2-8.9 24.059 24.059 0 0 1 7.759 2.98c.298.773.571 2.586-1.979 4.678z" fill="#fff"/></svg>