<svg xmlns="http://www.w3.org/2000/svg" width="45" height="44.981" viewBox="0 0 45 44.981"><path d="M44.091 4.615a1.848 1.848 0 0 0-.574-.57A26.39 26.39 0 0 0 31.979.002a1.9 1.9 0 0 0-1.807 1.154l-.028-.011C29 3.865 26 5.621 22.5 5.621a8.9 8.9 0 0 1-7.692-4.579l-.024.011A1.888 1.888 0 0 0 13.021.002 26.4 26.4 0 0 0 1.483 4.045a1.869 1.869 0 0 0-.574.57c-1.173 1.831-2.058 6.314 2.984 10.181a1.889 1.889 0 0 0 .65.322l4.838 1.31V35.61a1.874 1.874 0 0 0 1.874 1.874 5.63 5.63 0 0 1 5.623 5.623 1.874 1.874 0 0 0 1.874 1.874h7.5a1.875 1.875 0 0 0 1.874-1.874 5.629 5.629 0 0 1 5.623-5.623 1.875 1.875 0 0 0 1.874-1.874V16.428l4.838-1.31a1.879 1.879 0 0 0 .648-.322c5.04-3.867 4.155-8.35 2.982-10.181zm-33.629 8.222l-4.567-1.241c-2.555-2.1-2.262-3.91-1.972-4.658a23.93 23.93 0 0 1 7.731-2.969 13.416 13.416 0 0 1-1.192 8.868zm17.661 13.4h-1.1l.776.776a1.874 1.874 0 1 1-2.65 2.65l-.776-.776v1.1a1.875 1.875 0 1 1-3.749 0v-1.1l-.776.776a1.875 1.875 0 1 1-2.652-2.65l.778-.776h-1.1a1.875 1.875 0 0 1 0-3.749h1.1l-.778-.776a1.875 1.875 0 1 1 2.652-2.65l.776.776v-1.1a1.875 1.875 0 1 1 3.749 0v1.1l.776-.776a1.874 1.874 0 0 1 2.65 2.65l-.776.776h1.1a1.875 1.875 0 1 1 0 3.749zm10.982-14.641l-4.556 1.233a13.622 13.622 0 0 1-1.2-8.858 23.879 23.879 0 0 1 7.724 2.965c.298.777.57 2.582-1.968 4.66z" fill="#fff"/></svg>