<svg xmlns="http://www.w3.org/2000/svg" width="41.584" height="47.159" viewBox="0 0 41.584 47.159"><defs><style>.a{fill:#fff}</style></defs><path class="a" d="M27.604 40.347H1.679v2.8a4.018 4.018 0 0 0 4.014 4.014h8.852a1.424 1.424 0 0 0 1.008-.417l1.813-1.813h5.362l1.813 1.813a1.425 1.425 0 0 0 1.008.417h12.02a4.019 4.019 0 0 0 4.014-4.014v-2.8zm-2.94-17.012l-5.691 1.528a3.678 3.678 0 1 1-.738-2.754l4.544-1.217-.006-.015-.04-.094v-.005c0-.006 0-.005 0 0a6.831 6.831 0 0 1-.513-1.977v-1.923h-4.426a3.678 3.678 0 1 1 0-2.851h4.423V9.135H1.679v20.466a9.529 9.529 0 0 1 10.746 7.9h12.461c.453-4.506 2.18-9.282 5.884-12.127l-3.205-.662a6.8 6.8 0 0 1-2.901-1.377zm10.928 3.016a6.449 6.449 0 0 0-4.039 2.13 15.217 15.217 0 0 0-3.8 9.015H41.58v-3.405a8 8 0 0 0-5.988-7.74zm0 0"/><path class="a" d="M1.679 32.501v5h7.846a6.572 6.572 0 0 0-7.846-5zm14.449-8.354a.828.828 0 0 0-.8-.613.853.853 0 0 0-.216.028.828.828 0 1 0 1.014.585zm-1.724-9.526a.827.827 0 1 0 .828.828.828.828 0 0 0-.828-.828zM23.9 6.207V2.928A2.931 2.931 0 0 0 20.968 0H2.928A2.931 2.931 0 0 0 0 2.928v3.36h23.893c.001-.03.007-.055.007-.081zm0 0"/></svg>