<svg xmlns="http://www.w3.org/2000/svg" width="15.914" height="15.911" viewBox="0 0 15.914 15.911"><path d="M15.752 5.798a3.267 3.267 0 0 0-4.112-2.1 3.866 3.866 0 0 0-.681.3 3.863 3.863 0 0 0 .076-.741A3.083 3.083 0 0 0 7.99 0a3.136 3.136 0 0 0-3.111 3.263 3.864 3.864 0 0 0 .076.741 3.868 3.868 0 0 0-.681-.3 3.267 3.267 0 0 0-4.112 2.1 3.377 3.377 0 0 0 2.1 4.221 3.867 3.867 0 0 0 .728.157 3.867 3.867 0 0 0-.5.555 3.267 3.267 0 0 0 .722 4.558 3.085 3.085 0 0 0 4.406-.722 3.868 3.868 0 0 0 .374-.644 3.865 3.865 0 0 0 .374.644 3.011 3.011 0 0 0 4.34.722 3.267 3.267 0 0 0 .722-4.558 3.866 3.866 0 0 0-.5-.555 3.872 3.872 0 0 0 .728-.157 3.377 3.377 0 0 0 2.096-4.227zM7.99.932a2.156 2.156 0 0 1 2.11 2.331 4.066 4.066 0 0 1-.636 2 .464.464 0 0 0-.069.252l-.485.84a2.367 2.367 0 0 0-.463-.144V4.304a.461.461 0 0 0-.46-.466.466.466 0 0 0-.466.466v1.912a2.313 2.313 0 0 0-.466.148l-.542-.888a.464.464 0 0 0-.068-.209 4.066 4.066 0 0 1-.636-2A2.209 2.209 0 0 1 7.99.932zm-5.445 8.2a2.463 2.463 0 0 1-1.5-3.046 2.333 2.333 0 0 1 2.937-1.5 3.916 3.916 0 0 1 1.508 1l.8 1.311a2.342 2.342 0 0 0-.331.448L4.144 6.76a.466.466 0 0 0-.288.887l1.818.591a2.273 2.273 0 0 0 0 .533l-1.164.406a4 4 0 0 1-1.965-.045zm4.979 2.9a4.06 4.06 0 0 1-.662 1.981 2.155 2.155 0 0 1-3.1.516 2.333 2.333 0 0 1-.516-3.256 4.473 4.473 0 0 1 1.771-1.289l.955-.333a2.342 2.342 0 0 0 .3.416L5.147 11.62a.466.466 0 0 0 .754.548l1.124-1.547a2.31 2.31 0 0 0 .5.163v1.253zm.466-2.134a1.4 1.4 0 1 1 1.4-1.4 1.4 1.4 0 0 1-1.4 1.4zm4.166 4.635a2.081 2.081 0 0 1-3.038-.516 4.063 4.063 0 0 1-.668-1.981v-1.253a2.363 2.363 0 0 0 .5-.163l1.124 1.547a.466.466 0 1 0 .754-.548l-1.12-1.547a2.343 2.343 0 0 0 .3-.412l.869.313a4.637 4.637 0 0 1 1.793 1.3 2.333 2.333 0 0 1-.514 3.261zm-.717-5.35L10.3 8.775a2.271 2.271 0 0 0 0-.538l1.824-.586a.466.466 0 0 0-.288-.887l-1.82.587a2.342 2.342 0 0 0-.338-.455l.77-1.332a3.893 3.893 0 0 1 1.48-.974 2.334 2.334 0 0 1 2.937 1.5 2.463 2.463 0 0 1-1.5 3.046 3.982 3.982 0 0 1-1.927.048z" fill="#e5d11a"/></svg>