<svg xmlns="http://www.w3.org/2000/svg" width="20" height="13" viewBox="0 0 20 13"><path fill="#fff" d="M.322 6.77C.2 3.58 2.994.633 6.186.595c1.626-.14 3.21.493 4.44 1.523a28.056 28.056 0 0 1-1.568 1.618c-1.083-.659-2.388-1.16-3.655-.715-2.043.582-3.28 2.994-2.524 4.993.626 2.088 3.165 3.233 5.155 2.356 1.03-.369 1.71-1.32 2.008-2.34-1.181-.024-2.362-.01-3.543-.042-.003-.703-.006-1.403-.003-2.105 1.969-.003 3.941-.01 5.913.008.122 1.722-.132 3.564-1.252 4.946-1.532 1.972-4.363 2.55-6.666 1.777C2.046 11.812.269 9.35.32 6.77zm15.926-2.658h1.757l.012 1.765c.587.006 1.178.01 1.765.012v1.76l-1.765.009c-.006.59-.01 1.178-.012 1.768-.588-.003-1.176 0-1.76 0-.006-.59-.006-1.178-.012-1.765-.587-.007-1.178-.01-1.765-.012v-1.76c.587-.003 1.175-.006 1.765-.012.003-.587.009-1.178.015-1.765z"/></svg>