<svg xmlns="http://www.w3.org/2000/svg" width="29.18" height="29.18" viewBox="0 0 29.18 29.18"><defs><style>.b{fill:#a2a2a2}</style></defs><g opacity=".59"><path class="b" d="M14.59 0a14.59 14.59 0 1 0 14.59 14.59A14.59 14.59 0 0 0 14.59 0zm7.331 11.993l-3.568 3.568a2.049 2.049 0 0 1-2.9 0l-.14-.14-.38.38.139.139a2.051 2.051 0 0 1 0 2.9l-3.568 3.568a2.049 2.049 0 0 1-2.9 0l-1.345-1.35a2.051 2.051 0 0 1 0-2.9l3.569-3.568a2.05 2.05 0 0 1 2.9 0l.139.139.38-.38-.139-.139a2.052 2.052 0 0 1 0-2.9l3.569-3.568a2.049 2.049 0 0 1 2.9 0L21.921 9.1a2.051 2.051 0 0 1-.001 2.893z"/><path class="b" d="M13.178 17.376l-.558.558-.865-.865.558-.558-.113-.113a.433.433 0 0 0-.612 0l-2.885 2.884a.433.433 0 0 0 0 .612l1.091 1.091a.443.443 0 0 0 .612 0L13.29 18.1a.433.433 0 0 0 0-.612zm6.207-8.161a.433.433 0 0 0-.613 0l-2.885 2.884a.434.434 0 0 0 0 .612l.113.113.855-.856.865.865-.855.856.113.113a.443.443 0 0 0 .612 0l2.884-2.884a.434.434 0 0 0 0-.612z"/></g></svg>