<svg xmlns="http://www.w3.org/2000/svg" width="204.101" height="134.451" viewBox="0 0 204.101 134.451"><path d="M138.863 11.712c-1.327 4.841-9.671 5.728-13.454 4.005a1.266 1.266 0 0 0-.654-.078c-.325-4.3-.858-8.65-.876-12.967a1.74 1.74 0 0 0 .192-.037c5.166-1.755 16.8 1.73 14.793 9.076m-1.662-9.206A16.017 16.017 0 0 0 123.91.679s-2.509.3-2.509 1.131c0 4.767.292 10.909.443 14.139.421 8.739.8 17.479 1.452 26.2 1.072 14.375.986 29.057 3.218 43.31.115.762 1.263.7 2.081.23.65-.1.421-5.056.314-4.816-1.667-12.96-1.581-26.2-2.664-39.212-.646-7.754-.953-15.525-1.315-23.289 0-.1-.011-.188-.018-.281 5.86 1.619 14.5-.477 16.762-6.337 1.43-3.7-1.671-7.313-4.471-9.254M17.46 11.712c-1.323 4.841-9.667 5.728-13.451 4.005a1.27 1.27 0 0 0-.654-.078c-.321-4.3-.857-8.65-.872-12.967.067-.015.122-.015.193-.037C7.838.88 19.471 4.365 17.461 11.711m-1.663-9.206A16 16 0 0 0 2.513.679S.001.979.001 1.81c0 4.767.292 10.909.447 14.139.417 8.739.795 17.479 1.445 26.2 1.071 14.375 1 29.057 3.218 43.31.122.762 1.268.7 2.085.23.65-.1.417-5.056.314-4.816-1.664-12.96-1.586-26.2-2.665-39.212-.646-7.754-.957-15.525-1.312-23.289-.007-.1-.019-.188-.019-.281 5.854 1.619 14.5-.477 16.759-6.337 1.43-3.7-1.667-7.313-4.475-9.254m20.435 31.772c-.185-1.227-3.082-.322-2.886 1.009 2.439 16.54 2.99 33.255 3.212 49.951.018 1.452 2.967.743 2.952-.492-.228-16.87-.816-33.751-3.277-50.468m-1.512-12.066c-.007-1.452-2.956-.75-2.953.492a7.925 7.925 0 0 0 .226 2.169c.355 1.249 3.244.274 2.878-1.012a6 6 0 0 1-.152-1.648m47.284 59.411c-5.307 1.681-10.883 3.23-16.393 1.685-.95-11.958-1.763-23.921-2.354-35.894a87.354 87.354 0 0 0 9.645.274c1.353-.007 2.9-2.091.9-2.088a67.506 67.506 0 0 1-10.346-.339 1.251 1.251 0 0 0-.314 0c-.614-12.99-.961-25.994-.913-39.01 4.018-.48 8-1.263 12.044-.6 1.193.2 3.385-1.707 1.589-2-5.081-.839-9.982.27-15.037.75a1.577 1.577 0 0 0-1.357.939.893.893 0 0 0-.192.51c-.13 26.264 1.341 52.479 3.436 78.65.044.62.595.827 1.212.791 6.252 1.815 12.694.074 18.721-1.84 1.785-.569 1.135-2.387-.643-1.822m119.678.793c-5.3 1.678-8.843 2.117-14.353.573-.95-11.959-1.759-23.921-2.358-35.894a25.378 25.378 0 0 0 5.218.27c1.352 0 2.911-2.088.905-2.085a22.242 22.242 0 0 1-5.924-.339 1.26 1.26 0 0 0-.311 0c-.617-12.993-.961-26-.909-39.013 4.013-.484 13.844-1.271 17.882-.6 1.194.193 3.382-1.71 1.59-2.006-5.078-.832-15.824.277-20.876.75a1.59 1.59 0 0 0-1.36.95.85.85 0 0 0-.192.5c-.125 26.271 1.341 52.486 3.436 78.653.049.625.6.827 1.212.794 6.256 1.808 10.658 1.176 16.678-.727 1.8-.577 1.138-2.387-.64-1.826M162.325 3.892c0-1.441-2.953-.739-2.953.5a8.372 8.372 0 0 0 .233 2.177c.351 1.245 3.245.262 2.875-1.02a6.322 6.322 0 0 1-.155-1.656m-.654 49.654c-.215-12.838.185-25.676.211-38.517 0-1.445-2.949-.75-2.949.487-.026 12.838-.34 25.68-.215 38.522.1 10.259-.55 21.341 1.579 31.422.269 1.246 3.167.307 2.89-1.009-2.092-9.87-1.357-20.839-1.516-30.9m-73.033 65.807l-.13-.04a1.433 1.433 0 0 0-1.8.462c-6.778 4.856-15.54 7.583-26.781 8.34-1.773.122-3.7.181-5.9.181-2.273 0-4.553-.063-6.814-.122l-.858-.026a52.194 52.194 0 0 1-6.792-.609 6.09 6.09 0 0 0 2.724-4.117.8.8 0 0 0-.185-.657.987.987 0 0 0-.81-.314 1.638 1.638 0 0 0-.476.069 10.078 10.078 0 0 0-3.048 1.564 18.549 18.549 0 0 0 .923-5.433.822.822 0 0 0-.236-.613 1.281 1.281 0 0 0-1.286-.2 161.425 161.425 0 0 1-16.752 5.924c-1.788.528-3.559 1.16-5.269 1.773-4.117 1.482-8.012 2.887-12.332 3a1.4 1.4 0 0 0-1.32 1.227c.008.388.293.776.98.776 5.07-.141 9.793-1.855 14.368-3.5.71-.255 1.419-.513 2.125-.768a372.897 372.897 0 0 1 6.526-2.191c3.536-1.16 7.18-2.354 10.728-3.761a24.437 24.437 0 0 1-2.018 6.876 8.11 8.11 0 0 0-.724.17 1.163 1.163 0 0 0-.858 1.19.833.833 0 0 0 .662.694l-.126.262c-.325.71-.676 1.471-.839 1.87a.819.819 0 0 0 .063.808.957.957 0 0 0 .831.389 1.475 1.475 0 0 0 1.32-.743 28.912 28.912 0 0 1 1.478-2.786 19.428 19.428 0 0 1 2.731.422 23.1 23.1 0 0 0 2.387.4c2.7.263 5.4.314 8.407.347 1.146.012 2.288.022 3.43.022a100.763 100.763 0 0 0 10.68-.476c8.644-.924 16.138-3.33 22.294-7.143-.074.2-.155.425-.233.654-.54 1.5-1.216 3.37-1.615 4.86a.855.855 0 0 0 .13.783 1.012 1.012 0 0 0 .831.37 1.319 1.319 0 0 0 1.3-.836c.277-1 .732-2.454 1.176-3.864 1.4-4.461 1.408-4.668 1.23-5zm.795-3.296a1.489 1.489 0 0 0-1.408.48 5.541 5.541 0 0 0-.606 1.005.834.834 0 0 0 .007.813.923.923 0 0 0 .843.407 1.516 1.516 0 0 0 1.363-.762 2.4 2.4 0 0 1 .3-.492.905.905 0 0 0 .181-.861.925.925 0 0 0-.676-.591m5.817 11.113a2.285 2.285 0 0 1-.724.141c-.333 0-.4-.129-.414-.166a2.054 2.054 0 0 1 .524-1.708c.924-1.256 3.152-2.11 5.539-2.11a9.1 9.1 0 0 1 1.563.137 19.346 19.346 0 0 1-3.673 2.571 16.521 16.521 0 0 1-2.815 1.135m22.871 3.68a5.526 5.526 0 0 1 1.3-1.6c.1.54.192 1.179.233 1.633a.853.853 0 0 1-.215.68c-.336.37-1.16.4-1.37.069a.887.887 0 0 1 .055-.787m79.662-8.552l-.362-.114a67.178 67.178 0 0 0-12.361-2.292 119.937 119.937 0 0 0-13.855-.71 207 207 0 0 0-40.62 4.228c-.6.126-1.234.244-1.869.366a31.772 31.772 0 0 0-7.85 2.2c-.243-.706-.5-1.367-.72-1.933l-.177-.439c-.185-.5-.816-.5-1.023-.5-.333 0-1.131.048-1.4.476a11.034 11.034 0 0 1-5.2 3.9c-1.382.558-2.484.47-3.131-.273a4 4 0 0 1-.606-3.126c.447-3.16 2.325-6.316 3.988-9.1l.591-.994a.8.8 0 0 0 .037-.827.963.963 0 0 0-.909-.429 1.568 1.568 0 0 0-1.013.336c-1.444 1.433-2.786 3.026-4.087 4.564-1.163 1.378-2.365 2.8-3.636 4.109a11.829 11.829 0 0 0-8.5 1c-.953.517-3.614 2.538-3.736 4.486a2.041 2.041 0 0 0 .928 1.862 2.974 2.974 0 0 0 1.778.5c2.166 0 5.048-1.527 6.452-2.554a52.47 52.47 0 0 0 6.511-6.149c-1.256 3.311-1.233 5.832.041 7.665a3.615 3.615 0 0 0 3.09 1.545c2.753 0 6.219-2.328 8.159-4.228.177.44.351.883.506 1.327a2.318 2.318 0 0 1-.2.137c-3.063 2.155-3.045 4.117-2.76 5.093a2.749 2.749 0 0 0 2.228 2.021h.281a3.214 3.214 0 0 0 2.716-1.179c1.056-1.385.813-3.629.373-5.407 4.039-2.22 30.591-6.3 43.407-6.592 1.737-.037 3.525-.067 5.347-.067a123.949 123.949 0 0 1 15.909.883c.255.026.621.066 1.057.114 8.714.943 13.111 2.373 13.081 4.246a.867.867 0 0 0 .255.629 1.339 1.339 0 0 0 2.1-.813c.033-2.439-3-3.393-4.816-3.962" fill="#231f20" fill-rule="evenodd"/></svg>