<svg xmlns="http://www.w3.org/2000/svg"><defs><symbol id="icon-link" viewBox="0 0 32 32"><path d="M16 0C7.163 0 0 7.163 0 16s7.163 16 16 16 16-7.163 16-16S24.837 0 16 0zm8.039 13.152l-3.913 3.913c-.407.407-.969.659-1.59.659s-1.183-.252-1.59-.659l-.154-.154-.417.417.152.152c.407.407.658.969.658 1.59s-.252 1.183-.658 1.59l-3.913 3.913c-.407.407-.969.659-1.59.659s-1.183-.252-1.59-.659l-1.475-1.48c-.407-.407-.658-.969-.658-1.59s.252-1.183.658-1.59L11.873 16c.407-.407.969-.659 1.59-.659s1.183.252 1.59.659l.152.152.417-.417-.152-.152c-.407-.407-.658-.969-.658-1.59s.251-1.183.658-1.59l3.914-3.913c.407-.407.969-.659 1.59-.659s1.183.252 1.59.659l1.474 1.489c.404.407.654.967.654 1.586s-.25 1.18-.655 1.587z"/><path d="M14.452 19.055l-.612.612-.949-.949.612-.612-.124-.124a.474.474 0 0 0-.672 0l-3.164 3.163a.474.474 0 0 0 0 .672l1.196 1.196a.485.485 0 0 0 .672 0l3.163-3.164a.474.474 0 0 0 0-.672zm6.806-8.949a.474.474 0 0 0-.672 0l-3.164 3.163a.477.477 0 0 0 0 .672l.124.124.938-.939.949.949-.938.939.124.124a.485.485 0 0 0 .672 0l3.163-3.163a.477.477 0 0 0 0-.672z"/></symbol><symbol id="icon-twitter-logo-button" viewBox="0 0 32 32"><path d="M16 0C7.163 0 0 7.163 0 16s7.163 16 16 16 16-7.163 16-16C31.99 7.168 24.832.01 16.001 0H16zm7.138 12.338c.007.159.011.318.011.478v.002c0 5.785-4.69 10.475-10.476 10.475-2.098 0-4.052-.617-5.69-1.679l.041.025a7.405 7.405 0 0 0 5.467-1.538l-.016.012a3.689 3.689 0 0 1-3.433-2.532l-.007-.026a3.714 3.714 0 0 0 1.688-.067l-.026.006a3.69 3.69 0 0 1-2.952-3.61v-.048c.481.272 1.052.44 1.661.46h.006a3.69 3.69 0 0 1-1.126-4.934l-.009.017c1.824 2.232 4.522 3.69 7.565 3.847l.025.001a3.685 3.685 0 0 1 6.276-3.361l.002.002a7.358 7.358 0 0 0 2.372-.912l-.033.018a3.724 3.724 0 0 1-1.608 2.03l-.017.009a7.299 7.299 0 0 0 2.162-.598l-.046.019a7.479 7.479 0 0 1-1.814 1.887l-.021.015z"/></symbol></defs></svg>