<svg xmlns="http://www.w3.org/2000/svg"><defs><symbol id="icon-arrow-right" viewBox="0 0 44 32"><path d="M28.092 5.432a2.077 2.077 0 0 1-.001-2.976c.832-.8 2.144-.8 2.976 0l12.46 12.46c.388.388.628.924.628 1.516s-.24 1.128-.628 1.516l-12.46 12.46a2.077 2.077 0 0 1-2.976.001 2.077 2.077 0 0 1-.001-2.976l8.92-8.888H5.346a2.093 2.093 0 0 1-2.08-2.092v-.021.001c0-1.16.92-2.08 2.08-2.08h31.668z"/></symbol><symbol id="icon-arrow-left" viewBox="0 0 44 32"><path d="M15.908 5.432c.386-.378.625-.904.625-1.486s-.239-1.108-.624-1.486c-.384-.373-.909-.604-1.488-.604s-1.104.23-1.489.604L.472 14.916c-.388.388-.628.924-.628 1.516s.24 1.128.628 1.516l12.46 12.46a2.077 2.077 0 0 0 2.976.001 2.077 2.077 0 0 0 .001-2.976l-8.92-8.888h31.668c1.16 0 2.08-.952 2.08-2.112s-.92-2.08-2.08-2.08H6.989z"/></symbol><symbol id="icon-arrow" viewBox="0 0 23 32"><path d="M19.433 11.677a1.51 1.51 0 0 0 2.161 0 1.55 1.55 0 0 0 0-2.161L12.538.454a1.555 1.555 0 0 0-2.206 0L1.264 9.516a1.51 1.51 0 0 0 0 2.161 1.51 1.51 0 0 0 2.161 0L9.892 5.19v23.028c0 .844.689 1.513 1.533 1.513s1.513-.669 1.513-1.513V5.19z"/></symbol></defs></svg>