<svg xmlns="http://www.w3.org/2000/svg"><defs><symbol id="icon-man-user" viewBox="0 0 24 32"><path d="M12.17 15.65c3.558 0 6.443-3.504 6.443-7.824S17.666 0 12.17 0 5.727 3.504 5.727 7.824s2.884 7.826 6.443 7.826zM.006 27.598c0-.264 0-.074 0 0zm24.331.205c0-.072 0-.5 0 0zm-.014-.521c-.118-7.528-1.103-9.673-8.629-11.032-.931.837-2.17 1.349-3.527 1.349s-2.596-.512-3.532-1.354l.005.004C1.193 17.592.155 19.706.018 27.036c-.012.598-.017.63-.019.56v.791s1.791 3.611 12.168 3.611 12.168-3.611 12.168-3.611v-.585a4.66 4.66 0 0 1-.01-.53v.009z"/></symbol><symbol id="icon-magnifying-glass" viewBox="0 0 32 32"><path d="M19.636 14.545a5.09 5.09 0 1 1-10.181 0 5.09 5.09 0 0 1 10.181 0z"/><path d="M15.999 0C7.163.001.001 7.164.001 15.999S7.164 31.998 16 31.998s15.999-7.163 15.999-15.999v-.045C31.999 7.143 24.856 0 16.045 0h-.049.003zm9.237 24.218l-1.018 1.018a.703.703 0 0 1-1.018 0l-3.927-3.927a.343.343 0 0 0-.437-.072l.002-.001a7.731 7.731 0 0 1-4.208 1.231h-.088.004a8 8 0 1 1 8-8v.08a7.763 7.763 0 0 1-1.255 4.245l.018-.03c-.073.146-.073.359.073.436l3.927 3.927a.87.87 0 0 1-.073 1.091l.001-.001z"/></symbol><symbol id="icon-youtube" viewBox="0 0 32 32"><path d="M14.007 18.997L19.211 16l-5.204-2.997z"/><path d="M15.999 0C7.163.001.001 7.164.001 15.999S7.164 31.998 16 31.998s15.999-7.163 15.999-15.999C31.998 7.163 24.835 0 15.999 0zm9.994 16.013v.164c0 1.642-.15 3.249-.437 4.808l.025-.162a2.515 2.515 0 0 1-1.74 1.767l-.018.004a58.969 58.969 0 0 1-7.861.412H16a59.163 59.163 0 0 1-8.112-.458l.288.03a2.515 2.515 0 0 1-1.758-1.745l-.004-.018a25.53 25.53 0 0 1-.413-4.641l.001-.177v.009l-.001-.175c0-1.641.15-3.248.437-4.806l-.025.162a2.57 2.57 0 0 1 1.744-1.771l.018-.005a58.969 58.969 0 0 1 7.861-.412h-.038a59.05 59.05 0 0 1 8.111.458l-.288-.03c.86.238 1.524.901 1.759 1.743l.004.018c.26 1.356.409 2.915.409 4.509l-.002.334v-.017z"/></symbol><symbol id="icon-instagram" viewBox="0 0 32 32"><path d="M19.063 15.999A3.062 3.062 0 1 1 16 12.937h.001a3.062 3.062 0 0 1 3.062 3.062z"/><path d="M23.161 10.582a3.061 3.061 0 0 0-1.723-1.737l-.021-.007a5.001 5.001 0 0 0-1.702-.316h-.003c-.968-.044-1.259-.054-3.713-.054s-2.742.009-3.713.054a5.06 5.06 0 0 0-1.74.329l.035-.012a3.061 3.061 0 0 0-1.737 1.723l-.007.021a4.983 4.983 0 0 0-.316 1.703v.003c-.044.968-.054 1.259-.054 3.713s.01 2.742.054 3.712a5.06 5.06 0 0 0 .328 1.74l-.012-.035c.316.804.94 1.428 1.723 1.737l.021.007a4.96 4.96 0 0 0 1.704.316h.003c.968.044 1.259.054 3.712.054s2.742-.009 3.712-.054a5.06 5.06 0 0 0 1.741-.327l-.035.012a3.061 3.061 0 0 0 1.737-1.723l.007-.021a5.001 5.001 0 0 0 .316-1.702v-.003c.044-.97.054-1.259.054-3.712s-.009-2.742-.054-3.713a5.068 5.068 0 0 0-.33-1.742l.012.035zm-7.162 10.136a4.715 4.715 0 1 1 0-9.432 4.715 4.715 0 1 1 0 9.432zm4.905-8.52a1.102 1.102 0 1 1 1.102-1.102c0 .609-.494 1.102-1.102 1.102z"/><path d="M15.999 0C7.163.001.001 7.164.001 15.999S7.164 31.998 16 31.998s15.999-7.163 15.999-15.999C31.998 7.163 24.835 0 15.999 0zm9.132 19.788a6.734 6.734 0 0 1-.442 2.276l.016-.046a4.726 4.726 0 0 1-2.655 2.676l-.032.011a6.623 6.623 0 0 1-2.223.427h-.007c-.979.045-1.293.056-3.788.056s-2.808-.011-3.788-.056a6.74 6.74 0 0 1-2.277-.442l.046.016a4.726 4.726 0 0 1-2.676-2.655l-.011-.032a6.623 6.623 0 0 1-.427-2.223v-.007c-.045-.98-.056-1.293-.056-3.788s.011-2.808.056-3.788c.017-.806.172-1.57.443-2.277l-.016.046a4.728 4.728 0 0 1 2.654-2.675l.032-.011a6.623 6.623 0 0 1 2.223-.427h.007c.979-.045 1.293-.056 3.788-.056s2.808.011 3.788.056a6.758 6.758 0 0 1 2.276.442l-.046-.016a4.726 4.726 0 0 1 2.676 2.655l.011.032c.255.661.411 1.425.428 2.223v.007c.045.979.055 1.293.055 3.788s-.009 2.809-.054 3.788z"/></symbol><symbol id="icon-facebook" viewBox="0 0 32 32"><path d="M18.579 31.792q-.2.033-.401.06.202-.025.401-.06zm.32-.055l-.191.034zm-1.079.159q-.234.026-.471.046.237-.02.471-.046zm.308-.037l-.226.029zm1.207-.209l-.169.035zm1.082-.269l-.136.037zm-.328.09l-.148.038zm-.427.107l-.158.035zm-2.317.365l-.253.019zM32 15.999C31.999 7.163 24.836.001 16.001.001S.002 7.164.002 16 7.165 31.999 16 31.999h.281V19.54h-3.436v-4.006h3.437v-2.948c0-3.419 2.084-5.28 5.137-5.28h.095c1.052 0 2.091.057 3.113.169l-.126-.011v3.573h-2.104c-1.659 0-1.981.789-1.981 1.946v2.551h3.967l-.517 4.006h-3.45v11.845C27.16 29.399 31.999 23.264 32 15.999zM17.057 31.965q-.25.016-.501.025.251-.009.501-.025zm-.51.024l-.265.007z"/></symbol><symbol id="icon-cart" viewBox="0 0 31 32"><path d="M30.858 14.907a2.015 2.015 0 0 0-2.015-2.015h-27a2.017 2.017 0 0 0-.491 3.912l.014.004 2.721 13.009A2.19 2.19 0 0 0 6.277 32h18.491a2.19 2.19 0 0 0 2.19-2.19l2.773-13.123a2.02 2.02 0 0 0 1.129-1.779v-.002zM8.769 27.278a.67.67 0 0 1-.671.671h-.209a.67.67 0 0 1-.671-.671v-8c0-.371.3-.671.671-.671h.188c.371 0 .671.3.671.671zm5.004 0a.67.67 0 0 1-.671.671h-.189a.67.67 0 0 1-.671-.671v-8c0-.371.3-.671.671-.671h.188c.371 0 .671.3.671.671zm5.004 0a.67.67 0 0 1-.671.671h-.188a.67.67 0 0 1-.671-.671v-8c0-.371.3-.671.671-.671h.188c.371 0 .671.3.671.671zm5.004 0a.67.67 0 0 1-.671.671h-.188a.67.67 0 0 1-.671-.671v-8c0-.371.3-.671.671-.671h.188c.371 0 .671.3.671.671zM6.578 9.597c.631-4.347 4.333-7.648 8.805-7.648s8.173 3.302 8.799 7.6l.006.048-.001.036a1.008 1.008 0 1 0 2.016 0l-.001-.038v.002c-.655-5.433-5.237-9.602-10.793-9.602S5.271 4.165 4.621 9.545l-.005.052a.996.996 0 1 0 1.96-.006l.001.006z"/></symbol><symbol id="icon-big-heart" viewBox="0 0 36 32"><path d="M17.878 32c-34.881-19.027-9.653-42.683 0-26.752 9.656-15.931 34.883 7.725 0 26.752z"/></symbol></defs></svg>