<svg xmlns="http://www.w3.org/2000/svg" width="118.617" height="30" viewBox="0 0 118.617 30"><path d="M56.786.597c.1.031.007.069-.262.074a5.664 5.664 0 0 0-.89-.047zm1.505-.049l.651-.024-.651.026zm58.642 7.926a.183.183 0 0 1-.194.112 6.406 6.406 0 0 0-.271-.438zm.867 2.618l-.19.134q-.027-.193-.063-.386a.732.732 0 0 1 .253.252zm.238 10.053a.736.736 0 0 1-.222.009c.01-.111.017-.221.019-.332.087.028.16.118.203.323zm-8.737 2.2zm.092-.84zm.4-.657c-.014 0 0 0 .023-.006l-.014.006zm-85.388-17.9h-.022zm14.357-.721c-.014.009-.043.013-.122.006zm-.447-.056zm-3.195.185zm-4.051.307c.068-.036.028-.072-.039-.1.052-.012.092-.035.13-.04a.233.233 0 0 0 .074.032c-.05.007-.047.036-.061.062l.089-.045c.016.012.012.016.02.025a.368.368 0 0 1-.2.079zm29.863 15.932zm-.4-.254zm40.883 6.265l-.024.014h-.037l-.08-.014h.14zm-1.033.236zm.816-.193h-.024l-.006-.005h.026zm.025.035h-.008zm-.049-.015h-.014.014zm.039 0h-.018l-.007-.007h.019zm.164.063zm-.159-.044h.007c.006.009.006.012-.006.003zm-.173.062h.049-.049zm.117-.1h-.017.018zM.124 23.59a15.374 15.374 0 0 1 .537 1.759l.135-.065c.268.223.074.292.155.47.106-.037-.035-.268.155-.13a9.667 9.667 0 0 0 3.48 2.873c.463.209.863.444 1.389.633l.788.287.4.144a3.765 3.765 0 0 0 .5.158 12.1 12.1 0 0 0 2.663.28c.818.011 1.592-.022 2.349-.082a4.31 4.31 0 0 0 1.622-.352 4.148 4.148 0 0 1 .593-.194 1.307 1.307 0 0 1 .271-.06h.22c.145 0 .3-.006.47-.011.018 0-.767.169-.559.155l.014-.006.161-.014c.115-.009.225-.02.336-.032.219-.025.443-.044.659-.073.436-.052.866-.112 1.294-.181s.852-.147 1.287-.258l.162-.041c.054-.014.12-.03.112-.029l.06-.02a.216.216 0 0 1 .066-.005l.175-.006a25.885 25.885 0 0 0 2.673-.237 10.446 10.446 0 0 0 2.513-.612.156.156 0 0 0 .059-.051c0-.03.083-.011.126-.02l.1-.005.392.006c-.119.008-.182.02-.264.029-.037 0-.1.006-.133.009a.117.117 0 0 1-.039 0 2.469 2.469 0 0 0 .6.063c.319.018.671.03 1 .036a7 7 0 0 0 1.238-.033c.6.035.118.068.474.119.8.087 2.076-.012 2.483.091.046.012-.079.015-.21.016.691.008 2.247.115 1.809.005h.053a10.558 10.558 0 0 0 1.22.074h.423l.463.011c.62.014 1.205.03 1.746.077a5.879 5.879 0 0 1 .716-.014l.4.016a.685.685 0 0 1 .163.026l.114.027c.05.009.157.024.231.034.161.021.317.042.444.046a1.563 1.563 0 0 0 .54-.026c-.1.074.677.155 1.547.13.219 0 .439-.018.662-.03.2-.014.517-.04.467-.042s.258-.007.387-.011c.161 0 .3-.01.42-.017-.315.041.787.067.416.125a5.65 5.65 0 0 0 1.842-.073c1.9.231 3.891-.067 4.943.2 3.119-.021 6-.08 8.8-.085-.107.157-3.09-.011-2.981.156 1.331-.021 2.38-.062 3.424-.09s2.083-.041 3.4-.035c.682.018-.386.07-.617.1 2.651-.079 5.131-.012 7.484-.11a3.256 3.256 0 0 1-.5.045c.464-.008 1.083.017 1.025-.054l-.452.022c-.748-.1 1.827-.227 1.9-.293-.768.221 2.328.007 1.1.29.3-.019.685-.06.609-.107.455.006.6.031.148.094 1.659-.071 1.059-.136 2.566-.163 0 .035-.3.054-.454.1a21.848 21.848 0 0 1 2.786-.16c-.074.022.079.047-.3.053 2.188-.047 3.688-.261 6.09-.264-.674.17.823.027.978.154l.638-.037.64-.042-.531-.044c1.129-.039 2.1-.169 3.078-.162l-.823.084 2.106-.1-1.208-.006c1.12-.108-.167-.16 1.339-.178-.3.021 1.124-.032 1.731.006a14.985 14.985 0 0 1 1.931-.155c.23.03-.12.152.03.172.507-.138 2.621-.168 3.26-.322-.216.042-.2.108-.116.118l.416-.121c.527-.014.608-.006.552.054 1.557-.108-.574-.123 1.3-.2-.141.019-.065.026-.358.063a73.813 73.813 0 0 0 2.68-.224l.628-.06.222-.021a.485.485 0 0 1 .216.006c.074.015.129.03.219.045l.347.047c.232.034.463.043.695.068.256.079-.16.068-.583.039-.214-.021-.426-.048-.549-.056-.073 0-.073 0-.084.006s-.019.019.066.045a12.533 12.533 0 0 0 2.187.092q1.045-.035 2.016-.154c.646-.079 1.276-.17 1.865-.3a5.271 5.271 0 0 0 1.317-.428.311.311 0 0 1-.1.045c-.038-.1.186-.225.257-.437a7.07 7.07 0 0 1 .026-.1 6.888 6.888 0 0 0 1.129-.232c-.237.073-.207.163-.16.132a15.742 15.742 0 0 0 4.41-1.54l-.1.124a6.053 6.053 0 0 0 1.989-1.2c-.007-.132.221-.348-.08-.237.112-.067.219-.136.318-.206.078-.072.151-.144.218-.217a2.164 2.164 0 0 0 .329-.44 1.89 1.89 0 0 0 .166-.878 3.745 3.745 0 0 1 .072-1.664c.02.128.137.308.131.2l-.222-.916c-.206.076-.117.121-.261.317a.985.985 0 0 1-.295-.6c.193.409.335-.009.453-.187-.066.031-.139-.029-.2-.014.38-.482-.434-.075-.18-.731l.114.034a2.051 2.051 0 0 1-.179-.733c.248-.11.117.26.323.276-.017-.369-.475-.729-.229-1.064.07.157.072.383.141.54a.9.9 0 0 0 .261-.677l-.006.027.129-.624-.078.159c-.649-.466-.1-.946-.507-1.572.385.608.23.1.51.148.083-.159.178-.4.255-.333-.219-.3.192-.495-.129-.912.092-.019.018-.317.244-.25-.061-.385-.161.091-.273.059-.275-.588.347-1.4-.238-2.255a2.739 2.739 0 0 0-.538-.786 9.493 9.493 0 0 1-.461-.564 4.573 4.573 0 0 0-.1-.23c.1-.073.384.228.384.228a1.66 1.66 0 0 0-.5-.99c.126.062.141-.014.166-.128-.218-.274-.449-.153-.576-.527a2.555 2.555 0 0 1 .546.238 10.053 10.053 0 0 0-.507-.47c-.2-.154-.428-.3-.622-.461.061-.107.419.166.632.271-.442-.36-1.049-.943-1.477-1 0 0 .1.1.161.174.011-.046.209-.016.315.055.494.287.369.466.3.494l-.282-.223c-.13.156.114.38.449.629a4.456 4.456 0 0 1 .8.778l-.385-.121a10.565 10.565 0 0 0-4.245-3.377c-.016-.016-.035-.031-.05-.047.157 0 .33.022.465.011a1.018 1.018 0 0 0 .14.083l.456.048-.41-.186c.1-.074.1-.236-.131-.577l-.46-.237c-.1-.05-.254-.135-.29-.142a.4.4 0 0 1-.073-.022.977.977 0 0 1 .1-.043.708.708 0 0 0 .083-.087l.021.071c.01.024.005.038.025.048l.233.169a.71.71 0 0 0-.139-.176c0-.008-.014-.01-.032-.024-.017.005-.062-.066-.1-.1l-.13-.132a.283.283 0 0 0 .17-.235l-.552-.514c.152-.07.4.225.4-.134-.257-.241-.315.252-.549-.153a1.3 1.3 0 0 1 .17-.235.1.1 0 0 0 0-.094.962.962 0 0 0-.21-.249c.038-.08.206 0 .361.208a1.311 1.311 0 0 0-.379-.361 2.778 2.778 0 0 0-.782-.292 4.684 4.684 0 0 0-1.383-.124 9.488 9.488 0 0 0-1.711-.053c-.569.022-1.013.051-1.02-.028-.114.03-.445.085-.815.157l-.573.109c-.114.02-.165.032-.2.041s-.094.02-.137.028c.137-.071.1-.091.019-.093a.4.4 0 0 1-.107 0 .289.289 0 0 0-.042 0l-.286-.017c-.781-.044-1.689-.1-1.5-.183a8.341 8.341 0 0 1-.971.08c-.195.008-.4.013-.624.017s-.526.006-.459.009-.267-.028-.477-.052l-.68-.074a27.223 27.223 0 0 0-1.3-.113 2.093 2.093 0 0 1 .417.016c-.864-.113-1.093-.175-1.643-.264a3.963 3.963 0 0 1-1.13.053 2.971 2.971 0 0 0-.788-.173c-.574-.159-.376-.167.008-.159.19.007.441.039.617.054s.311.033.221-.036c-.068.032-.823-.1-1.378-.119-.571-.029-1-.006-.81.044a6.574 6.574 0 0 1-1.236-.173c-.151.172-.787.031-1.487.138a6.414 6.414 0 0 0-1.66-.1c.029-.024-.06-.055.034-.076.218-.022.518-.038.518-.038-1.068 0-.512.123-.8.2-1.639-.006-.728-.114-1.267-.195-1.032.007-1.839.1-2.6.08-.052-.023-.2-.034-.021-.056-.547.037-1.347.017-2.169 0-.41-.009-.826-.017-1.218-.016s-.761.028-1.076.06a.682.682 0 0 1-.161-.032c.2.065.226.13.182.177a6.748 6.748 0 0 1-1.359 0 2.216 2.216 0 0 0 .582-.058l-.64.037c-.572-.122.873-.042.878-.132-1.252.039-2.7.139-3.657.1-.2-.119 2.234-.039.958-.145l1.48.045c-1.128-.187.9.013-.136-.187-1.954-.035-2.185.06-4.132.026-.435.066.15.1-.284.163-2.742.151-2.193-.267-4.205-.08a6.3 6.3 0 0 1-2.149.185L68.6.178c-1.881.02-1.049.2-3.023.158.339-.062 1.465-.077 1.18-.087a9.455 9.455 0 0 0-1.864.119l-.221-.114c-1.992.067-4.172.2-6.377.28.114-.038.487-.086-.036-.108-1.39.068-2.879.106-4.359.127s-2.95.048-4.3.059l-1 .138c-.24.007-.455-.031-.2-.059-1.058 0-.037.066-.528.128-.592.033-.8-.024-.433-.071-1.823.168-5.2.408-7.166.413l.366-.05c-1.526.039-1.622.3-3.057.278l.261-.032c-3.286.148-6.838.473-9.39.52-.392.176-3.25.18-3.333.41-1.9.063-1.394-.02-4.035.144-.7.054-.941.228-1.775.335l-.094-.1-1.074.228-.705-.061-.777.109a1.99 1.99 0 0 1 .684.012c-.3.044-.646.081-.993.11l-.518.04c-.09.006-.184.013-.157.006h-.202c-.717 0-1.241.024-1.284 0 0 0-.811.106-1.549.262a3.706 3.706 0 0 0-.375.084l-.452.073-.439.072a2.26 2.26 0 0 1 .58-.146c-1.022.2-.195-.107-1.428.151.21 0-.047.074-.061.1-.381.015-.974.074-1.616.151-.337.045-.621.07-1.016.14l-.557.1a17.95 17.95 0 0 0-.523.133l.158-.126a4.869 4.869 0 0 0-1.164.383.994.994 0 0 0-.439.366c-.045.074-.081.17-.061.156l.019.037c.016.017.125.034.038.039l-.074.014-.041.008-.155.025c-.227.034-.456.072-.683.119s-.457.091-.688.151a4.2 4.2 0 0 0-1.34.518c.444-.25.733-.259.76-.224.05.037-.147.144-.374.328 0-.006-.457.118-.466.124s0 .012 0 .012c.027.075.072.049.118.011.124-.077.266-.182.154.015a.392.392 0 0 1 .013.08c-.218.351-.461.212-.451 0l-.122.443c-.1.019-.1-.086-.195-.122.115.192-.74.735-.448 1.017l-.1.02a4.59 4.59 0 0 0-.25 1.174c-.01.332-.018.641-.028 1.038.263.015.23.323.462.555a4.6 4.6 0 0 0 .1 1.915c.313.477.274.13.509.34-.222.047.061.731-.244.385a5.652 5.652 0 0 0 .489.957 8.771 8.771 0 0 0 .771 1.1c.03-.119 0-.246.116-.188.147.181.151.429.024.412l-.054-.047a2.922 2.922 0 0 1 .335.438.3.3 0 0 1 .037.061l-.016.06-.075.245c-.1.328-.29.666-.379 1l-.079.488c-.026.16-.028.29-.04.427-.01.01 0 .019-.015.028-.041.02.023-.02-.179.1-.066.042-.149.09-.2.127l-.084.1a1.547 1.547 0 0 0-.135.186l.036-.054-.417.482-.3.491c-.422.434.06-.284-.366.025-.23.543-.48.957-.657 1.355a1.92 1.92 0 0 0-.226.59 1.29 1.29 0 0 0-.023.626 1.5 1.5 0 0 0-.201 1.55z" fill="#f47c53" fill-rule="evenodd" opacity=".947"/><text transform="translate(59 19.001)" fill="#fff" font-size="12" font-family="ApercuPro-Bold,Apercu Pro" font-weight="700"><tspan x="-43.014" y="0">РЕКОМЕНДУЕМ</tspan></text></svg>