<svg xmlns="http://www.w3.org/2000/svg" width="25.664" height="27.495" viewBox="0 0 25.664 27.495"><path d="M12.833 2.749a.458.458 0 0 0-.458.458v1.5l-2.408.8-4.562.917a.461.461 0 0 0-.156.062L.212 9.694a.459.459 0 0 0-.141.633l3.208 5.041a.458.458 0 0 0 .7.092l1.068-.968v12.544a.458.458 0 0 0 .458.458h14.66a.458.458 0 0 0 .458-.458V14.589l1.085.887a.449.449 0 0 0 .353.1.454.454 0 0 0 .312-.191l3.208-4.583a.458.458 0 0 0-.106-.633l-5.041-3.667a.454.454 0 0 0-.179-.078l-4.556-.912-2.408-.8v-1.11A1.83 1.83 0 1 0 11 1.832a.458.458 0 0 0 .916 0 .916.916 0 1 1 .916.916zm0 2.774l2.259.754a2.28 2.28 0 0 1-4.518 0zm11.739 5.122l-2.667 3.809-1.451-1.187a.458.458 0 0 0-.749.355v12.956H5.959V13.455a.458.458 0 0 0-.767-.339l-1.43 1.3-2.669-4.194 4.582-2.92 4-.8a3.208 3.208 0 0 0 6.321 0l3.983.8zm0 0" fill="#a5c1c2"/></svg>