<svg xmlns="http://www.w3.org/2000/svg" width="361.615" height="252.172" viewBox="0 0 361.615 252.172"><defs><style>.a{fill:#ddd5cd;fill-rule:evenodd;}</style></defs><g transform="translate(-13.876 166.864)"><g transform="translate(13.876 -166.864)"><g transform="translate(0 0)"><path class="a" d="M43.992,36.856c-12.014-2.067-24.248-2.833-35.271-8.494C4.513,26.2-.179,36.236,4.113,38.433c11.569,5.937,24.524,6.742,37.13,8.905,4.36.749,8-9.587,2.749-10.482" transform="translate(6.244 126.201)"/><path class="a" d="M51.514,31.143c-12.583-1.25-25.262-1.29-37.67-3.971-4.286-.929-7.976,9.356-2.754,10.482,12.408,2.687,25.087,2.732,37.676,3.971,4.467.439,7.993-9.964,2.749-10.482" transform="translate(34.557 121.82)"/><path class="a" d="M41.782,29.587A188.877,188.877,0,0,1,7.311,21.859C2.659,20.422-1.7,30.572,2.7,31.93a199.358,199.358,0,0,0,36.335,8.139c4.444.5,7.993-9.891,2.743-10.482" transform="translate(-0.876 96.837)"/><path class="a" d="M46.838,25.159c-9.44.867-18.9,1.127-28.084-1.583-4.675-1.38-9.012,8.764-4.613,10.071C24,36.559,33.928,36.582,44.089,35.641c4.506-.417,7.705-10.944,2.749-10.482" transform="translate(52.104 104.84)"/><path class="a" d="M42.613,26.035c-10.065-.721-19.528-3.65-28.979-7.046-4.557-1.645-9.006,8.488-4.6,10.065,10.015,3.61,20.153,6.708,30.832,7.463,4.495.321,7.97-10.116,2.749-10.482" transform="translate(28.513 83.353)"/><path class="a" d="M54.334,28.388c-9.5.1-18.875-1.217-28.253-2.591-4.4-.642-8,9.722-2.743,10.482,9.373,1.38,18.751,2.692,28.247,2.591,4.529-.045,7.869-10.538,2.749-10.482" transform="translate(91.092 115.593)"/><path class="a" d="M67.19,26.142c-12.9.884-25.881-.028-38.313-3.734-4.669-1.391-9.006,8.759-4.607,10.071a112.9,112.9,0,0,0,40.171,4.146c4.523-.3,7.762-10.831,2.749-10.482" transform="translate(99.029 99.418)"/><path class="a" d="M45.671,19.512l-23.488.451c-4.534.09-7.852,10.584-2.749,10.482l23.488-.456c4.529-.079,7.857-10.584,2.749-10.477" transform="translate(73.172 86.604)"/><path class="a" d="M58.77,17.536a102.767,102.767,0,0,1-29.5,2.782c-4.506-.225-7.948,10.229-2.749,10.477A109.781,109.781,0,0,0,58.009,27.7c4.247-1.031,6.511-11.564.76-10.167" transform="translate(105.849 76.863)"/><path class="a" d="M53.011,20.29a144.923,144.923,0,0,1-34.443-6.162C13.91,12.709,9.556,22.864,13.955,24.2a153.362,153.362,0,0,0,36.307,6.573c4.506.248,7.953-10.2,2.749-10.482" transform="translate(51.256 61.04)"/><path class="a" d="M56.258,13.613C46,16.6,35.654,16.12,25.161,14.864c-4.444-.541-7.993,9.851-2.749,10.482,11.186,1.341,22.17,1.617,33.08-1.56,4.2-1.228,6.4-11.811.766-10.172" transform="translate(86.782 58.486)"/><path class="a" d="M56.193,33.687c-11-1.307-22.1-1.887-32.978-4.061-4.315-.862-7.981,9.44-2.749,10.488,10.882,2.169,21.978,2.754,32.978,4.055,4.438.529,7.993-9.863,2.749-10.482" transform="translate(77.931 133.226)"/><path class="a" d="M54.772,34.828c-11.8.969-23.7,1.149-35.147-2.23-4.681-1.374-9.012,8.775-4.613,10.077,12.132,3.571,24.5,3.672,37.011,2.636,4.512-.366,7.728-10.893,2.749-10.482" transform="translate(56.134 146.634)"/><path class="a" d="M33.2,37.355A85.982,85.982,0,0,1,13.58,35.384c-4.275-.946-7.97,9.333-2.754,10.488A85.773,85.773,0,0,0,30.45,47.837c4.529-.051,7.869-10.55,2.749-10.482" transform="translate(33.362 159.849)"/><path class="a" d="M50.712,35.545,27.224,36c-4.534.09-7.857,10.584-2.749,10.482l23.488-.456c4.529-.079,7.852-10.584,2.749-10.482" transform="translate(96.514 160.878)"/><path class="a" d="M60.814,32.4c-9.908.879-19.832.422-29.751.58-4.534.062-7.869,10.567-2.754,10.482,9.925-.152,19.855.31,29.757-.58,4.512-.394,7.711-10.921,2.749-10.482" transform="translate(114.267 146.251)"/><path class="a" d="M55.217,28.366c-7.058.839-14.1.27-21.156-.372-4.472-.417-7.981,10-2.749,10.482,7.052.642,14.1,1.217,21.161.372,2.653-.31,4.41-2.7,5.052-5.176.411-1.566.366-5.627-2.309-5.306" transform="translate(128.004 125.846)"/><path class="a" d="M69.817,29.75A60.613,60.613,0,0,1,41.886,32.5c-4.422-.586-8,9.789-2.749,10.488a65.494,65.494,0,0,0,29.914-3.07c4.129-1.4,6.275-12.042.766-10.167" transform="translate(164.273 133.015)"/><path class="a" d="M64.906,23.877c-9.018,1.678-17.99,3.154-27.166,1.954-4.427-.58-8,9.8-2.754,10.482,9.829,1.29,19.511-.473,29.154-2.27,4.3-.8,6.624-11.259.766-10.167" transform="translate(145.058 106.457)"/><path class="a" d="M72.351,26.049a71.991,71.991,0,0,1-28.732,1.988c-4.422-.591-8,9.789-2.749,10.482a77.2,77.2,0,0,0,30.72-2.3c4.208-1.183,6.432-11.755.76-10.172" transform="translate(172.305 116.145)"/><path class="a" d="M62.674,20.783a73.823,73.823,0,0,1-24.958-1.639C32.974,18,28.738,28.156,33.109,29.215a78.9,78.9,0,0,0,26.817,2.056c4.506-.456,7.677-10.983,2.749-10.488" transform="translate(139.969 84.485)"/><path class="a" d="M76.055,20.536C66.074,24.383,55.586,24.7,45.02,24.913,40.491,25,37.162,35.5,42.271,35.4c11.2-.22,22.446-.625,33.018-4.7,4.044-1.56,6.134-12.234.766-10.167" transform="translate(178.959 90.128)"/><path class="a" d="M65.474,16.537A46.033,46.033,0,0,1,43.011,18.4c-4.382-.721-8,9.626-2.754,10.482A50.576,50.576,0,0,0,64.708,26.7c4.129-1.4,6.275-12.042.766-10.167" transform="translate(169.524 71.801)"/><path class="a" d="M59.123,17.274a42.047,42.047,0,0,1-21.854-3.267c-4.343-1.994-8.956,8.077-4.607,10.065a46.028,46.028,0,0,0,23.713,3.684c4.506-.434,7.694-10.961,2.749-10.482" transform="translate(138.273 59.903)"/><path class="a" d="M56.272,10.782a219.98,219.98,0,0,0-22.722-.349c-4.534.09-7.863,10.584-2.749,10.493a216.863,216.863,0,0,1,22.722.338C58,21.647,61.5,11.221,56.272,10.782" transform="translate(125.811 43.975)"/><path class="a" d="M72.852,10.739c-9.93.152-19.849-.3-29.751.58-4.517.4-7.717,10.921-2.754,10.482,9.9-.879,19.827-.417,29.757-.58,4.529-.062,7.863-10.567,2.749-10.482" transform="translate(170.364 45.965)"/><path class="a" d="M66.4,33.65c-9.1.952-18.249,1.132-27.391,1.312-4.534.084-7.857,10.584-2.754,10.488,9.142-.18,18.294-.36,27.4-1.318,4.5-.473,7.672-11.006,2.749-10.482" transform="translate(151.114 152.014)"/><path class="a" d="M59.98,36.9c-7.581.107-15.146-.451-22.722-.349-4.534.062-7.869,10.555-2.749,10.488,7.576-.107,15.146.451,22.722.344,4.529-.062,7.863-10.561,2.749-10.482" transform="translate(142.977 165.495)"/><path class="a" d="M73.306,34.932c-8.021,1.712-16.177,2.67-24.2,4.382-4.281.912-6.573,11.412-.766,10.167,8.026-1.712,16.177-2.675,24.2-4.382,4.286-.912,6.573-11.412.766-10.167" transform="translate(202.874 157.569)"/><path class="a" d="M67.644,31.707a200.005,200.005,0,0,1-20.328,1.96c-4.534.118-7.846,10.617-2.754,10.482A195.385,195.385,0,0,0,64.9,42.189c2.653-.344,4.4-2.687,5.058-5.176.4-1.549.36-5.655-2.309-5.306" transform="translate(189.609 143.005)"/><path class="a" d="M88.856,28.077l-37.58.732c-4.534.085-7.852,10.584-2.749,10.477l37.586-.727c4.523-.084,7.852-10.584,2.743-10.482" transform="translate(207.945 126.283)"/><path class="a" d="M69.769,24.979a141.213,141.213,0,0,1-18.824-1.2c-4.438-.541-8,9.851-2.749,10.482a139.35,139.35,0,0,0,18.824,1.2c4.529-.051,7.863-10.55,2.749-10.482" transform="translate(206.224 106.285)"/><path class="a" d="M90.814,22.914c-10.206,4.039-20.8,6.32-31.8,5.176-4.461-.468-7.993,9.941-2.754,10.482,11.575,1.205,23.048-1.239,33.79-5.492,4.027-1.594,6.1-12.279.766-10.167" transform="translate(243.573 101.094)"/><path class="a" d="M80.434,21.322c-8.539.9-17.309,1.155-25.724-.839-4.754-1.138-8.978,9.029-4.607,10.071,9.125,2.163,18.283,2.23,27.583,1.25,4.506-.473,7.672-11,2.749-10.482" transform="translate(218.683 90.696)"/><path class="a" d="M72.512,16.553a81.1,81.1,0,0,1-18.537,2.568c-4.534.124-7.846,10.623-2.749,10.488a90.5,90.5,0,0,0,20.519-2.889c4.23-1.11,6.472-11.665.766-10.167" transform="translate(220.462 72.225)"/><path class="a" d="M59.341,17.207l-11.7,2.574c-4.275.941-6.562,11.445-.766,10.172l11.7-2.58c4.275-.941,6.562-11.445.766-10.167" transform="translate(196.108 75.432)"/><path class="a" d="M79.24,13.315c-9.818-1.284-19.511.479-29.154,2.27-4.292.805-6.618,11.259-.76,10.172,9.012-1.684,18-3.154,27.166-1.96,4.427.58,8-9.795,2.749-10.482" transform="translate(207.298 55.864)"/><path class="a" d="M77.183,8.79c-8.331.918-16.65,1.842-25.025,2.05-4.534.113-7.846,10.612-2.754,10.488,8.381-.214,16.706-1.138,25.031-2.056,4.5-.5,7.66-11.029,2.749-10.482" transform="translate(212.034 36.842)"/><path class="a" d="M74.165,6.259c-9.4-.586-18.8.327-28.185.546-4.534.1-7.846,10.6-2.749,10.482,9.4-.214,18.8-1.121,28.191-.546,4.5.282,7.964-10.161,2.743-10.482" transform="translate(183.423 24.318)"/><path class="a" d="M82.015,12.976a104.859,104.859,0,0,0-21.922.422c-2.659.332-4.41,2.7-5.058,5.176-.411,1.56-.361,5.644,2.309,5.311a105.245,105.245,0,0,1,21.922-.428c4.484.383,7.981-10.043,2.749-10.482" transform="translate(249.138 54.558)"/><path class="a" d="M81.229,19.177c-6.528.163-13.028.991-19.562,1.16-4.529.118-7.84,10.617-2.749,10.482,6.534-.163,13.034-.986,19.567-1.16,4.523-.113,7.84-10.612,2.743-10.482" transform="translate(256.116 85.051)"/><g transform="translate(328.516 87.052)"><path class="a" d="M30.687,2.782C22.289,2.134,13.964.788,5.566.135,1.082-.209-2.41,10.223,2.817,10.623c8.4.648,16.723,2,25.115,2.647,4.489.349,7.976-10.088,2.754-10.488" transform="translate(-0.201 -0.127)"/></g><path class="a" d="M79.591,7.957q-10.181.194-20.356.394c-4.534.084-7.863,10.584-2.754,10.488q10.181-.2,20.362-.4c4.529-.084,7.852-10.584,2.749-10.482" transform="translate(244.785 33.076)"/><path class="a" d="M85.9,5.009A174.2,174.2,0,0,0,58.443,3.19c-4.534.062-7.863,10.561-2.749,10.482a175.559,175.559,0,0,1,27.453,1.819c4.41.636,8-9.733,2.749-10.482" transform="translate(241.125 10.908)"/><path class="a" d="M92.49,25.775c-10.381,4-21.556,5.227-31.936,9.237-4.044,1.555-6.134,12.24-.766,10.161,10.386-4,21.556-5.221,31.936-9.232,4.05-1.56,6.134-12.24.766-10.167" transform="translate(257.089 114.389)"/><path class="a" d="M80.859,30.746c-7.418,1.628-14.819,3.194-22.434,3.425-4.534.141-7.84,10.64-2.754,10.488,8.274-.248,16.368-1.977,24.423-3.746,4.275-.941,6.562-11.445.766-10.167" transform="translate(241.08 138.152)"/><path class="a" d="M66.19,31.315q-6.269.118-12.532.242c-2.625.051-4.467,2.912-5.058,5.176-.468,1.774-.349,5.357,2.309,5.306q6.269-.118,12.532-.242c2.63-.045,4.467-2.912,5.058-5.176.462-1.774.349-5.362-2.309-5.306" transform="translate(219.22 141.285)"/><path class="a" d="M65.521,38.277C59.033,39.325,52.51,40.153,45.993,41c-2.659.349-4.4,2.692-5.058,5.176-.406,1.555-.366,5.661,2.309,5.311,6.517-.851,13.039-1.684,19.528-2.732,2.664-.422,4.393-2.619,5.058-5.176.389-1.481.366-5.734-2.309-5.306" transform="translate(183.827 173.399)"/><path class="a" d="M68.161,6.5a105.26,105.26,0,0,0-14.126-1.29c-4.534.045-7.869,10.544-2.749,10.482a105.184,105.184,0,0,1,14.126,1.3c4.433.552,7.993-9.829,2.749-10.488" transform="translate(220.692 20.338)"/><path class="a" d="M82.134,3.762C70.261.7,58.6-.462,46.5,2.016c-4.286.884-6.59,11.361-.766,10.167,10.651-2.18,21.347-1.042,31.8,1.65,4.726,1.222,8.99-8.939,4.607-10.071" transform="translate(190.734 -0.671)"/><path class="a" d="M56.2,41.9c-7.6-.648-15.219-.631-22.755-1.909-4.365-.743-7.993,9.592-2.749,10.482,7.536,1.284,15.157,1.262,22.755,1.909,4.478.383,7.981-10.037,2.749-10.482" transform="translate(125.231 181.281)"/><path class="a" d="M49.684,43.51a23.363,23.363,0,0,1-13.738.349c-2.512-.727-4.534,1.481-5.492,3.582-.71,1.543-1.594,5.768.879,6.494a29.492,29.492,0,0,0,17.585-.259c2.523-.851,4.112-3.858,4.3-6.365.152-2.09-1.031-4.641-3.532-3.8" transform="translate(132.652 197.022)"/><path class="a" d="M64.938,8.687c-9.744-3.92-20.052-2.906-30.145-1.065-4.292.777-6.624,11.231-.76,10.167,8.73-1.588,17.883-2.416,26.3.969,4.472,1.8,8.99-8.308,4.607-10.071" transform="translate(136.441 23.985)"/><path class="a" d="M61.686,3.879C54.4,2.6,47.1,1.857,39.73,2.742c-2.659.315-4.416,2.7-5.064,5.176-.406,1.566-.355,5.627,2.309,5.306,7.379-.879,14.684-.135,21.961,1.138,4.354.772,7.993-9.558,2.749-10.482" transform="translate(154.797 7.127)"/><path class="a" d="M88.953,36.2c-9.288,3.16-18.953,4.179-28.67,5.114-4.512.434-7.694,10.967-2.749,10.488,10.358-1,20.75-2.073,30.652-5.43,4.129-1.4,6.275-12.042.766-10.172" transform="translate(250.021 162.91)"/></g></g></g></svg>