<svg xmlns="http://www.w3.org/2000/svg" width="405.025" height="282.444" viewBox="0 0 405.025 282.444"><defs><style>.a{fill:#a5c1c2;fill-rule:evenodd;}</style></defs><g transform="translate(-93.876 -157.136)"><g transform="translate(93.876 157.136)"><g transform="translate(0 0)"><path class="a" d="M48.983,37.912C35.527,35.6,21.824,34.739,9.478,28.4c-4.713-2.423-9.968,8.82-5.161,11.28C17.275,46.328,31.785,47.23,45.9,49.652c4.883.839,8.958-10.737,3.079-11.741" transform="translate(7.283 144.719)"/><path class="a" d="M56.675,31.627c-14.094-1.4-28.295-1.445-42.193-4.448-4.8-1.041-8.933,10.479-3.085,11.74,13.9,3.009,28.1,3.06,42.2,4.448,5,.492,8.952-11.16,3.079-11.74" transform="translate(39.729 139.699)"/><path class="a" d="M46.693,30.531c-13.2-1.5-25.929-4.738-38.609-8.656-5.211-1.609-10.094,9.76-5.161,11.28,13.343,4.126,26.8,7.533,40.7,9.116,4.978.561,8.952-11.078,3.072-11.74" transform="translate(-0.876 111.069)"/><path class="a" d="M50.982,25.364c-10.573.972-21.172,1.262-31.455-1.773-5.236-1.546-10.094,9.816-5.167,11.28C25.4,38.133,36.523,38.158,47.9,37.1c5.047-.467,8.63-12.258,3.079-11.74" transform="translate(59.837 120.24)"/><path class="a" d="M46.862,26.9C35.588,26.1,24.989,22.815,14.4,19.011,9.3,17.169,4.316,28.518,9.249,30.284c11.217,4.044,22.573,7.514,34.534,8.359,5.034.36,8.927-11.33,3.079-11.74" transform="translate(32.803 95.617)"/><path class="a" d="M58.369,28.7c-10.643.107-21.14-1.363-31.644-2.9-4.927-.719-8.958,10.889-3.072,11.74,10.5,1.546,21,3.016,31.638,2.9,5.072-.05,8.813-11.8,3.079-11.74" transform="translate(104.516 132.563)"/><path class="a" d="M72.562,26.606c-14.453.99-28.988-.032-42.912-4.183-5.23-1.558-10.088,9.81-5.161,11.28a126.458,126.458,0,0,0,44.994,4.643c5.066-.341,8.693-12.132,3.079-11.74" transform="translate(113.611 114.027)"/><path class="a" d="M49.129,19.512l-26.307.5c-5.079.1-8.794,11.854-3.079,11.74l26.307-.511c5.072-.088,8.8-11.854,3.079-11.734" transform="translate(83.98 99.342)"/><path class="a" d="M62.954,17.551a115.1,115.1,0,0,1-33.039,3.116c-5.047-.252-8.9,11.457-3.079,11.734A122.96,122.96,0,0,0,62.1,28.938c4.757-1.154,7.293-12.952.852-11.387" transform="translate(121.426 88.18)"/><path class="a" d="M57.918,21.046a162.321,162.321,0,0,1-38.578-6.9c-5.217-1.59-10.094,9.785-5.167,11.28A171.773,171.773,0,0,0,54.84,32.787c5.047.278,8.908-11.425,3.079-11.74" transform="translate(58.865 70.047)"/><path class="a" d="M60.635,13.634c-11.488,3.344-23.077,2.807-34.83,1.4-4.978-.606-8.952,11.034-3.079,11.74,12.529,1.5,24.831,1.811,37.051-1.748,4.7-1.375,7.173-13.229.858-11.394" transform="translate(99.576 67.121)"/><path class="a" d="M60.791,34.181c-12.321-1.464-24.749-2.113-36.937-4.549-4.832-.965-8.939,10.573-3.079,11.747,12.188,2.429,24.617,3.085,36.937,4.542,4.971.593,8.952-11.047,3.079-11.74" transform="translate(89.434 152.769)"/><path class="a" d="M59.764,35.111C46.548,36.2,33.224,36.4,20.4,32.612,15.156,31.073,10.3,42.441,15.231,43.9c13.589,4,27.443,4.113,41.454,2.952,5.053-.41,8.656-12.2,3.079-11.74" transform="translate(64.455 168.135)"/><path class="a" d="M36.191,37.6a96.3,96.3,0,0,1-21.973-2.208c-4.788-1.06-8.927,10.454-3.085,11.747a96.069,96.069,0,0,0,21.98,2.2c5.072-.057,8.813-11.816,3.079-11.74" transform="translate(38.36 183.279)"/><path class="a" d="M54.171,35.545l-26.307.511c-5.079.1-8.8,11.854-3.079,11.74l26.307-.511c5.072-.088,8.794-11.854,3.079-11.74" transform="translate(110.729 184.458)"/><path class="a" d="M65.025,32.4c-11.1.984-22.213.473-33.323.65-5.079.069-8.813,11.835-3.085,11.74,11.116-.17,22.238.347,33.329-.65C67,43.7,70.583,31.91,65.025,32.4" transform="translate(131.073 167.695)"/><path class="a" d="M58.4,28.412c-7.9.94-15.8.3-23.7-.416-5.009-.467-8.939,11.2-3.079,11.74,7.9.719,15.791,1.363,23.7.416,2.971-.347,4.94-3.028,5.659-5.8.461-1.754.41-6.3-2.587-5.943" transform="translate(146.815 144.313)"/><path class="a" d="M73.814,29.777a67.889,67.889,0,0,1-31.285,3.079C37.577,32.2,33.571,43.82,39.45,44.6a73.357,73.357,0,0,0,33.505-3.438c4.624-1.571,7.028-13.488.858-11.387" transform="translate(188.378 152.527)"/><path class="a" d="M68.811,23.886c-10.1,1.88-20.15,3.533-30.427,2.189-4.959-.65-8.958,10.977-3.085,11.74,11.009,1.445,21.853-.53,32.654-2.542,4.814-.9,7.419-12.611.858-11.387" transform="translate(166.359 122.094)"/><path class="a" d="M76.444,26.068A80.633,80.633,0,0,1,44.263,28.3c-4.952-.662-8.958,10.965-3.079,11.741a86.462,86.462,0,0,0,34.408-2.574c4.713-1.325,7.2-13.166.852-11.394" transform="translate(197.583 133.195)"/><path class="a" d="M66.443,20.991a82.685,82.685,0,0,1-27.954-1.836c-5.312-1.287-10.056,10.094-5.161,11.28a88.374,88.374,0,0,0,30.036,2.3c5.047-.511,8.6-12.3,3.079-11.747" transform="translate(160.527 96.915)"/><path class="a" d="M80.42,20.568c-11.179,4.309-22.926,4.668-34.761,4.9-5.072.1-8.8,11.854-3.079,11.747,12.542-.246,25.14-.7,36.982-5.261,4.53-1.748,6.87-13.7.858-11.387" transform="translate(205.208 103.381)"/><path class="a" d="M68.813,16.563a51.559,51.559,0,0,1-25.159,2.082c-4.908-.808-8.958,10.782-3.085,11.74A56.648,56.648,0,0,0,67.955,27.95c4.624-1.571,7.028-13.488.858-11.387" transform="translate(194.396 82.379)"/><path class="a" d="M62.51,17.7c-8.473.814-16.693-.114-24.478-3.659C33.168,11.805,28,23.085,32.871,25.312a51.554,51.554,0,0,0,26.56,4.126c5.047-.486,8.618-12.277,3.079-11.74" transform="translate(158.583 68.745)"/><path class="a" d="M59.639,10.839a246.388,246.388,0,0,0-25.449-.391c-5.078.1-8.807,11.854-3.079,11.753a242.9,242.9,0,0,1,25.449.379c5.015.429,8.933-11.248,3.079-11.74" transform="translate(144.302 50.491)"/><path class="a" d="M77.055,10.739c-11.122.17-22.232-.341-33.323.65-5.06.448-8.643,12.233-3.085,11.74,11.091-.984,22.207-.467,33.329-.65,5.072-.069,8.807-11.835,3.079-11.74" transform="translate(195.358 52.772)"/><path class="a" d="M70.33,33.652c-10.195,1.066-20.44,1.268-30.679,1.47-5.078.095-8.8,11.854-3.085,11.747,10.239-.2,20.491-.4,30.686-1.476,5.041-.53,8.592-12.327,3.079-11.74" transform="translate(173.299 174.301)"/><path class="a" d="M63.348,36.946c-8.491.12-16.964-.5-25.449-.391-5.078.069-8.813,11.823-3.079,11.747,8.485-.12,16.964.5,25.449.385,5.072-.069,8.807-11.829,3.079-11.74" transform="translate(163.973 189.748)"/><path class="a" d="M76.721,34.944c-8.984,1.918-18.119,2.99-27.1,4.908-4.795,1.022-7.362,12.781-.858,11.387,8.99-1.918,18.119-3,27.1-4.908,4.8-1.022,7.362-12.781.858-11.387" transform="translate(232.613 180.666)"/><path class="a" d="M70.723,31.71a224.01,224.01,0,0,1-22.768,2.2c-5.079.132-8.788,11.892-3.085,11.74a218.841,218.841,0,0,0,22.774-2.2c2.971-.385,4.933-3.009,5.665-5.8.448-1.735.4-6.334-2.587-5.943" transform="translate(217.412 163.976)"/><path class="a" d="M94.006,28.077l-42.092.82c-5.078.095-8.794,11.854-3.079,11.734l42.1-.814c5.066-.095,8.794-11.854,3.072-11.74" transform="translate(238.425 144.814)"/><path class="a" d="M72.673,25.126a158.165,158.165,0,0,1-21.084-1.344c-4.971-.606-8.958,11.034-3.079,11.741a156.077,156.077,0,0,0,21.084,1.344c5.072-.057,8.807-11.816,3.079-11.74" transform="translate(236.452 121.896)"/><path class="a" d="M95.276,22.947c-11.431,4.523-23.3,7.078-35.619,5.8-5-.524-8.952,11.135-3.085,11.74,12.964,1.35,25.815-1.388,37.846-6.151,4.511-1.785,6.832-13.753.858-11.387" transform="translate(279.253 115.948)"/><path class="a" d="M84.295,21.434c-9.564,1.009-19.387,1.293-28.812-.94-5.325-1.274-10.056,10.113-5.161,11.28,10.22,2.423,20.478,2.5,30.894,1.4,5.047-.53,8.592-12.321,3.079-11.74" transform="translate(250.73 104.031)"/><path class="a" d="M75.376,16.57a90.839,90.839,0,0,1-20.762,2.877c-5.078.139-8.788,11.9-3.079,11.747a101.365,101.365,0,0,0,22.983-3.236c4.738-1.243,7.249-13.065.858-11.387" transform="translate(252.768 82.865)"/><path class="a" d="M61.255,17.22,48.151,20.1c-4.788,1.054-7.35,12.819-.858,11.394l13.1-2.889c4.788-1.054,7.35-12.819.858-11.387" transform="translate(224.859 86.54)"/><path class="a" d="M83.252,13.368C72.256,11.93,61.4,13.9,50.6,15.91c-4.807.9-7.413,12.611-.852,11.394,10.094-1.886,20.156-3.533,30.427-2.2,4.959.65,8.958-10.971,3.079-11.74" transform="translate(237.683 64.116)"/><path class="a" d="M80.826,8.792C71.5,9.82,62.177,10.855,52.8,11.089c-5.079.126-8.788,11.886-3.085,11.747,9.387-.24,18.712-1.274,28.036-2.3,5.041-.555,8.58-12.352,3.079-11.74" transform="translate(243.11 42.317)"/><path class="a" d="M78.187,6.282c-10.523-.656-21.052.366-31.569.612-5.079.114-8.788,11.873-3.079,11.74,10.523-.24,21.052-1.255,31.575-.612,5.041.315,8.921-11.381,3.072-11.74" transform="translate(210.324 27.965)"/><path class="a" d="M85.276,13.022a117.447,117.447,0,0,0-24.553.473c-2.978.372-4.94,3.028-5.665,5.8-.461,1.748-.4,6.321,2.587,5.949A117.879,117.879,0,0,1,82.2,24.763c5.022.429,8.939-11.248,3.079-11.74" transform="translate(285.63 62.62)"/><path class="a" d="M84.216,19.177c-7.312.183-14.592,1.11-21.91,1.3-5.072.132-8.782,11.892-3.079,11.74,7.318-.183,14.6-1.1,21.916-1.3,5.066-.126,8.782-11.886,3.072-11.74" transform="translate(293.627 97.563)"/><g transform="translate(367.953 97.502)"><path class="a" d="M34.346,3.1C24.94,2.375,15.616.868,6.21.136c-5.022-.385-8.933,11.3-3.079,11.747,9.406.726,18.731,2.24,28.131,2.965,5.028.391,8.933-11.3,3.085-11.747" transform="translate(-0.201 -0.127)"/></g><path class="a" d="M82.674,7.957q-11.4.218-22.8.442c-5.078.095-8.807,11.854-3.085,11.747q11.4-.227,22.806-.448c5.072-.095,8.794-11.854,3.079-11.74" transform="translate(280.642 38.002)"/><path class="a" d="M89.831,5.23A195.115,195.115,0,0,0,59.083,3.192C54,3.262,50.276,15.021,56,14.933A196.635,196.635,0,0,1,86.753,16.97c4.94.713,8.958-10.9,3.079-11.74" transform="translate(276.448 12.599)"/><path class="a" d="M96.8,25.807c-11.627,4.485-24.143,5.854-35.77,10.346-4.53,1.741-6.87,13.709-.858,11.381,11.633-4.485,24.143-5.848,35.77-10.34,4.536-1.748,6.87-13.709.858-11.387" transform="translate(294.742 131.183)"/><path class="a" d="M84.191,30.759c-8.309,1.823-16.6,3.577-25.128,3.836-5.078.158-8.782,11.917-3.085,11.747,9.267-.278,18.333-2.214,27.355-4.2,4.788-1.054,7.35-12.819.858-11.387" transform="translate(276.396 158.415)"/><path class="a" d="M68.327,31.315q-7.022.133-14.037.271c-2.94.057-5,3.262-5.665,5.8-.524,1.987-.391,6,2.587,5.943q7.022-.133,14.037-.271c2.946-.05,5-3.262,5.665-5.8.517-1.987.391-6.006-2.587-5.943" transform="translate(251.346 162.005)"/><path class="a" d="M68.5,38.281c-7.268,1.173-14.573,2.1-21.872,3.053-2.978.391-4.933,3.016-5.665,5.8-.454,1.741-.41,6.34,2.587,5.949,7.3-.953,14.6-1.886,21.872-3.06,2.984-.473,4.921-2.934,5.665-5.8.435-1.659.41-6.422-2.587-5.943" transform="translate(210.786 198.806)"/><path class="a" d="M70.5,6.654c-5.268-.656-10.5-1.5-15.822-1.445-5.078.05-8.813,11.81-3.079,11.74,5.318-.057,10.561.795,15.822,1.451,4.965.618,8.952-11.009,3.079-11.747" transform="translate(253.032 23.404)"/><path class="a" d="M86.924,4.133C73.625.7,60.56-.6,47.009,2.177c-4.8.99-7.381,12.725-.858,11.387,11.93-2.441,23.91-1.167,35.613,1.848C87.056,16.782,91.832,5.4,86.924,4.133" transform="translate(218.702 -0.671)"/><path class="a" d="M59.57,42.13c-8.51-.726-17.046-.707-25.487-2.139-4.889-.833-8.952,10.744-3.079,11.74,8.441,1.438,16.977,1.413,25.487,2.139,5.015.429,8.939-11.242,3.079-11.74" transform="translate(143.637 207.839)"/><path class="a" d="M52.083,43.53a26.168,26.168,0,0,1-15.387.391c-2.814-.814-5.078,1.659-6.151,4.012-.795,1.729-1.785,6.46.984,7.274a33.033,33.033,0,0,0,19.7-.29c2.826-.953,4.605-4.321,4.814-7.129.17-2.341-1.154-5.2-3.956-4.258" transform="translate(152.142 225.877)"/><path class="a" d="M69.069,9.01C58.155,4.619,46.611,5.755,35.305,7.818c-4.807.871-7.419,12.58-.852,11.387,9.778-1.779,20.03-2.706,29.455,1.085,5.009,2.019,10.069-9.305,5.16-11.28" transform="translate(156.483 27.584)"/><path class="a" d="M64.952,4.062C56.795,2.624,48.619,1.8,40.361,2.788c-2.978.353-4.946,3.028-5.672,5.8-.454,1.754-.4,6.3,2.587,5.943,8.264-.984,16.447-.151,24.6,1.274,4.877.864,8.952-10.706,3.079-11.74" transform="translate(177.519 8.265)"/><path class="a" d="M93.024,36.229c-10.4,3.539-21.229,4.681-32.111,5.728C55.86,42.443,52.3,54.24,57.834,53.7c11.6-1.117,23.241-2.322,34.332-6.082,4.624-1.571,7.028-13.488.858-11.394" transform="translate(286.642 186.787)"/></g></g></g></svg>