<svg xmlns="http://www.w3.org/2000/svg" width="45.202" height="45.185" viewBox="0 0 45.202 45.185"><defs><style>.a{fill:#fff;}</style></defs><g transform="translate(-137 -40.089)"><g transform="translate(137 40.089)"><path class="a" d="M44.289,4.725a1.857,1.857,0,0,0-.576-.572A26.5,26.5,0,0,0,32.124.091a1.874,1.874,0,0,0-1.817,1.16l-.026-.013c-1.152,2.734-4.165,4.5-7.678,4.5a8.937,8.937,0,0,1-7.727-4.6l-.024.013A1.9,1.9,0,0,0,13.08.091,26.517,26.517,0,0,0,1.489,4.152a1.877,1.877,0,0,0-.576.572c-1.179,1.839-2.067,6.343,3,10.227a1.9,1.9,0,0,0,.653.324l4.859,1.316V35.86a1.882,1.882,0,0,0,1.883,1.883,5.655,5.655,0,0,1,5.648,5.648,1.882,1.882,0,0,0,1.883,1.883h7.531a1.883,1.883,0,0,0,1.883-1.883A5.654,5.654,0,0,1,33.9,37.743a1.883,1.883,0,0,0,1.883-1.883V16.592l4.858-1.316a1.872,1.872,0,0,0,.651-.324C46.356,11.068,45.467,6.564,44.289,4.725ZM10.51,12.984,5.921,11.742C3.355,9.635,3.649,7.814,3.939,7.063a24.07,24.07,0,0,1,7.766-2.982A13.469,13.469,0,0,1,10.51,12.984Zm12.093.282a3.766,3.766,0,1,1-3.766,3.766A3.766,3.766,0,0,1,22.6,13.267Zm5.648,18.828H24.485V28.329a1.883,1.883,0,0,0-3.766,0v3.766H16.954V28.329a5.648,5.648,0,1,1,11.3,0v3.766ZM39.28,11.742,34.7,12.984a13.462,13.462,0,0,1-1.2-8.9,24.059,24.059,0,0,1,7.759,2.98C41.557,7.837,41.83,9.65,39.28,11.742Z" transform="translate(0 -0.089)"/></g></g></svg>