<svg xmlns="http://www.w3.org/2000/svg" width="45" height="44.981" viewBox="0 0 45 44.981"><defs><style>.a{fill:#fff;}</style></defs><g transform="translate(0 -0.104)"><g transform="translate(0 0.104)"><path class="a" d="M44.091,4.719a1.848,1.848,0,0,0-.574-.57A26.39,26.39,0,0,0,31.979.106,1.9,1.9,0,0,0,30.172,1.26l-.028-.011C29,3.969,26,5.725,22.5,5.725a8.9,8.9,0,0,1-7.692-4.579l-.024.011A1.888,1.888,0,0,0,13.021.106,26.4,26.4,0,0,0,1.483,4.149a1.869,1.869,0,0,0-.574.57C-.264,6.55-1.149,11.033,3.893,14.9a1.889,1.889,0,0,0,.65.322l4.838,1.31V35.714a1.874,1.874,0,0,0,1.874,1.874,5.63,5.63,0,0,1,5.623,5.623,1.874,1.874,0,0,0,1.874,1.874h7.5a1.875,1.875,0,0,0,1.874-1.874,5.629,5.629,0,0,1,5.623-5.623,1.875,1.875,0,0,0,1.874-1.874V16.532l4.838-1.31a1.879,1.879,0,0,0,.648-.322C46.149,11.033,45.264,6.55,44.091,4.719ZM10.462,12.941,5.895,11.7c-2.555-2.1-2.262-3.91-1.972-4.658a23.93,23.93,0,0,1,7.731-2.969A13.416,13.416,0,0,1,10.462,12.941Zm17.661,13.4h-1.1l.776.776a1.874,1.874,0,1,1-2.65,2.65l-.776-.776v1.1a1.874,1.874,0,1,1-3.749,0v-1.1l-.776.776a1.875,1.875,0,1,1-2.652-2.65l.778-.776h-1.1a1.874,1.874,0,0,1,0-3.749h1.1l-.778-.776a1.875,1.875,0,1,1,2.652-2.65l.776.776v-1.1a1.874,1.874,0,1,1,3.749,0v1.1l.776-.776a1.874,1.874,0,0,1,2.65,2.65l-.776.776h1.1a1.874,1.874,0,1,1,0,3.749ZM39.105,11.7l-4.556,1.233a13.622,13.622,0,0,1-1.2-8.858,23.879,23.879,0,0,1,7.724,2.965C41.371,7.817,41.643,9.622,39.105,11.7Z" transform="translate(0 -0.104)"/></g></g></svg>