<svg xmlns="http://www.w3.org/2000/svg" width="41.584" height="47.159" viewBox="0 0 41.584 47.159"><defs><style>.a{fill:#fff;}</style></defs><g transform="translate(0 0)"><path class="a" d="M44.152,438.039H18.227v2.8a4.018,4.018,0,0,0,4.014,4.014h8.852a1.424,1.424,0,0,0,1.008-.417l1.813-1.813h5.362l1.813,1.813a1.425,1.425,0,0,0,1.008.417H54.117a4.019,4.019,0,0,0,4.014-4.014v-2.8Zm0,0" transform="translate(-16.548 -397.692)"/><path class="a" d="M41.212,113.372,35.521,114.9a3.678,3.678,0,1,1-.738-2.754l4.544-1.217-.006-.015-.04-.094,0-.005c0-.006,0-.005,0,0a6.831,6.831,0,0,1-.513-1.977v-1.923H34.342a3.678,3.678,0,1,1,0-2.851h4.423V99.172H18.227v20.466a9.529,9.529,0,0,1,10.746,7.9H41.434c.453-4.506,2.18-9.282,5.884-12.127l-3.205-.662A6.8,6.8,0,0,1,41.212,113.372Zm0,0" transform="translate(-16.548 -90.037)"/><path class="a" d="M309.112,286.086a6.449,6.449,0,0,0-4.039,2.13,15.217,15.217,0,0,0-3.8,9.015H315.1v-3.405A8,8,0,0,0,309.112,286.086Zm0,0" transform="translate(-273.52 -259.735)"/><path class="a" d="M18.227,351.306v5h7.846a6.572,6.572,0,0,0-7.846-5Zm0,0" transform="translate(-16.548 -318.805)"/><path class="a" d="M159.072,256.106a.828.828,0,0,0-.8-.613.853.853,0,0,0-.216.028.828.828,0,1,0,1.014.585Zm0,0" transform="translate(-142.944 -231.959)"/><path class="a" d="M148.222,158.742a.827.827,0,1,0,.828.828A.828.828,0,0,0,148.222,158.742Zm0,0" transform="translate(-133.818 -144.121)"/><path class="a" d="M23.9,6.207V2.928A2.931,2.931,0,0,0,20.968,0H2.928A2.931,2.931,0,0,0,0,2.928V6.207c0,.027,0,.054,0,.081.025,0,.049,0,.074,0H23.893C23.894,6.258,23.9,6.233,23.9,6.207Zm0,0" transform="translate(0 0)"/></g></svg>