<svg xmlns="http://www.w3.org/2000/svg" width="30" height="30" viewBox="0 0 30 30"><g><g><g><path fill="#a5c1c2" d="M16.94 29.81c-.121.02-.243.038-.365.055"/></g><g><path fill="#a5c1c2" d="M17.232 29.76l-.174.03"/></g><g><path fill="#a5c1c2" d="M16.249 29.905c-.143.016-.286.03-.43.043"/></g><g><path fill="#a5c1c2" d="M16.529 29.871c-.068.01-.137.018-.206.026"/></g><g><path fill="#a5c1c2" d="M17.63 29.681l-.155.033"/></g><g><path fill="#a5c1c2" d="M18.615 29.437l-.124.034"/></g><g><path fill="#a5c1c2" d="M18.317 29.518l-.135.035"/></g><g><path fill="#a5c1c2" d="M17.927 29.616l-.144.032"/></g><g><path fill="#a5c1c2" d="M15.815 29.948c-.077.007-.153.012-.23.017"/></g><g><path fill="#a5c1c2" d="M29.177 15.412c0-8.056-6.533-14.589-14.589-14.589C6.533.823 0 7.356 0 15.412 0 23.467 6.533 30 14.588 30c.086 0 .171-.002.257-.003V18.64H11.71v-3.652h3.134V12.3c0-3.118 1.903-4.814 4.684-4.814 1.331 0 2.476.099 2.81.143v3.258H20.42c-1.513 0-1.806.72-1.806 1.774v2.327h3.617l-.471 3.652h-3.146v10.796c6.098-1.748 10.562-7.365 10.562-14.024z"/></g><g><path fill="#a5c1c2" d="M15.552 29.968c-.152.01-.304.017-.457.022"/></g><g><path fill="#a5c1c2" d="M15.087 29.99l-.242.007"/></g></g></g></svg>