<svg xmlns="http://www.w3.org/2000/svg" width="29.18" height="29.18" viewBox="0 0 29.18 29.18"><defs><style>.a{opacity:0.59;}.b{fill:#a2a2a2;}</style></defs><g class="a" transform="translate(-0.001)"><g transform="translate(0.001)"><path class="b" d="M14.591,0a14.59,14.59,0,1,0,14.59,14.59A14.59,14.59,0,0,0,14.591,0Zm7.331,11.993-3.568,3.568a2.049,2.049,0,0,1-2.9,0l-.14-.14-.38.38.139.139a2.051,2.051,0,0,1,0,2.9l-3.568,3.568a2.049,2.049,0,0,1-2.9,0L7.26,21.058a2.051,2.051,0,0,1,0-2.9l3.569-3.568a2.05,2.05,0,0,1,2.9,0l.139.139.38-.38-.139-.139a2.052,2.052,0,0,1,0-2.9l3.569-3.568a2.049,2.049,0,0,1,2.9,0L21.922,9.1A2.051,2.051,0,0,1,21.921,11.993Z" transform="translate(-0.001)"/><path class="b" d="M88.628,160.521l-.558.558-.865-.865.558-.558-.113-.113a.433.433,0,0,0-.612,0l-2.885,2.884a.433.433,0,0,0,0,.612l1.091,1.091a.443.443,0,0,0,.612,0l2.884-2.885a.433.433,0,0,0,0-.612Z" transform="translate(-75.45 -143.145)"/><path class="b" d="M158.032,89.157a.433.433,0,0,0-.613,0l-2.885,2.884a.434.434,0,0,0,0,.612l.113.113.855-.856.865.865-.855.856.113.113a.443.443,0,0,0,.612,0l2.884-2.884a.434.434,0,0,0,0-.612Z" transform="translate(-138.647 -79.942)"/></g></g></svg>