<svg xmlns="http://www.w3.org/2000/svg" width="257.042" height="244.908" viewBox="0 0 257.042 244.908"><defs><style>.a{fill:#bcdcc7;}.a,.b,.c{fill-rule:evenodd;}.b{fill:none;stroke:#bedfca;}.c{fill:#777776;}</style></defs><g transform="translate(-11.658 5.049)"><g transform="translate(24.754 -4.556)"><g transform="translate(0 0)"><g transform="translate(-12.613 0)"><path class="a" d="M174.259,12.568a1.386,1.386,0,0,0-.725-.031s-.057-.163-.139-.407c-.006-.017-.021-.037-.026-.054C173.681,12.249,173.993,12.422,174.259,12.568ZM122.82,81.053c0,.013.006.027.009.041-.187-.009-.353-.017-.463-.028Zm.169,1.621c-.086-.075-.174-.143-.261-.215l.233-.321C122.972,82.317,122.98,82.5,122.989,82.674Zm61.325,133.265c-.122-.041-.234-.317-.345-.687l.648-.072A2.092,2.092,0,0,1,184.314,215.939Zm-2.038-.5.686-.075a5.423,5.423,0,0,1-.675,1.637Zm-5.252.672.412-.058c-.081.472-.16.924-.238,1.325A11.227,11.227,0,0,0,177.024,216.111Zm-4.6.638c-.058.221-.212.276-.506.075Zm2.538-.163c.062,1.6-.568.172-.76,1.016a2.08,2.08,0,0,0,.061-1.108l.613-.085Zm6.824-1.092c.473,2.074-.9-.254-1.007,1.275-.024-.453-.041-.827-.057-1.155C181.077,215.568,181.433,215.536,181.787,215.493Zm-6.06.8c-.027.449-.126.791-.372.781a.975.975,0,0,1-.213-.7C175.338,216.344,175.532,216.319,175.727,216.289ZM18.846,57.059c.1.029.119.061.034.1H18.84C18.84,57.124,18.844,57.092,18.846,57.059Zm.335-.476c1.706.1.371-.191,1.373-.163v.352a5.892,5.892,0,0,1-1.383-.179Zm1.266-1.418-.007-.01.11,0v.017C20.516,55.171,20.482,55.167,20.447,55.165Zm.105.807a6.351,6.351,0,0,0-.675-.109l.012-.012.664.018Zm0,.261c0,.043,0,.083,0,.126-.333-.051-.648-.1-1.007-.153l.068-.072C19.955,56.173,20.277,56.21,20.552,56.233Zm0-.126-.422-.08.422.01Zm-.2-1.237.2.017c0,.037,0,.076,0,.116l-.175-.015C20.368,54.956,20.36,54.907,20.353,54.87ZM19.2,53.631a.189.189,0,0,0-.033,0l-.012-.039C19.17,53.605,19.184,53.619,19.2,53.631Zm-.062-.1.079.007.007.06-.068-.009Zm-.092,0,.035,0c.024.02.046.041.07.061-.037,0-.073-.008-.109-.013C19.043,53.559,19.046,53.544,19.046,53.527Zm1.266,1.135.058-.007c.059.053.119.106.179.157v.041l-.144-.019-.058,0C20.336,54.778,20.323,54.74,20.312,54.662Zm17.9-28.312.035,0c.013.021.031.043.044.063a.161.161,0,0,1-.031,0Zm.025-1.36-.352.017c.073.007.152.017.227.024l.138-.007a.18.18,0,0,1,.008.024l.06,0c0-.01-.007-.022-.01-.032.019,0,.036,0,.054,0s.01.029.016.042l.008,0c0-.017-.01-.029-.015-.044.036,0,.068,0,.1-.007-.015.017-.029.037-.044.054.069.01.131.012.2.022-.031,0-.111,0-.215,0a.138.138,0,0,1-.017.022.082.082,0,0,1-.007-.024h-.006a.266.266,0,0,0,.009.029c-.015.017-.029.037-.044.054l-.026-.086-.06,0c.014.038.026.073.038.111a.154.154,0,0,0,.029,0h-.028a.158.158,0,0,0,.009.025l-.01.012-.426-.032h-.142l-.006-.012-.078-.007c0-.019,0-.039,0-.06.023,0,.042.006.064.007l-.022-.067.1-.007-.105,0-.01-.031h-.034c0-.012,0-.025,0-.037a.113.113,0,0,0,.026,0l-.006-.012.1-.007a.2.2,0,0,0,.019.03.174.174,0,0,0,.031,0,.109.109,0,0,0,0-.037l.412-.026C38.229,24.955,38.236,24.972,38.241,24.991Zm.264-.013c-.048,0-.094,0-.141.007-.006-.018-.01-.035-.017-.054l.2-.012C38.536,24.936,38.52,24.958,38.505,24.977Zm-.531.982.015.021-.069,0-.017-.02Zm-.119-.168a.25.25,0,0,0,.026.035c-.029.006-.036.009.012.017a.052.052,0,0,0,.006.009l-.087-.007c-.015-.021-.034-.043-.051-.063Zm-.065-.039-.056,0-.015-.02C37.775,25.738,37.809,25.746,37.79,25.752Zm-.083-.167a.134.134,0,0,0,.015.02l-.039,0c0-.006,0-.013,0-.02Zm.292.037-.124-.007,0-.015c.046,0,.094.007.139.012Zm.257-.327c-.154,0-.292.015-.036.045a.02.02,0,0,0,0,.008l-.437-.03-.031-.094c.254.016.429.026.536.036C38.275,25.27,38.265,25.284,38.257,25.3Zm.888,0-.291-.022,0,0,.014,0,.071,0Zm-.812-.363c.007.017.013.037.02.054l-.053,0c-.006-.019-.01-.036-.017-.054Zm-28,172.6a.875.875,0,0,0-.336.334c-.949-.672-1.753-1.434-2.328-1.283-.555.18-.973,1.15-.868,4.31a12.7,12.7,0,0,1,1.158,1.858A21.264,21.264,0,0,1,9.2,205.192c.084.213.167.422.247.63l.136.388a.992.992,0,0,1,.01.662c-.026.117-.063.18-.105.321a2.374,2.374,0,0,1-.157.421,1.433,1.433,0,0,1-.5.6l1.673.274c.551,3.888-.295,4.094-1.224,4.5a2.193,2.193,0,0,0-1.291,1.254A5.782,5.782,0,0,0,7.6,215.9c-.015.182-.031.374-.048.582a4.826,4.826,0,0,0,0,.8q.066,1.161.209,2.626s.056-.842.112-1.684c.031-.409.061-.817.085-1.122a1.531,1.531,0,0,1,.06-.383c.012.16.088.609.151.914l.226.975.5,1.834a14.268,14.268,0,0,1,.372,1.857c.15.619.288,1.254.451,1.989-.008.522-.25.412-.612.049a11.853,11.853,0,0,1-.97-1.554,8.15,8.15,0,0,0,.831,1.61,9.742,9.742,0,0,0,2.8,2.718,8.8,8.8,0,0,0,3.7,1.155,7.921,7.921,0,0,0,1.744,0,1.028,1.028,0,0,1-.456,1.145,3.184,3.184,0,0,1-.951.356,9.468,9.468,0,0,1-1.6.068c2.663.872,4.065.492,4.61.257.568-.306.407-.657.344-.985s-.046-.638.7-.881c.744-.267,2.218-.393,5.081-1.385,1.441-.163,1,.388.037,1.067l-1.366.114c.279.09.558.167.838.242-.5.319-1.048.646-1.533.924a11.1,11.1,0,0,0,2.974-.511c.073-.022.124-.051.194-.073a10.8,10.8,0,0,0,1.9.12,13.926,13.926,0,0,0,2.229-.121l1.145-.127.571-.066.351-.105a1.429,1.429,0,0,1-.849,1.276c-.158.116-.192.228.07.393a6.7,6.7,0,0,1,.879.592,2.759,2.759,0,0,1-.05-1.347,1,1,0,0,1,.427-.561,1.688,1.688,0,0,1,.686-.237,1.175,1.175,0,0,1,.2.063c-.471.594-.318.9-.075,1.1-.036.015.679.394,1.276.728a18.58,18.58,0,0,1,1.823,1.128c-.266-.728.245-1.251,1.3-.984,1.234.316,2.04,1.2,3.586,1.85a5.755,5.755,0,0,0,1.256,2.265,7.624,7.624,0,0,0,1.281,1.1,9.094,9.094,0,0,0,1.329.687,9.33,9.33,0,0,1-3.694-3.975c.037.015.063.032.1.048l-.174-.189c-.062-.143-.151-.264-.205-.412.01.076.039.166.054.247l-2.112-2.306a9.751,9.751,0,0,1,3.485,1.052,6.56,6.56,0,0,0,1.522,3.352,8.32,8.32,0,0,0,3.482,2.423,2.592,2.592,0,0,1-.961.117,8.022,8.022,0,0,1-1.5-.357,14.688,14.688,0,0,0,1.989.949l.98.363.924.255.917.229.711.153c.477.1.96.191,1.454.267a18.71,18.71,0,0,0,3.074.236,15.034,15.034,0,0,0,1.635-.1l.209-.025c.026-.01.029-.024.046-.035a.667.667,0,0,0,.08-.082c.04-.056-.007-.136.409-.139.009,0-.469.1-.362.121,8.766.179-2.112-2.928,7.968-2.416,3.209.75-2.317,4.606,5.581,3.868-1.739-.867-.4-1.469,1.878-1.864a64.133,64.133,0,0,1,7.661-.931l-4.676,2.529c1.757.161,4.842-.4,5.781-.041l-.18-.664c-.2-2.425,5.556.558,8.729-.82-3.955,3.209-4.188,2.552-5.03,5.851a25.343,25.343,0,0,1,5.252-2.208,19.465,19.465,0,0,1,7.036-.73l-4.615,2.541c7.568.69,16.185-3.424,22.117-5.769-1.555,1.959.953,2.546-1.62,4.269l7.041-.663-1.916,2.157c2.791-2.229,6.072-.944,5.471-3.684-.757.41-.642.728-2.026.713.142-.844,1.3-2.617,4.961-2.684,2.5.557-1.4,1.145-.673,1.889,2.3-1.24,2.54.552,4.942-.372l-2.254-1.072c1.624-1.681,4.045-.237,6.395-1.254-2.846.916-1.843,1.76-.684,2.63l-.174-.194c1.76-.242,4.011-1.545,5.3-.728l-1.331,2.334,2.492-1.832c1.01.194,1.789.917.153,1.47,8.276.646-.657-4.6,10.127-3.75-.082.851-1.184,1.542-4.112,1.373-.328,1.385.461,2.084,3.406,2.249.064.094.028.165.042.245,2.78-.328,5.993-.558,8.923-1.183a25.222,25.222,0,0,0,7.3-2.345c1.191.424.107,1.152-.972,1.882a21.242,21.242,0,0,0,4-.442c1.142-.277,2.142-.611,3.155-.926a20.432,20.432,0,0,1,7.407-1.079l-3.146-.236c3.895-1.851,11.247-4.024,15.3-3.29l-1,.8c3.534-2.2,10.223-1.684,11.562-3.206-1.786-.246-.265-1.121-2.894-1.078l4.642-2.07,4.551-2.29,1.448,1.892,4.787-2.44c-.2-.053-.231-.117-.149-.2a.927.927,0,0,1,.2-.12l.01-.023c.007-.006.068,0,.1,0l.065,0,.4-.063a9.7,9.7,0,0,0,1.912-.436c2.595-.709,4.81-2.293,4.315-3.241.194-.058.478-.175.52-.136a.727.727,0,0,1,.16.083.657.657,0,0,1,.2.245,2.028,2.028,0,0,1,.194.643,16.379,16.379,0,0,1-1.3,1.538,11.132,11.132,0,0,0-1.232,1.316c.854-.592,1.559-.951,2.1-1.334.362-.239.873-.543,1.022-.629-.008-.009-.026,0-.052-.009-.065.012.1-.072.179-.124.092-.064.187-.128.287-.2a8.227,8.227,0,0,0,1.33-1.254l3.529.594,3.319-2.241c.3-.2,1.124-.764,1.7-1.2a10.968,10.968,0,0,0,1.623-1.382c.463-.472.83-.875,1.08-1.157a3.271,3.271,0,0,0,.387-.483c-.368.684.361.129,0,.74.507-.872,1.073-1.838,1.613-2.857a14.587,14.587,0,0,0,1.265-3.813,8.617,8.617,0,0,0,.174-1.841,8.387,8.387,0,0,0,.972-1.357c-.2.262-.067.289-.067.446.439-.829,1.6-2.038,2.465-3.337a18.592,18.592,0,0,0,1.294-2.137c.29-.8.6-1.626.866-2.449l.214-.939c.063-.234.126-.465.187-.693.133-.453.262-.888.381-1.3.261-.815.483-1.522.643-2.024.257-4.059-1.615-1.93-2.41-2.227a57.612,57.612,0,0,0,1.035-6.169,19.308,19.308,0,0,0,.177-3.221c-.086-1.744-.491-3.3-1.471-8.157,2.762-5.683,3.646,7.1,5.743-.231-.577-.531-1.036-2.1-1.378-4.252-.372-2.153-.765-4.887-.981-7.776.891-5.3,1.141-14.189,2.4-19.449l-1.575.646s-.357-1.837-.715-3.675l-.8-3.65,1.386,1.991c.706,1,1.358,2.009,1.358,2.009-.607-1.153-2.054-4.77-3.078-7.151-2.185-7.486,3.022-4.745-.133-10.388a3.174,3.174,0,0,1,.442-.623,5.418,5.418,0,0,1-.9-1.873,3.043,3.043,0,0,1-.188-.3,2.677,2.677,0,0,1-.009-.567c.009-.27.015-.55.026-.837.083-2.3.3-5.08.3-8.063l1.915,2.192-.751,3.879c2.164-1.948.268-6.527.308-10.214-.67-3.927-2.388-1.989-2.979-4.058a9.889,9.889,0,0,0-.055-1.516c.068-.1.139-.207.208-.3a6.686,6.686,0,0,1,.888-1.243l.061-.1.017-.025.007-.012.039-.109,0,0,.02-.032.075-.126c.051-.078.1-.153.146-.224a3.615,3.615,0,0,1,.279-.347,1.122,1.122,0,0,1,.506-.335c.313-.078.582.107.815.426a5.394,5.394,0,0,1,.6,1.222,12.383,12.383,0,0,1-.094,2.2,17.238,17.238,0,0,0,.194-2.149,8.957,8.957,0,0,1-.2-1.029,8.181,8.181,0,0,1-.011-2c.075-.72.223-1.531.426-2.564.175-1.087.363-2.471.579-4.175,1.064-.1,1.372.492,1.331,1.451a5.409,5.409,0,0,0-.718-3.762l1.593-2c1.616-3.619.84-5.691.025-7.855a15.468,15.468,0,0,1-1.229-8.857c.513,1.213.523-.7.583-3.248.094-2.549-.006-5.718.689-7.089.33,3.1,3.046-1.525,4.3.35.574-7.267-2.474-2.828-3.229-8.6l2.718,2.23c-1.449-5.589-1.441-1.312-2.641-6.981.9,1.528.437-2.619,1.6.735-.237-3.785-.385-5.19-.506-6.476-.184-1.295-.344-2.473-.711-5.844l-2.553-.092a4.282,4.282,0,0,1,.456-3.915c.248.907.475,2.352.762,2.16,1.514-3.085-2.013-3.949-1.065-7.438-.533.97-1.351,2.075-2.3-.563.859.206.886-.936.759-2.2-.114-.994-.422-2.03-.409-2.534-.245.4-.869-.848-1.626-2.252-.782-1.641-2.147-3.354-2.945-3.145-.566-3.488,1.562.355,2.406.182-1.114-.594-2.177-2.093-3.2-3.857-.534-.872-1.207-1.741-1.79-2.629-.3-.439-.6-.875-.89-1.3L240,3.883a6.807,6.807,0,0,0-3.958-2.561c0-.171-.143-.359-.092-.439a17.053,17.053,0,0,0-3.886-.223,15.5,15.5,0,0,0-4.274.834,17.487,17.487,0,0,0-3.9,1.916,16.815,16.815,0,0,0-1.859,1.457,4.1,4.1,0,0,0-.626.7c-.146.207-.27.425-.419.657a6.545,6.545,0,0,1-.665.391l-.18.1-.033.046-.153.076-.6.313.322-.315.339-.324c.072-.061.02-.095.04-.142l.1-.152a5.159,5.159,0,0,0,.429-.793,5.935,5.935,0,0,0-.618.032c-.1.015-.19.022-.154.018l-.49.138a5.192,5.192,0,0,0-1.5.658,3.6,3.6,0,0,0-1.414,1.559c-.27.517-.424,1.06-.706,1.616a7.44,7.44,0,0,1-1.4,1.83c-.2.249-.5.489-.782.8-.092-.626-.459-.563-.9-.223-.194.076-.506-.029-.783-.013a8.457,8.457,0,0,0-.912.072c-2.423.313-5.109,1.924-4.226.059a17.79,17.79,0,0,0-3.345,3.6,6.394,6.394,0,0,0-.875,1.9,7.115,7.115,0,0,0-.24.983,5.053,5.053,0,0,0-.675,1.747c-.043-.01-.086-.02-.127-.032a.255.255,0,0,0,.085-.082c0-.094-.006-.189-.01-.289a8.976,8.976,0,0,1,.02-1.21c.055-.985.27-1.79.235-2.208-.013-.412-.32-.513-.827.046-.068.2-.092.427-.167.592a6.962,6.962,0,0,0-.089.935c-.148.119-.391.091-.6.141-.432.061-.9.115-1.41.16-.021-.037-.044-.073-.062-.078a12.369,12.369,0,0,1-.617-1.215c-.064.412-.8.467-1.707.458-1.024-.036-1.992-.084-1.967.255-.385-1.451-1.974-2.783-1.547-3.714-2.58-.248-5.779-1.974-8.294-1.984l1.1.409a5.345,5.345,0,0,0-1.692-.358l-.177-.723c-.622.12-1.231.24-1.861.36a4.734,4.734,0,0,0-.609.2,4.261,4.261,0,0,1-.476.135,2.294,2.294,0,0,1-.585.018l-.716-.046-1.438-.162c-1.868-.243-3.624-.512-4.694.164a4.493,4.493,0,0,0-.35-.727c-.179-.3-.383-.624-.546-.844s-.283-.344-.283-.344a4.912,4.912,0,0,0-3.265-.163,2.973,2.973,0,0,0-1.446,1.01c-.308.381-.5.815-.744,1.169l-.034.046a13.426,13.426,0,0,0-1.6.281c-1.089-.182-2.183-.334-3.274-.507.457-.841-4.833-1.957-5.663-2.793-2.073-.331-7.915-.979-10.329-.292,2.142-.887,1.108-1.967,5.668-1.424-1.147-1.416-3.032-1.535-5.3-1.44-2.27.124-4.934.631-7.667.193l.171-1.149c-6.822.056-8.074,1.514-10.516,3-.538-.039-1.075-.086-1.613-.122-.085-.838.781-1.244,2.593-2.21a32,32,0,0,0-4.377-.738c-1.6-.091-3.316-.117-5.05-.123-3.471-.012-7.024.06-9.977-.129-1.84-1.083-.6-1.628,1.38-2C104.97,3.4,97.371,2.34,93.57,4.943,95.055,3.9,91.1,4.332,88.823,3.89c.017.522-.391,1.2-.664,1.136C84.446,6.041,76.333,7.458,71.93,6.82l1.523-.839c-5.038.1-8.59,1.4-12.206,2.585q-.834.281-1.681.547c-3.833.446-7.7,1.009-11.516,1.752-1.092-.429,1.666-2.33-1.975-1.482-.871.67-1.038,1.445-1.623,2.122a2.08,2.08,0,0,1-.152.161q-2.005.46-3.974,1l-.075-1.2-2,1.792c-.742.221-1.483.441-2.215.681a6.247,6.247,0,0,0-4.695-1.868,9.2,9.2,0,0,0-1.424-.037,10.969,10.969,0,0,0-4.1,1.092c-3.089,1.273-5.6,3.566-5.545,6.329.012.676.019,1.352.029,2.027A38.284,38.284,0,0,0,5.844,39.748a5,5,0,0,1-.7-2.589,10.848,10.848,0,0,0-.7,6.236c.014.172.022.337.031.5-.309,1.125-.574,2.262-.815,3.4a5.829,5.829,0,0,1-.634.772,2.944,2.944,0,0,1,.316.77C1.837,56.891,1.761,65.293,1.8,73.517a5.013,5.013,0,0,0-.413,1.892c.029.488.2.544.429.462,0,.952.012,1.9.015,2.841-.2-.3-.4-.52-.605-.557A22.367,22.367,0,0,0,1.8,85.565C1.616,101.235.644,116.859.354,132.53-.04,153.769.911,177.9,10.333,197.525Z" transform="translate(-0.282 -0.624)"/><path class="b" d="M174.259,12.568a1.386,1.386,0,0,0-.725-.031s-.057-.163-.139-.407c-.006-.017-.021-.037-.026-.054C173.681,12.249,173.993,12.422,174.259,12.568ZM122.82,81.053c0,.013.006.027.009.041-.187-.009-.353-.017-.463-.028Zm.169,1.621c-.086-.075-.174-.143-.261-.215l.233-.321C122.972,82.317,122.98,82.5,122.989,82.674Zm61.325,133.265c-.122-.041-.234-.317-.345-.687l.648-.072A2.092,2.092,0,0,1,184.314,215.939Zm-2.038-.5.686-.075a5.423,5.423,0,0,1-.675,1.637Zm-5.252.672.412-.058c-.081.472-.16.924-.238,1.325A11.227,11.227,0,0,0,177.024,216.111Zm-4.6.638c-.058.221-.212.276-.506.075Zm2.538-.163c.062,1.6-.568.172-.76,1.016a2.08,2.08,0,0,0,.061-1.108l.613-.085Zm6.824-1.092c.473,2.074-.9-.254-1.007,1.275-.024-.453-.041-.827-.057-1.155C181.077,215.568,181.433,215.536,181.787,215.493Zm-6.06.8c-.027.449-.126.791-.372.781a.975.975,0,0,1-.213-.7C175.338,216.344,175.532,216.319,175.727,216.289ZM18.846,57.059c.1.029.119.061.034.1H18.84C18.84,57.124,18.844,57.092,18.846,57.059Zm.335-.476c1.706.1.371-.191,1.373-.163v.352a5.892,5.892,0,0,1-1.383-.179Zm1.266-1.418-.007-.01.11,0v.017C20.516,55.171,20.482,55.167,20.447,55.165Zm.105.807a6.351,6.351,0,0,0-.675-.109l.012-.012.664.018Zm0,.261c0,.043,0,.083,0,.126-.333-.051-.648-.1-1.007-.153l.068-.072C19.955,56.173,20.277,56.21,20.552,56.233Zm0-.126-.422-.08.422.01Zm-.2-1.237.2.017c0,.037,0,.076,0,.116l-.175-.015C20.368,54.956,20.36,54.907,20.353,54.87ZM19.2,53.631a.189.189,0,0,0-.033,0l-.012-.039C19.17,53.605,19.184,53.619,19.2,53.631Zm-.062-.1.079.007.007.06-.068-.009Zm-.092,0,.035,0c.024.02.046.041.07.061-.037,0-.073-.008-.109-.013C19.043,53.559,19.046,53.544,19.046,53.527Zm1.266,1.135.058-.007c.059.053.119.106.179.157v.041l-.144-.019-.058,0C20.336,54.778,20.323,54.74,20.312,54.662Zm17.9-28.312.035,0c.013.021.031.043.044.063a.161.161,0,0,1-.031,0Zm.025-1.36-.352.017c.073.007.152.017.227.024l.138-.007a.18.18,0,0,1,.008.024l.06,0c0-.01-.007-.022-.01-.032.019,0,.036,0,.054,0s.01.029.016.042l.008,0c0-.017-.01-.029-.015-.044.036,0,.068,0,.1-.007-.015.017-.029.037-.044.054.069.01.131.012.2.022-.031,0-.111,0-.215,0a.138.138,0,0,1-.017.022.082.082,0,0,1-.007-.024h-.006a.266.266,0,0,0,.009.029c-.015.017-.029.037-.044.054l-.026-.086-.06,0c.014.038.026.073.038.111a.154.154,0,0,0,.029,0h-.028a.158.158,0,0,0,.009.025l-.01.012-.426-.032h-.142l-.006-.012-.078-.007c0-.019,0-.039,0-.06.023,0,.042.006.064.007l-.022-.067.1-.007-.105,0-.01-.031h-.034c0-.012,0-.025,0-.037a.113.113,0,0,0,.026,0l-.006-.012.1-.007a.2.2,0,0,0,.019.03.174.174,0,0,0,.031,0,.109.109,0,0,0,0-.037l.412-.026C38.229,24.955,38.236,24.972,38.241,24.991Zm.264-.013c-.048,0-.094,0-.141.007-.006-.018-.01-.035-.017-.054l.2-.012C38.536,24.936,38.52,24.958,38.505,24.977Zm-.531.982.015.021-.069,0-.017-.02Zm-.119-.168a.25.25,0,0,0,.026.035c-.029.006-.036.009.012.017a.052.052,0,0,0,.006.009l-.087-.007c-.015-.021-.034-.043-.051-.063Zm-.065-.039-.056,0-.015-.02C37.775,25.738,37.809,25.746,37.79,25.752Zm-.083-.167a.134.134,0,0,0,.015.02l-.039,0c0-.006,0-.013,0-.02Zm.292.037-.124-.007,0-.015c.046,0,.094.007.139.012Zm.257-.327c-.154,0-.292.015-.036.045a.02.02,0,0,0,0,.008l-.437-.03-.031-.094c.254.016.429.026.536.036C38.275,25.27,38.265,25.284,38.257,25.3Zm.888,0-.291-.022,0,0,.014,0,.071,0Zm-.812-.363c.007.017.013.037.02.054l-.053,0c-.006-.019-.01-.036-.017-.054Zm-28,172.6a.875.875,0,0,0-.336.334c-.949-.672-1.753-1.434-2.328-1.283-.555.18-.973,1.15-.868,4.31a12.7,12.7,0,0,1,1.158,1.858A21.264,21.264,0,0,1,9.2,205.192c.084.213.167.422.247.63l.136.388a.992.992,0,0,1,.01.662c-.026.117-.063.18-.105.321a2.374,2.374,0,0,1-.157.421,1.433,1.433,0,0,1-.5.6l1.673.274c.551,3.888-.295,4.094-1.224,4.5a2.193,2.193,0,0,0-1.291,1.254A5.782,5.782,0,0,0,7.6,215.9c-.015.182-.031.374-.048.582a4.826,4.826,0,0,0,0,.8q.066,1.161.209,2.626s.056-.842.112-1.684c.031-.409.061-.817.085-1.122a1.531,1.531,0,0,1,.06-.383c.012.16.088.609.151.914l.226.975.5,1.834a14.268,14.268,0,0,1,.372,1.857c.15.619.288,1.254.451,1.989-.008.522-.25.412-.612.049a11.853,11.853,0,0,1-.97-1.554,8.15,8.15,0,0,0,.831,1.61,9.742,9.742,0,0,0,2.8,2.718,8.8,8.8,0,0,0,3.7,1.155,7.921,7.921,0,0,0,1.744,0,1.028,1.028,0,0,1-.456,1.145,3.184,3.184,0,0,1-.951.356,9.468,9.468,0,0,1-1.6.068c2.663.872,4.065.492,4.61.257.568-.306.407-.657.344-.985s-.046-.638.7-.881c.744-.267,2.218-.393,5.081-1.385,1.441-.163,1,.388.037,1.067l-1.366.114c.279.09.558.167.838.242-.5.319-1.048.646-1.533.924a11.1,11.1,0,0,0,2.974-.511c.073-.022.124-.051.194-.073a10.8,10.8,0,0,0,1.9.12,13.926,13.926,0,0,0,2.229-.121l1.145-.127.571-.066.351-.105a1.429,1.429,0,0,1-.849,1.276c-.158.116-.192.228.07.393a6.7,6.7,0,0,1,.879.592,2.759,2.759,0,0,1-.05-1.347,1,1,0,0,1,.427-.561,1.688,1.688,0,0,1,.686-.237,1.175,1.175,0,0,1,.2.063c-.471.594-.318.9-.075,1.1-.036.015.679.394,1.276.728a18.58,18.58,0,0,1,1.823,1.128c-.266-.728.245-1.251,1.3-.984,1.234.316,2.04,1.2,3.586,1.85a5.755,5.755,0,0,0,1.256,2.265,7.624,7.624,0,0,0,1.281,1.1,9.094,9.094,0,0,0,1.329.687,9.33,9.33,0,0,1-3.694-3.975c.037.015.063.032.1.048l-.174-.189c-.062-.143-.151-.264-.205-.412.01.076.039.166.054.247l-2.112-2.306a9.751,9.751,0,0,1,3.485,1.052,6.56,6.56,0,0,0,1.522,3.352,8.32,8.32,0,0,0,3.482,2.423,2.592,2.592,0,0,1-.961.117,8.022,8.022,0,0,1-1.5-.357,14.688,14.688,0,0,0,1.989.949l.98.363.924.255.917.229.711.153c.477.1.96.191,1.454.267a18.71,18.71,0,0,0,3.074.236,15.034,15.034,0,0,0,1.635-.1l.209-.025c.026-.01.029-.024.046-.035a.667.667,0,0,0,.08-.082c.04-.056-.007-.136.409-.139.009,0-.469.1-.362.121,8.766.179-2.112-2.928,7.968-2.416,3.209.75-2.317,4.606,5.581,3.868-1.739-.867-.4-1.469,1.878-1.864a64.133,64.133,0,0,1,7.661-.931l-4.676,2.529c1.757.161,4.842-.4,5.781-.041l-.18-.664c-.2-2.425,5.556.558,8.729-.82-3.955,3.209-4.188,2.552-5.03,5.851a25.343,25.343,0,0,1,5.252-2.208,19.465,19.465,0,0,1,7.036-.73l-4.615,2.541c7.568.69,16.185-3.424,22.117-5.769-1.555,1.959.953,2.546-1.62,4.269l7.041-.663-1.916,2.157c2.791-2.229,6.072-.944,5.471-3.684-.757.41-.642.728-2.026.713.142-.844,1.3-2.617,4.961-2.684,2.5.557-1.4,1.145-.673,1.889,2.3-1.24,2.54.552,4.942-.372l-2.254-1.072c1.624-1.681,4.045-.237,6.395-1.254-2.846.916-1.843,1.76-.684,2.63l-.174-.194c1.76-.242,4.011-1.545,5.3-.728l-1.331,2.334,2.492-1.832c1.01.194,1.789.917.153,1.47,8.276.646-.657-4.6,10.127-3.75-.082.851-1.184,1.542-4.112,1.373-.328,1.385.461,2.084,3.406,2.249.064.094.028.165.042.245,2.78-.328,5.993-.558,8.923-1.183a25.222,25.222,0,0,0,7.3-2.345c1.191.424.107,1.152-.972,1.882a21.242,21.242,0,0,0,4-.442c1.142-.277,2.142-.611,3.155-.926a20.432,20.432,0,0,1,7.407-1.079l-3.146-.236c3.895-1.851,11.247-4.024,15.3-3.29l-1,.8c3.534-2.2,10.223-1.684,11.562-3.206-1.786-.246-.265-1.121-2.894-1.078l4.642-2.07,4.551-2.29,1.448,1.892,4.787-2.44c-.2-.053-.231-.117-.149-.2a.927.927,0,0,1,.2-.12l.01-.023c.007-.006.068,0,.1,0l.065,0,.4-.063a9.7,9.7,0,0,0,1.912-.436c2.595-.709,4.81-2.293,4.315-3.241.194-.058.478-.175.52-.136a.727.727,0,0,1,.16.083.657.657,0,0,1,.2.245,2.028,2.028,0,0,1,.194.643,16.379,16.379,0,0,1-1.3,1.538,11.132,11.132,0,0,0-1.232,1.316c.854-.592,1.559-.951,2.1-1.334.362-.239.873-.543,1.022-.629-.008-.009-.026,0-.052-.009-.065.012.1-.072.179-.124.092-.064.187-.128.287-.2a8.227,8.227,0,0,0,1.33-1.254l3.529.594,3.319-2.241c.3-.2,1.124-.764,1.7-1.2a10.968,10.968,0,0,0,1.623-1.382c.463-.472.83-.875,1.08-1.157a3.271,3.271,0,0,0,.387-.483c-.368.684.361.129,0,.74.507-.872,1.073-1.838,1.613-2.857a14.587,14.587,0,0,0,1.265-3.813,8.617,8.617,0,0,0,.174-1.841,8.387,8.387,0,0,0,.972-1.357c-.2.262-.067.289-.067.446.439-.829,1.6-2.038,2.465-3.337a18.592,18.592,0,0,0,1.294-2.137c.29-.8.6-1.626.866-2.449l.214-.939c.063-.234.126-.465.187-.693.133-.453.262-.888.381-1.3.261-.815.483-1.522.643-2.024.257-4.059-1.615-1.93-2.41-2.227a57.612,57.612,0,0,0,1.035-6.169,19.308,19.308,0,0,0,.177-3.221c-.086-1.744-.491-3.3-1.471-8.157,2.762-5.683,3.646,7.1,5.743-.231-.577-.531-1.036-2.1-1.378-4.252-.372-2.153-.765-4.887-.981-7.776.891-5.3,1.141-14.189,2.4-19.449l-1.575.646s-.357-1.837-.715-3.675l-.8-3.65,1.386,1.991c.706,1,1.358,2.009,1.358,2.009-.607-1.153-2.054-4.77-3.078-7.151-2.185-7.486,3.022-4.745-.133-10.388a3.174,3.174,0,0,1,.442-.623,5.418,5.418,0,0,1-.9-1.873,3.043,3.043,0,0,1-.188-.3,2.677,2.677,0,0,1-.009-.567c.009-.27.015-.55.026-.837.083-2.3.3-5.08.3-8.063l1.915,2.192-.751,3.879c2.164-1.948.268-6.527.308-10.214-.67-3.927-2.388-1.989-2.979-4.058a9.889,9.889,0,0,0-.055-1.516c.068-.1.139-.207.208-.3a6.686,6.686,0,0,1,.888-1.243l.061-.1.017-.025.007-.012.039-.109,0,0,.02-.032.075-.126c.051-.078.1-.153.146-.224a3.615,3.615,0,0,1,.279-.347,1.122,1.122,0,0,1,.506-.335c.313-.078.582.107.815.426a5.394,5.394,0,0,1,.6,1.222,12.383,12.383,0,0,1-.094,2.2,17.238,17.238,0,0,0,.194-2.149,8.957,8.957,0,0,1-.2-1.029,8.181,8.181,0,0,1-.011-2c.075-.72.223-1.531.426-2.564.175-1.087.363-2.471.579-4.175,1.064-.1,1.372.492,1.331,1.451a5.409,5.409,0,0,0-.718-3.762l1.593-2c1.616-3.619.84-5.691.025-7.855a15.468,15.468,0,0,1-1.229-8.857c.513,1.213.523-.7.583-3.248.094-2.549-.006-5.718.689-7.089.33,3.1,3.046-1.525,4.3.35.574-7.267-2.474-2.828-3.229-8.6l2.718,2.23c-1.449-5.589-1.441-1.312-2.641-6.981.9,1.528.437-2.619,1.6.735-.237-3.785-.385-5.19-.506-6.476-.184-1.295-.344-2.473-.711-5.844l-2.553-.092a4.282,4.282,0,0,1,.456-3.915c.248.907.475,2.352.762,2.16,1.514-3.085-2.013-3.949-1.065-7.438-.533.97-1.351,2.075-2.3-.563.859.206.886-.936.759-2.2-.114-.994-.422-2.03-.409-2.534-.245.4-.869-.848-1.626-2.252-.782-1.641-2.147-3.354-2.945-3.145-.566-3.488,1.562.355,2.406.182-1.114-.594-2.177-2.093-3.2-3.857-.534-.872-1.207-1.741-1.79-2.629-.3-.439-.6-.875-.89-1.3L240,3.883a6.807,6.807,0,0,0-3.958-2.561c0-.171-.143-.359-.092-.439a17.053,17.053,0,0,0-3.886-.223,15.5,15.5,0,0,0-4.274.834,17.487,17.487,0,0,0-3.9,1.916,16.815,16.815,0,0,0-1.859,1.457,4.1,4.1,0,0,0-.626.7c-.146.207-.27.425-.419.657a6.545,6.545,0,0,1-.665.391l-.18.1-.033.046-.153.076-.6.313.322-.315.339-.324c.072-.061.02-.095.04-.142l.1-.152a5.159,5.159,0,0,0,.429-.793,5.935,5.935,0,0,0-.618.032c-.1.015-.19.022-.154.018l-.49.138a5.192,5.192,0,0,0-1.5.658,3.6,3.6,0,0,0-1.414,1.559c-.27.517-.424,1.06-.706,1.616a7.44,7.44,0,0,1-1.4,1.83c-.2.249-.5.489-.782.8-.092-.626-.459-.563-.9-.223-.194.076-.506-.029-.783-.013a8.457,8.457,0,0,0-.912.072c-2.423.313-5.109,1.924-4.226.059a17.79,17.79,0,0,0-3.345,3.6,6.394,6.394,0,0,0-.875,1.9,7.115,7.115,0,0,0-.24.983,5.053,5.053,0,0,0-.675,1.747c-.043-.01-.086-.02-.127-.032a.255.255,0,0,0,.085-.082c0-.094-.006-.189-.01-.289a8.976,8.976,0,0,1,.02-1.21c.055-.985.27-1.79.235-2.208-.013-.412-.32-.513-.827.046-.068.2-.092.427-.167.592a6.962,6.962,0,0,0-.089.935c-.148.119-.391.091-.6.141-.432.061-.9.115-1.41.16-.021-.037-.044-.073-.062-.078a12.369,12.369,0,0,1-.617-1.215c-.064.412-.8.467-1.707.458-1.024-.036-1.992-.084-1.967.255-.385-1.451-1.974-2.783-1.547-3.714-2.58-.248-5.779-1.974-8.294-1.984l1.1.409a5.345,5.345,0,0,0-1.692-.358l-.177-.723c-.622.12-1.231.24-1.861.36a4.734,4.734,0,0,0-.609.2,4.261,4.261,0,0,1-.476.135,2.294,2.294,0,0,1-.585.018l-.716-.046-1.438-.162c-1.868-.243-3.624-.512-4.694.164a4.493,4.493,0,0,0-.35-.727c-.179-.3-.383-.624-.546-.844s-.283-.344-.283-.344a4.912,4.912,0,0,0-3.265-.163,2.973,2.973,0,0,0-1.446,1.01c-.308.381-.5.815-.744,1.169l-.034.046a13.426,13.426,0,0,0-1.6.281c-1.089-.182-2.183-.334-3.274-.507.457-.841-4.833-1.957-5.663-2.793-2.073-.331-7.915-.979-10.329-.292,2.142-.887,1.108-1.967,5.668-1.424-1.147-1.416-3.032-1.535-5.3-1.44-2.27.124-4.934.631-7.667.193l.171-1.149c-6.822.056-8.074,1.514-10.516,3-.538-.039-1.075-.086-1.613-.122-.085-.838.781-1.244,2.593-2.21a32,32,0,0,0-4.377-.738c-1.6-.091-3.316-.117-5.05-.123-3.471-.012-7.024.06-9.977-.129-1.84-1.083-.6-1.628,1.38-2C104.97,3.4,97.371,2.34,93.57,4.943,95.055,3.9,91.1,4.332,88.823,3.89c.017.522-.391,1.2-.664,1.136C84.446,6.041,76.333,7.458,71.93,6.82l1.523-.839c-5.038.1-8.59,1.4-12.206,2.585q-.834.281-1.681.547c-3.833.446-7.7,1.009-11.516,1.752-1.092-.429,1.666-2.33-1.975-1.482-.871.67-1.038,1.445-1.623,2.122a2.08,2.08,0,0,1-.152.161q-2.005.46-3.974,1l-.075-1.2-2,1.792c-.742.221-1.483.441-2.215.681a6.247,6.247,0,0,0-4.695-1.868,9.2,9.2,0,0,0-1.424-.037,10.969,10.969,0,0,0-4.1,1.092c-3.089,1.273-5.6,3.566-5.545,6.329.012.676.019,1.352.029,2.027A38.284,38.284,0,0,0,5.844,39.748a5,5,0,0,1-.7-2.589,10.848,10.848,0,0,0-.7,6.236c.014.172.022.337.031.5-.309,1.125-.574,2.262-.815,3.4a5.829,5.829,0,0,1-.634.772,2.944,2.944,0,0,1,.316.77C1.837,56.891,1.761,65.293,1.8,73.517a5.013,5.013,0,0,0-.413,1.892c.029.488.2.544.429.462,0,.952.012,1.9.015,2.841-.2-.3-.4-.52-.605-.557A22.367,22.367,0,0,0,1.8,85.565C1.616,101.235.644,116.859.354,132.53-.04,153.769.911,177.9,10.333,197.525Z" transform="translate(-0.282 -0.624)"/></g><path class="a" d="M61.643,40.5h0Z" transform="translate(-6.142 -12.439)"/><path class="b" d="M61.643,40.5h0Z" transform="translate(-6.142 -12.439)"/><path class="a" d="M61.484,40.463c-.023,0-.048-.005-.071-.007l.007.022.083,0s-.01,0-.019-.011" transform="translate(-6.003 -12.41)"/><path class="b" d="M61.484,40.463c-.023,0-.048-.005-.071-.007l.007.022.083,0S61.493,40.475,61.484,40.463Z" transform="translate(-6.003 -12.41)"/><path class="a" d="M61.644,40.489l.05,0-.05-.005Z" transform="translate(-6.144 -12.425)"/><path class="b" d="M61.644,40.489l.05,0-.05-.005Z" transform="translate(-6.144 -12.425)"/><path class="a" d="M62.61,40.6a.058.058,0,0,0,.009-.012l-.028,0a.083.083,0,0,0,0,.013h.015" transform="translate(-6.719 -12.488)"/><path class="b" d="M62.61,40.6a.058.058,0,0,0,.009-.012l-.028,0a.083.083,0,0,0,0,.013Z" transform="translate(-6.719 -12.488)"/><path class="a" d="M61.923,40.562a.173.173,0,0,0-.005-.018c-.031,0-.062-.008-.094-.011l-.2.014.3.015" transform="translate(-6.129 -12.457)"/><path class="b" d="M61.923,40.562a.173.173,0,0,0-.005-.018c-.031,0-.062-.008-.094-.011l-.2.014Z" transform="translate(-6.129 -12.457)"/><path class="a" d="M62.523,40.588a.115.115,0,0,1-.005-.014l-.038,0c0,.005,0,.012.005.017h.038" transform="translate(-6.652 -12.48)"/><path class="b" d="M62.523,40.588a.115.115,0,0,1-.005-.014l-.038,0c0,.005,0,.012.005.017Z" transform="translate(-6.652 -12.48)"/><path class="a" d="M61.5,40.726l.095.007c.088,0,.18,0,.273,0v0c-.118-.013-.244-.026-.379-.04Z" transform="translate(-6.049 -12.552)"/><path class="b" d="M61.5,40.726l.095.007c.088,0,.18,0,.273,0v0c-.118-.013-.244-.026-.379-.04Z" transform="translate(-6.049 -12.552)"/><path class="a" d="M133.368,391.515l.118.419c.146-.228.078-.344-.118-.419" transform="translate(-49.784 -226.011)"/><path class="b" d="M133.368,391.515l.118.419C133.631,391.706,133.563,391.59,133.368,391.515Z" transform="translate(-49.784 -226.011)"/><path class="a" d="M219.936,391.728l.953,1c-.038-.347-.515-.679-.953-1" transform="translate(-102.456 -226.141)"/><path class="b" d="M219.936,391.728l.953,1C220.852,392.384,220.374,392.052,219.936,391.728Z" transform="translate(-102.456 -226.141)"/><path class="a" d="M60.743,378.9a4.529,4.529,0,0,0-.968-.886,1.662,1.662,0,0,0,.968.886" transform="translate(-5.006 -217.798)"/><path class="b" d="M60.743,378.9a4.529,4.529,0,0,0-.968-.886A1.662,1.662,0,0,0,60.743,378.9Z" transform="translate(-5.006 -217.798)"/><path class="a" d="M404.481,197.79a1.212,1.212,0,0,0,.457.35c-.157-.487-.307-.495-.457-.35" transform="translate(-214.742 -108.09)"/><path class="b" d="M404.481,197.79a1.212,1.212,0,0,0,.457.35C404.781,197.652,404.631,197.645,404.481,197.79Z" transform="translate(-214.742 -108.09)"/><path class="a" d="M352.394,367.335a.681.681,0,0,1-.086.048c.026.014.094.015.112.038Z" transform="translate(-182.997 -211.299)"/><path class="b" d="M352.394,367.335a.681.681,0,0,1-.086.048c.026.014.094.015.112.038Z" transform="translate(-182.997 -211.299)"/><path class="a" d="M352.6,367.558s-.007,0-.008,0l.03.1c-.009-.038-.015-.069-.022-.094" transform="translate(-183.173 -211.433)"/><path class="b" d="M352.6,367.558s-.007,0-.008,0l.03.1C352.617,367.614,352.611,367.583,352.6,367.558Z" transform="translate(-183.173 -211.433)"/><path class="a" d="M352.519,367.3l0,.015h0a.115.115,0,0,0-.005-.015" transform="translate(-183.125 -211.276)"/><path class="b" d="M352.519,367.3l0,.015h0A.115.115,0,0,0,352.519,367.3Z" transform="translate(-183.125 -211.276)"/><path class="a" d="M394.258,337.225a3.186,3.186,0,0,0-.208.417c.2-.248.217-.35.208-.417" transform="translate(-208.395 -192.979)"/><path class="b" d="M394.258,337.225a3.186,3.186,0,0,0-.208.417C394.245,337.393,394.267,337.291,394.258,337.225Z" transform="translate(-208.395 -192.979)"/><path class="a" d="M311.873,382.486a3.272,3.272,0,0,0-.669.534Z" transform="translate(-157.988 -220.518)"/><path class="b" d="M311.873,382.486a3.272,3.272,0,0,0-.669.534Z" transform="translate(-157.988 -220.518)"/><path class="a" d="M366.229,363.579h0c.04-.024.032-.02,0,0" transform="translate(-191.467 -209.004)"/><path class="b" d="M366.229,363.579h0C366.269,363.555,366.261,363.559,366.229,363.579Z" transform="translate(-191.467 -209.004)"/><path class="a" d="M407.3,29.332a.246.246,0,0,0-.052.181.473.473,0,0,0,.052-.181" transform="translate(-216.424 -5.642)"/><path class="b" d="M407.3,29.332a.246.246,0,0,0-.052.181A.473.473,0,0,0,407.3,29.332Z" transform="translate(-216.424 -5.642)"/><path class="a" d="M239.361,393.638a29.764,29.764,0,0,0-4.236.63c.383.287,4.432.236,4.236-.63" transform="translate(-111.697 -227.303)"/><path class="b" d="M239.361,393.638a29.764,29.764,0,0,0-4.236.63C235.508,394.555,239.557,394.5,239.361,393.638Z" transform="translate(-111.697 -227.303)"/><path class="a" d="M143,5.091a1.771,1.771,0,0,0,.8.3c-.009-.278-.21-.487-.8-.3" transform="translate(-55.646 9.151)"/><path class="b" d="M143,5.091a1.771,1.771,0,0,0,.8.3C143.8,5.111,143.595,4.9,143,5.091Z" transform="translate(-55.646 9.151)"/><path class="a" d="M317.133,20.585c-1.395.137-1.959.393-2.113.732a2.245,2.245,0,0,0,2.113-.732" transform="translate(-160.309 -0.32)"/><path class="b" d="M317.133,20.585c-1.395.137-1.959.393-2.113.732A2.245,2.245,0,0,0,317.133,20.585Z" transform="translate(-160.309 -0.32)"/><path class="a" d="M385.617,1l.883.2c-.654-.246-.845-.261-.883-.2" transform="translate(-203.264 11.616)"/><path class="b" d="M385.617,1l.883.2C385.846.952,385.654.937,385.617,1Z" transform="translate(-203.264 11.616)"/><path class="a" d="M408.351,152.3a9.321,9.321,0,0,1,.272-2.186,18.421,18.421,0,0,0,.388-2.458,12.747,12.747,0,0,1-.573,2.468,3.094,3.094,0,0,0-.087,2.175" transform="translate(-216.996 -77.638)"/><path class="b" d="M408.351,152.3a9.321,9.321,0,0,1,.272-2.186,18.421,18.421,0,0,0,.388-2.458,12.747,12.747,0,0,1-.573,2.468A3.094,3.094,0,0,0,408.351,152.3Z" transform="translate(-216.996 -77.638)"/><path class="a" d="M97.237,10.35l.71-.429-.758.33-.755.352.1.195s.352-.225.7-.448" transform="translate(-27.312 6.168)"/><path class="b" d="M97.237,10.35l.71-.429-.758.33-.755.352.1.195S96.885,10.573,97.237,10.35Z" transform="translate(-27.312 6.168)"/><path class="a" d="M134.579,6.374a10.97,10.97,0,0,1-2.336.751c.628.128,3.06-.4,2.336-.751" transform="translate(-49.1 8.326)"/><path class="b" d="M134.579,6.374a10.97,10.97,0,0,1-2.336.751C132.871,7.253,135.3,6.726,134.579,6.374Z" transform="translate(-49.1 8.326)"/><path class="a" d="M267.953,15.975a4.981,4.981,0,0,1-.439.238,3.867,3.867,0,0,1-.6.215c.016,0,.59.262.564.258a4.708,4.708,0,0,0,.475-.711" transform="translate(-131.038 2.485)"/><path class="b" d="M267.953,15.975a4.981,4.981,0,0,1-.439.238,3.867,3.867,0,0,1-.6.215c.016,0,.59.262.564.258A4.708,4.708,0,0,0,267.953,15.975Z" transform="translate(-131.038 2.485)"/><path class="c" d="M251.155,105.027c-.846,3.088-6.169,3.654-8.582,2.555a.808.808,0,0,0-.417-.05c-.208-2.741-.547-5.518-.559-8.271a1.107,1.107,0,0,0,.123-.023c3.3-1.119,10.716,1.1,9.436,5.79m-1.06-5.872a10.217,10.217,0,0,0-8.479-1.164s-1.6.193-1.6.722c0,3.041.186,6.958.283,9.019.269,5.575.509,11.149.926,16.715.684,9.169.629,18.535,2.053,27.626.073.486.806.448,1.327.146.415-.064.269-3.225.2-3.072-1.063-8.266-1.009-16.715-1.7-25.012-.412-4.946-.608-9.9-.839-14.855,0-.061-.007-.12-.012-.179,3.738,1.033,9.247-.3,10.692-4.042.912-2.359-1.066-4.665-2.852-5.9" transform="translate(-114.673 -47.153)"/><path class="c" d="M53.388,105.027c-.844,3.088-6.166,3.654-8.58,2.555a.81.81,0,0,0-.417-.05c-.2-2.741-.547-5.518-.556-8.271a1.251,1.251,0,0,0,.123-.023c3.293-1.119,10.713,1.1,9.431,5.79m-1.061-5.872a10.2,10.2,0,0,0-8.474-1.164s-1.6.193-1.6.722c0,3.041.186,6.958.285,9.019.266,5.575.507,11.149.922,16.715.683,9.169.636,18.535,2.053,27.626.078.486.809.448,1.33.146.415-.064.266-3.225.2-3.072-1.061-8.266-1.011-16.715-1.7-25.012-.412-4.946-.61-9.9-.837-14.855,0-.061-.012-.12-.012-.179,3.734,1.033,9.247-.3,10.69-4.042.912-2.359-1.063-4.665-2.854-5.9" transform="translate(5.656 -47.153)"/><path class="c" d="M98.407,152.813c-.118-.783-1.966-.205-1.841.644a239.867,239.867,0,0,1,2.049,31.862c.012.926,1.893.474,1.883-.314a243.3,243.3,0,0,0-2.09-32.192" transform="translate(-27.388 -80.549)"/><path class="c" d="M95.888,132.927c0-.926-1.885-.478-1.883.314a5.055,5.055,0,0,0,.144,1.383c.226.8,2.069.175,1.836-.646a3.825,3.825,0,0,1-.1-1.051" transform="translate(-25.833 -68.359)"/><path class="c" d="M153.307,152.924c-3.385,1.072-6.942,2.06-10.456,1.075-.606-7.628-1.125-15.258-1.5-22.9a55.711,55.711,0,0,0,6.152.175c.863,0,1.853-1.334.575-1.332a43.059,43.059,0,0,1-6.6-.217.8.8,0,0,0-.2,0c-.392-8.286-.613-16.581-.583-24.883,2.563-.306,5.1-.806,7.682-.384.761.125,2.159-1.089,1.014-1.278-3.241-.535-6.367.172-9.591.478a1.006,1.006,0,0,0-.865.6.569.569,0,0,0-.122.325c-.083,16.753.856,33.475,2.192,50.168.028.4.379.527.773.5,3.988,1.157,8.1.047,11.941-1.174,1.139-.363.724-1.523-.41-1.162" transform="translate(-53.092 -50.46)"/><path class="c" d="M350.289,153.122c-3.383,1.07-5.64,1.35-9.155.365-.606-7.628-1.122-15.258-1.5-22.9a16.187,16.187,0,0,0,3.329.172c.863,0,1.857-1.332.578-1.33a14.187,14.187,0,0,1-3.778-.217.8.8,0,0,0-.2,0c-.393-8.288-.613-16.583-.58-24.885,2.56-.309,8.83-.811,11.406-.385.762.123,2.157-1.091,1.014-1.28-3.239-.531-10.094.177-13.316.478a1.014,1.014,0,0,0-.868.606.542.542,0,0,0-.123.318c-.08,16.757.856,33.479,2.192,50.17.031.4.382.528.773.507,3.991,1.153,6.8.75,10.638-.464,1.146-.368.726-1.523-.408-1.164" transform="translate(-173.737 -50.149)"/><path class="c" d="M303.76,103.1c0-.919-1.884-.471-1.884.318a5.341,5.341,0,0,0,.149,1.388c.224.794,2.07.167,1.834-.651a4.034,4.034,0,0,1-.1-1.056" transform="translate(-152.312 -50.214)"/><path class="c" d="M302.666,145.808c-.137-8.189.118-16.378.134-24.569,0-.922-1.881-.478-1.881.311-.016,8.189-.217,16.38-.137,24.572.066,6.544-.351,13.612,1.007,20.043.172.795,2.02.2,1.843-.643-1.334-6.3-.865-13.292-.967-19.713" transform="translate(-151.635 -61.249)"/><path class="c" d="M100.273,290.41l-.083-.025a.914.914,0,0,0-1.148.294c-4.323,3.1-9.912,4.837-17.083,5.32-1.131.078-2.362.115-3.762.115-1.45,0-2.9-.04-4.347-.078l-.547-.016a33.293,33.293,0,0,1-4.333-.389,3.885,3.885,0,0,0,1.737-2.626.512.512,0,0,0-.118-.419.63.63,0,0,0-.516-.2,1.043,1.043,0,0,0-.3.044,6.428,6.428,0,0,0-1.944,1,11.831,11.831,0,0,0,.589-3.465.524.524,0,0,0-.151-.391.817.817,0,0,0-.82-.127,102.956,102.956,0,0,1-10.687,3.777c-1.141.337-2.27.74-3.361,1.131a25.038,25.038,0,0,1-7.866,1.914.9.9,0,0,0-.842.783c.005.247.187.495.625.495h0a29.583,29.583,0,0,0,9.165-2.235c.453-.163.905-.327,1.356-.49,1.383-.483,2.774-.941,4.163-1.4,2.256-.74,4.58-1.5,6.843-2.4a15.588,15.588,0,0,1-1.287,4.386c-.151.029-.307.066-.462.108a.742.742,0,0,0-.547.759.531.531,0,0,0,.422.443l-.08.167c-.207.453-.431.939-.535,1.193a.522.522,0,0,0,.04.516.611.611,0,0,0,.53.248.941.941,0,0,0,.842-.474,18.448,18.448,0,0,1,.943-1.777,12.4,12.4,0,0,1,1.742.269,14.7,14.7,0,0,0,1.522.257c1.723.168,3.446.2,5.363.221.731.007,1.459.014,2.188.014a64.282,64.282,0,0,0,6.812-.3,33.541,33.541,0,0,0,14.221-4.557c-.047.13-.1.271-.148.417-.344.957-.776,2.15-1.03,3.1a.546.546,0,0,0,.083.5.645.645,0,0,0,.53.236.841.841,0,0,0,.827-.533c.177-.641.467-1.565.75-2.465.893-2.845.9-2.977.785-3.19Z" transform="translate(4.173 -163.873)"/><path class="c" d="M185.845,286.6a.95.95,0,0,0-.9.306,3.536,3.536,0,0,0-.386.641.532.532,0,0,0,0,.518.589.589,0,0,0,.538.26.967.967,0,0,0,.87-.486,1.533,1.533,0,0,1,.189-.314.577.577,0,0,0,.115-.549.59.59,0,0,0-.431-.377" transform="translate(-80.892 -162.162)"/><path class="c" d="M193.543,290.417a1.458,1.458,0,0,1-.462.09c-.212,0-.253-.083-.264-.106a1.31,1.31,0,0,1,.334-1.089,4.557,4.557,0,0,1,3.533-1.346,5.8,5.8,0,0,1,1,.088,12.339,12.339,0,0,1-2.343,1.64,10.538,10.538,0,0,1-1.8.724m14.588,2.347a3.524,3.524,0,0,1,.827-1.018c.066.344.123.752.148,1.042a.544.544,0,0,1-.137.434c-.214.236-.74.252-.874.044a.566.566,0,0,1,.035-.5m50.813-5.455-.231-.072a42.851,42.851,0,0,0-7.884-1.462,76.507,76.507,0,0,0-8.837-.453,132.037,132.037,0,0,0-25.91,2.7c-.384.08-.787.155-1.192.234a20.265,20.265,0,0,0-5.007,1.4c-.155-.45-.318-.872-.459-1.233l-.113-.28c-.118-.32-.521-.32-.653-.32-.212,0-.722.031-.894.3a7.038,7.038,0,0,1-3.316,2.487c-.882.356-1.584.3-2-.174a2.549,2.549,0,0,1-.386-1.994,16.726,16.726,0,0,1,2.544-5.8l.377-.634a.513.513,0,0,0,.023-.528.614.614,0,0,0-.579-.274,1,1,0,0,0-.646.215c-.921.914-1.777,1.93-2.607,2.911-.742.879-1.508,1.787-2.319,2.621a7.546,7.546,0,0,0-5.424.639c-.608.33-2.305,1.619-2.383,2.861a1.3,1.3,0,0,0,.592,1.188,1.9,1.9,0,0,0,1.134.318,8.424,8.424,0,0,0,4.116-1.629,33.469,33.469,0,0,0,4.153-3.922c-.8,2.112-.787,3.72.026,4.889a2.306,2.306,0,0,0,1.971.986c1.756,0,3.967-1.485,5.2-2.7.113.281.224.563.323.846a1.476,1.476,0,0,1-.13.087c-1.954,1.375-1.942,2.626-1.76,3.248a1.754,1.754,0,0,0,1.421,1.289l.179,0a2.05,2.05,0,0,0,1.733-.752c.674-.884.518-2.315.238-3.449,2.576-1.416,19.513-4.019,27.687-4.2,1.108-.024,2.248-.043,3.411-.043a79.064,79.064,0,0,1,10.147.563c.163.016.4.042.674.073,5.558.6,8.363,1.514,8.344,2.708a.553.553,0,0,0,.163.4.854.854,0,0,0,1.341-.518c.021-1.556-1.914-2.164-3.072-2.527" transform="translate(-84.877 -158.894)"/></g></g></g></svg>