<svg version="1.1" xmlns="http://www.w3.org/2000/svg" xmlns:xlink="http://www.w3.org/1999/xlink">
<defs>
<symbol id="icon-man-user" viewBox="0 0 24 32">
<title>man-user</title>
<path d="M12.17 15.65c3.558 0 6.443-3.504 6.443-7.824s-0.947-7.826-6.443-7.826-6.443 3.504-6.443 7.824 2.884 7.826 6.443 7.826z"></path>
<path d="M0.006 27.598c0-0.264 0-0.074 0 0z"></path>
<path d="M24.337 27.803c0-0.072 0-0.5 0 0z"></path>
<path d="M24.323 27.282c-0.118-7.528-1.103-9.673-8.629-11.032-0.931 0.837-2.17 1.349-3.527 1.349s-2.596-0.512-3.532-1.354l0.005 0.004c-7.447 1.343-8.485 3.457-8.622 10.787-0.012 0.598-0.017 0.63-0.019 0.56 0 0.13 0 0.371 0 0.791 0 0 1.791 3.611 12.168 3.611s12.168-3.611 12.168-3.611c0-0.27 0-0.457 0-0.585-0.008-0.104-0.013-0.226-0.013-0.348 0-0.061 0.001-0.121 0.003-0.182l-0 0.009z"></path>
</symbol>
<symbol id="icon-magnifying-glass" viewBox="0 0 32 32">
<title>magnifying-glass</title>
<path d="M19.636 14.545c0 2.812-2.279 5.091-5.091 5.091s-5.091-2.279-5.091-5.091c0-2.812 2.279-5.091 5.091-5.091s5.091 2.279 5.091 5.091z"></path>
<path d="M15.999 0c-8.836 0.001-15.998 7.164-15.998 15.999s7.163 15.999 15.999 15.999 15.999-7.163 15.999-15.999v0c0-0.014 0-0.030 0-0.045 0-8.811-7.143-15.954-15.954-15.954-0.016 0-0.033 0-0.049 0h0.003zM25.236 24.218l-1.018 1.018c-0.128 0.135-0.309 0.218-0.509 0.218s-0.381-0.084-0.509-0.218l-3.927-3.927c-0.063-0.074-0.157-0.121-0.261-0.121-0.065 0-0.125 0.018-0.176 0.049l0.002-0.001c-1.19 0.772-2.645 1.231-4.208 1.231-0.029 0-0.059-0-0.088-0l0.004 0c-4.418 0-8-3.582-8-8s3.582-8 8-8c4.418 0 8 3.582 8 8v0c0 0.024 0 0.052 0 0.080 0 1.566-0.461 3.023-1.255 4.245l0.018-0.030c-0.073 0.146-0.073 0.359 0.073 0.436l3.927 3.927c0.099 0.139 0.158 0.313 0.158 0.5 0 0.228-0.088 0.436-0.231 0.591l0.001-0.001z"></path>
</symbol>
<symbol id="icon-youtube" viewBox="0 0 32 32">
<title>youtube</title>
<path d="M14.007 18.997l5.204-2.997-5.204-2.997z"></path>
<path d="M15.999 0c-8.836 0.001-15.998 7.164-15.998 15.999s7.163 15.999 15.999 15.999 15.999-7.163 15.999-15.999v0c-0.001-8.836-7.164-15.999-16-15.999h-0zM25.993 16.013c0 0.049 0 0.106 0 0.164 0 1.642-0.15 3.249-0.437 4.808l0.025-0.162c-0.235 0.863-0.898 1.53-1.74 1.767l-0.018 0.004c-2.133 0.265-4.602 0.417-7.106 0.417-0.252 0-0.504-0.002-0.755-0.005l0.038 0c-0.213 0.003-0.465 0.004-0.718 0.004-2.504 0-4.972-0.157-7.394-0.462l0.288 0.030c-0.86-0.239-1.524-0.902-1.758-1.745l-0.004-0.018c-0.263-1.395-0.413-3.001-0.413-4.641 0-0.059 0-0.118 0.001-0.177l-0 0.009c-0-0.052-0.001-0.113-0.001-0.175 0-1.641 0.15-3.248 0.437-4.806l-0.025 0.162c0.244-0.86 0.905-1.525 1.744-1.771l0.018-0.005c2.133-0.265 4.602-0.417 7.106-0.417 0.252 0 0.504 0.002 0.755 0.005l-0.038-0c0.215-0.003 0.47-0.004 0.724-0.004 2.502 0 4.967 0.157 7.387 0.462l-0.288-0.030c0.86 0.238 1.524 0.901 1.759 1.743l0.004 0.018c0.26 1.356 0.409 2.915 0.409 4.509 0 0.112-0.001 0.223-0.002 0.334l0-0.017z"></path>
</symbol>
<symbol id="icon-instagram" viewBox="0 0 32 32">
<title>instagram</title>
<path d="M19.063 15.999c0 1.691-1.371 3.062-3.062 3.062s-3.062-1.371-3.062-3.062c0-1.691 1.37-3.062 3.061-3.062h0c0 0 0.001 0 0.001 0 1.691 0 3.062 1.371 3.062 3.062v0z"></path>
<path d="M23.161 10.582c-0.316-0.804-0.94-1.428-1.723-1.737l-0.021-0.007c-0.506-0.193-1.091-0.308-1.702-0.316l-0.003-0c-0.968-0.044-1.259-0.054-3.713-0.054s-2.742 0.009-3.713 0.054c-0.614 0.008-1.199 0.123-1.74 0.329l0.035-0.012c-0.804 0.316-1.428 0.94-1.737 1.723l-0.007 0.021c-0.193 0.506-0.309 1.092-0.316 1.703l-0 0.003c-0.044 0.968-0.054 1.259-0.054 3.713s0.010 2.742 0.054 3.712c0.007 0.614 0.123 1.199 0.328 1.74l-0.012-0.035c0.316 0.804 0.94 1.428 1.723 1.737l0.021 0.007c0.506 0.194 1.092 0.309 1.704 0.316l0.003 0c0.968 0.044 1.259 0.054 3.712 0.054s2.742-0.009 3.712-0.054c0.615-0.007 1.2-0.122 1.741-0.327l-0.035 0.012c0.804-0.316 1.428-0.94 1.737-1.723l0.007-0.021c0.193-0.506 0.308-1.091 0.316-1.702l0-0.003c0.044-0.97 0.054-1.259 0.054-3.712s-0.009-2.742-0.054-3.713c-0.008-0.615-0.124-1.201-0.33-1.742l0.012 0.035zM15.999 20.718c-2.605 0-4.716-2.111-4.716-4.716s2.111-4.716 4.716-4.716c2.605 0 4.716 2.111 4.716 4.716v0c0 2.605-2.111 4.716-4.716 4.716v0zM20.904 12.198c-0.609 0-1.102-0.493-1.102-1.102s0.494-1.102 1.102-1.102c0.609 0 1.102 0.493 1.102 1.102v0c0 0.609-0.494 1.102-1.102 1.102v0z"></path>
<path d="M15.999 0c-8.836 0.001-15.998 7.164-15.998 15.999s7.163 15.999 15.999 15.999 15.999-7.163 15.999-15.999v0c-0.001-8.836-7.164-15.999-16-15.999h-0zM25.131 19.788c-0.016 0.805-0.172 1.569-0.442 2.276l0.016-0.046c-0.488 1.238-1.449 2.199-2.655 2.676l-0.032 0.011c-0.661 0.255-1.425 0.41-2.223 0.427l-0.007 0c-0.979 0.045-1.293 0.056-3.788 0.056s-2.808-0.011-3.788-0.056c-0.805-0.016-1.57-0.172-2.277-0.442l0.046 0.016c-1.238-0.488-2.199-1.449-2.676-2.655l-0.011-0.032c-0.255-0.661-0.41-1.425-0.427-2.223l-0-0.007c-0.045-0.98-0.056-1.293-0.056-3.788s0.011-2.808 0.056-3.788c0.017-0.806 0.172-1.57 0.443-2.277l-0.016 0.046c0.488-1.237 1.449-2.198 2.654-2.675l0.032-0.011c0.661-0.255 1.425-0.41 2.223-0.427l0.007-0c0.979-0.045 1.293-0.056 3.788-0.056s2.808 0.011 3.788 0.056c0.805 0.017 1.569 0.172 2.276 0.442l-0.046-0.016c1.238 0.488 2.199 1.449 2.676 2.655l0.011 0.032c0.255 0.661 0.411 1.425 0.428 2.223l0 0.007c0.045 0.979 0.055 1.293 0.055 3.788s-0.009 2.809-0.054 3.788z"></path>
</symbol>
<symbol id="icon-facebook" viewBox="0 0 32 32">
<title>facebook</title>
<path d="M18.579 31.792q-0.2 0.033-0.401 0.060 0.202-0.025 0.401-0.060z"></path>
<path d="M18.899 31.737l-0.191 0.034z"></path>
<path d="M17.82 31.896q-0.234 0.026-0.471 0.046 0.237-0.020 0.471-0.046z"></path>
<path d="M18.128 31.859l-0.226 0.029z"></path>
<path d="M19.335 31.65l-0.169 0.035z"></path>
<path d="M20.417 31.381l-0.136 0.037z"></path>
<path d="M20.089 31.471l-0.148 0.038z"></path>
<path d="M19.662 31.578l-0.158 0.035z"></path>
<path d="M17.345 31.943l-0.253 0.019z"></path>
<path d="M32 15.999c-0.001-8.836-7.164-15.998-15.999-15.998s-15.999 7.163-15.999 15.999c0 8.836 7.163 15.999 15.998 15.999h0c0.094 0 0.188 0 0.281 0v-12.459h-3.436v-4.006h3.437v-2.948c0-3.419 2.084-5.28 5.137-5.28 0.028-0 0.062-0 0.095-0 1.052 0 2.091 0.057 3.113 0.169l-0.126-0.011v3.573h-2.104c-1.659 0-1.981 0.789-1.981 1.946v2.551h3.967l-0.517 4.006h-3.45v11.845c6.744-1.986 11.583-8.121 11.584-15.386v-0z"></path>
<path d="M17.057 31.965q-0.25 0.016-0.501 0.025 0.251-0.009 0.501-0.025z"></path>
<path d="M16.547 31.989l-0.265 0.007z"></path>
</symbol>
<symbol id="icon-cart" viewBox="0 0 31 32">
<title>cart</title>
<path d="M30.858 14.907c0-1.113-0.902-2.015-2.015-2.015v0h-27c-1.037 0.091-1.844 0.955-1.844 2.008 0 0.881 0.566 1.63 1.353 1.904l0.014 0.004 2.721 13.009c0.004 1.207 0.983 2.183 2.19 2.183 0 0 0.001 0 0.001 0h18.49c1.209 0 2.19-0.98 2.19-2.19v0l2.773-13.123c0.665-0.331 1.117-1.002 1.129-1.779l0-0.002zM8.769 27.278c0 0.371-0.3 0.671-0.671 0.671h-0.209c-0.371 0-0.671-0.3-0.671-0.671v0-8c0-0.371 0.3-0.671 0.671-0.671v0h0.188c0.371 0 0.671 0.3 0.671 0.671v0zM13.773 27.278c0 0.371-0.3 0.671-0.671 0.671v0h-0.189c-0.371 0-0.671-0.3-0.671-0.671v0-8c0-0.371 0.3-0.671 0.671-0.671v0h0.188c0.371 0 0.671 0.3 0.671 0.671v0zM18.777 27.278c0 0.371-0.3 0.671-0.671 0.671v0h-0.188c-0.371 0-0.671-0.3-0.671-0.671v0-8c0-0.371 0.3-0.671 0.671-0.671v0h0.188c0.371 0 0.671 0.3 0.671 0.671v0zM23.781 27.278c0 0.371-0.3 0.671-0.671 0.671v0h-0.188c-0.371 0-0.671-0.3-0.671-0.671v0-8c0-0.371 0.3-0.671 0.671-0.671v0h0.188c0.371 0 0.671 0.3 0.671 0.671v0z"></path>
<path d="M6.578 9.597c0.631-4.347 4.333-7.648 8.805-7.648s8.173 3.302 8.799 7.6l0.006 0.048c-0 0.011-0.001 0.023-0.001 0.036 0 0.557 0.451 1.008 1.008 1.008s1.008-0.451 1.008-1.008c0-0.013-0-0.025-0.001-0.038l0 0.002c-0.655-5.433-5.237-9.602-10.793-9.602s-10.138 4.17-10.788 9.55l-0.005 0.052c-0.010 0.053-0.016 0.113-0.016 0.175 0 0.55 0.446 0.996 0.996 0.996s0.996-0.446 0.996-0.996c0-0.062-0.006-0.123-0.016-0.181l0.001 0.006z"></path>
</symbol>
<symbol id="icon-big-heart" viewBox="0 0 36 32">
<title>big-heart</title>
<path d="M17.878 32c-34.881-19.027-9.653-42.683 0-26.752 9.656-15.931 34.883 7.725 0 26.752z"></path>
</symbol>
</defs>
</svg>
