<svg version="1.1" xmlns="http://www.w3.org/2000/svg" xmlns:xlink="http://www.w3.org/1999/xlink">
<defs>
<symbol id="icon-arrow-right" width="44" height="32" viewBox="0 0 44 32">
<title>arrow-right</title>
<path d="M28.092 5.432c-0.387-0.378-0.627-0.905-0.627-1.488s0.24-1.11 0.626-1.488l0-0c0.832-0.8 2.144-0.8 2.976 0l12.46 12.46c0.388 0.388 0.628 0.924 0.628 1.516s-0.24 1.128-0.628 1.516l-12.46 12.46c-0.378 0.387-0.905 0.627-1.488 0.627s-1.11-0.24-1.488-0.626l-0-0c-0.387-0.378-0.627-0.905-0.627-1.488s0.24-1.11 0.626-1.488l0-0 8.92-8.888h-31.664c-1.15-0.007-2.080-0.941-2.080-2.092 0-0.007 0-0.014 0-0.021v0.001c0-1.16 0.92-2.080 2.080-2.080h31.668z"></path>
</symbol>
<symbol id="icon-arrow-left" viewBox="0 0 44 32">
<title>arrow-left</title>
<path d="M15.908 5.432c0.386-0.378 0.625-0.904 0.625-1.486s-0.239-1.108-0.624-1.486l-0-0c-0.384-0.373-0.909-0.604-1.488-0.604s-1.104 0.23-1.489 0.604l-12.46 12.456c-0.388 0.388-0.628 0.924-0.628 1.516s0.24 1.128 0.628 1.516l12.46 12.46c0.378 0.387 0.905 0.627 1.488 0.627s1.11-0.24 1.488-0.626l0-0c0.387-0.378 0.627-0.905 0.627-1.488s-0.24-1.11-0.626-1.488l-0-0-8.92-8.888h31.668c1.16 0 2.080-0.952 2.080-2.112s-0.92-2.080-2.080-2.080h-31.668z"></path>
</symbol>
<symbol id="icon-arrow" viewBox="0 0 23 32">
<title>arrow</title>
<path d="M19.433 11.677c0.275 0.28 0.657 0.454 1.081 0.454s0.806-0.174 1.080-0.454l0-0c0.585-0.605 0.585-1.556 0-2.161l-9.056-9.062c-0.282-0.282-0.672-0.457-1.103-0.457s-0.82 0.175-1.103 0.457l-9.068 9.062c-0.28 0.275-0.454 0.657-0.454 1.081s0.174 0.806 0.454 1.080l0 0c0.275 0.28 0.657 0.454 1.081 0.454s0.806-0.174 1.080-0.454l0-0 6.467-6.487v23.028c0 0.844 0.689 1.513 1.533 1.513s1.513-0.669 1.513-1.513v-23.028z"></path>
</symbol>
</defs>
</svg>
