<svg version="1.1" xmlns="http://www.w3.org/2000/svg" xmlns:xlink="http://www.w3.org/1999/xlink">
<defs>
<symbol id="icon-link" viewBox="0 0 32 32">
<title>link</title>
<path d="M16 0c-8.837 0-16 7.163-16 16s7.163 16 16 16c8.837 0 16-7.163 16-16v0c0-8.837-7.163-16-16-16v0zM24.039 13.152l-3.913 3.913c-0.407 0.407-0.969 0.659-1.59 0.659s-1.183-0.252-1.59-0.659l-0.154-0.154-0.417 0.417 0.152 0.152c0.407 0.407 0.658 0.969 0.658 1.59s-0.252 1.183-0.658 1.59l-3.913 3.913c-0.407 0.407-0.969 0.659-1.59 0.659s-1.183-0.252-1.59-0.659l-0-0-1.475-1.48c-0.407-0.407-0.658-0.969-0.658-1.59s0.252-1.183 0.658-1.59l3.914-3.913c0.407-0.407 0.969-0.659 1.59-0.659s1.183 0.252 1.59 0.659l0.152 0.152 0.417-0.417-0.152-0.152c-0.407-0.407-0.658-0.969-0.658-1.59s0.251-1.183 0.658-1.59l3.914-3.913c0.407-0.407 0.969-0.659 1.59-0.659s1.183 0.252 1.59 0.659l0 0 1.474 1.489c0.404 0.407 0.654 0.967 0.654 1.586s-0.25 1.18-0.655 1.587l0-0z"></path>
<path d="M14.452 19.055l-0.612 0.612-0.949-0.949 0.612-0.612-0.124-0.124c-0.086-0.086-0.205-0.139-0.336-0.139s-0.25 0.053-0.336 0.139l-3.164 3.163c-0.086 0.086-0.139 0.205-0.139 0.336s0.053 0.25 0.139 0.336v0l1.196 1.196c0.087 0.083 0.205 0.135 0.336 0.135s0.249-0.051 0.336-0.135l-0 0 3.163-3.164c0.086-0.086 0.139-0.205 0.139-0.336s-0.053-0.25-0.139-0.336v0z"></path>
<path d="M21.258 10.106c-0.086-0.086-0.205-0.139-0.336-0.139s-0.25 0.053-0.336 0.139v0l-3.164 3.163c-0.086 0.086-0.138 0.205-0.138 0.336s0.053 0.25 0.138 0.336l0.124 0.124 0.938-0.939 0.949 0.949-0.938 0.939 0.124 0.124c0.087 0.083 0.205 0.135 0.336 0.135s0.249-0.051 0.336-0.135l-0 0 3.163-3.163c0.086-0.086 0.138-0.205 0.138-0.336s-0.053-0.25-0.138-0.336l0 0z"></path>
</symbol>
<symbol id="icon-twitter-logo-button" viewBox="0 0 32 32">
<title>twitter-logo-button</title>
<path d="M16 0c-8.837 0-16 7.163-16 16s7.163 16 16 16c8.837 0 16-7.163 16-16v0c-0.010-8.832-7.168-15.99-15.999-16h-0.001zM23.138 12.338c0.007 0.159 0.011 0.318 0.011 0.478 0 0.001 0 0.001 0 0.002 0 5.785-4.69 10.475-10.476 10.475-2.098 0-4.052-0.617-5.69-1.679l0.041 0.025c0.262 0.033 0.565 0.051 0.873 0.051 1.734 0 3.329-0.594 4.594-1.589l-0.016 0.012c-1.605-0.031-2.956-1.083-3.433-2.532l-0.007-0.026c0.21 0.042 0.451 0.067 0.698 0.067 0.343 0 0.675-0.047 0.99-0.134l-0.026 0.006c-1.696-0.353-2.952-1.835-2.952-3.61 0-0 0-0 0-0.001v0c0-0.016 0-0.032 0-0.047 0.481 0.272 1.052 0.44 1.661 0.46l0.006 0c-0.992-0.671-1.635-1.793-1.635-3.064 0-0.683 0.185-1.322 0.509-1.87l-0.009 0.017c1.824 2.232 4.522 3.69 7.565 3.847l0.025 0.001c-0.062-0.252-0.097-0.542-0.097-0.84 0-2.035 1.65-3.685 3.685-3.685 1.060 0 2.015 0.448 2.688 1.164l0.002 0.002c0.882-0.177 1.666-0.487 2.372-0.912l-0.033 0.018c-0.287 0.869-0.861 1.578-1.608 2.030l-0.017 0.009c0.785-0.094 1.499-0.298 2.162-0.598l-0.046 0.019c-0.503 0.747-1.112 1.377-1.814 1.887l-0.021 0.015z"></path>
</symbol>
</defs>
</svg>
