<svg xmlns="http://www.w3.org/2000/svg" width="25.664" height="27.495" viewBox="0 0 25.664 27.495"><defs><style>.a{fill:#a5c1c2;}</style></defs><path class="a" d="M13.328,2.747a.458.458,0,0,0-.458.458v1.5l-2.408.8L5.9,6.422a.461.461,0,0,0-.156.062L.707,9.692a.459.459,0,0,0-.141.633l3.208,5.041a.458.458,0,0,0,.7.092l1.068-.968V27.034A.458.458,0,0,0,6,27.492H20.66a.458.458,0,0,0,.458-.458V14.587l1.085.887a.449.449,0,0,0,.353.1.454.454,0,0,0,.312-.191L26.076,10.8a.458.458,0,0,0-.106-.633L20.929,6.5a.454.454,0,0,0-.179-.078L16.194,5.51l-2.408-.8V3.6A1.83,1.83,0,1,0,11.495,1.83a.458.458,0,0,0,.916,0,.916.916,0,1,1,.916.916Zm0,2.774,2.259.754a2.28,2.28,0,0,1-4.518,0Zm11.739,5.122L22.4,14.452l-1.451-1.187a.458.458,0,0,0-.749.355V26.576H6.454V13.453a.458.458,0,0,0-.767-.339l-1.43,1.3L1.588,10.22,6.17,7.3l4-.8a3.208,3.208,0,0,0,6.321,0l3.983.8Zm0,0" transform="translate(-0.495 0.002)"/></svg>