<svg xmlns="http://www.w3.org/2000/svg" width="28.18" height="28.18" viewBox="0 0 28.18 28.18"><defs><style>.a{opacity:0.59;}.b{fill:#a2a2a2;}</style></defs><g class="a"><path class="b" d="M14.09,0A14.09,14.09,0,1,0,28.18,14.09,14.106,14.106,0,0,0,14.09,0Zm6.286,10.865c.006.14.01.28.01.421a9.225,9.225,0,0,1-14.2,7.77,6.548,6.548,0,0,0,4.8-1.343,3.246,3.246,0,0,1-3.03-2.253,3.256,3.256,0,0,0,1.464-.054,3.244,3.244,0,0,1-2.6-3.18c0-.014,0-.028,0-.041a3.23,3.23,0,0,0,1.468.405,3.248,3.248,0,0,1-1-4.33,9.208,9.208,0,0,0,6.684,3.389A3.245,3.245,0,0,1,19.5,8.691a6.473,6.473,0,0,0,2.06-.787A3.258,3.258,0,0,1,20.129,9.7a6.447,6.447,0,0,0,1.863-.51A6.523,6.523,0,0,1,20.376,10.865Z"/></g></svg>